%TF.GenerationSoftware,KiCad,Pcbnew,(6.0.8-1)-1*%
%TF.CreationDate,2024-02-23T21:37:44-06:00*%
%TF.ProjectId,RGB LED Interface,52474220-4c45-4442-9049-6e7465726661,rev?*%
%TF.SameCoordinates,Original*%
%TF.FileFunction,Copper,L2,Bot*%
%TF.FilePolarity,Positive*%
%FSLAX46Y46*%
G04 Gerber Fmt 4.6, Leading zero omitted, Abs format (unit mm)*
G04 Created by KiCad (PCBNEW (6.0.8-1)-1) date 2024-02-23 21:37:44*
%MOMM*%
%LPD*%
G01*
G04 APERTURE LIST*
%TA.AperFunction,ComponentPad*%
%ADD10C,1.800000*%
%TD*%
%TA.AperFunction,ComponentPad*%
%ADD11C,3.500000*%
%TD*%
%TA.AperFunction,ComponentPad*%
%ADD12R,1.700000X1.700000*%
%TD*%
%TA.AperFunction,ComponentPad*%
%ADD13O,1.700000X1.700000*%
%TD*%
%TA.AperFunction,ComponentPad*%
%ADD14C,1.650000*%
%TD*%
G04 APERTURE END LIST*
D10*
%TO.P,X1,1,A*%
%TO.N,+BATT*%
X128350000Y-70805000D03*
%TO.P,X1,2,B*%
%TO.N,/RED_LED_A*%
X131850000Y-75805000D03*
%TO.P,X1,3,C*%
%TO.N,/GREEN_LED_A*%
X135350000Y-70805000D03*
%TO.P,X1,4,D*%
%TO.N,/BLUE_LED_A*%
X138850000Y-75805000D03*
%TD*%
D11*
%TO.P,H3,1,1*%
%TO.N,unconnected-(H3-Pad1)*%
X152500000Y-80500000D03*
%TD*%
D12*
%TO.P,J1,1,Pin_1*%
%TO.N,/RED*%
X104140000Y-73660000D03*
D13*
%TO.P,J1,2,Pin_2*%
%TO.N,unconnected-(J1-Pad2)*%
X104140000Y-76200000D03*
%TO.P,J1,3,Pin_3*%
%TO.N,GND*%
X104140000Y-78740000D03*
%TD*%
D12*
%TO.P,J2,1,Pin_1*%
%TO.N,/GREEN*%
X111760000Y-73660000D03*
D13*
%TO.P,J2,2,Pin_2*%
%TO.N,unconnected-(J2-Pad2)*%
X111760000Y-76200000D03*
%TO.P,J2,3,Pin_3*%
%TO.N,GND*%
X111760000Y-78740000D03*
%TD*%
D12*
%TO.P,J3,1,Pin_1*%
%TO.N,/BLUE*%
X119380000Y-73660000D03*
D13*
%TO.P,J3,2,Pin_2*%
%TO.N,unconnected-(J3-Pad2)*%
X119380000Y-76200000D03*
%TO.P,J3,3,Pin_3*%
%TO.N,GND*%
X119380000Y-78740000D03*
%TD*%
D14*
%TO.P,J4,1,1*%
%TO.N,+BATT*%
X144313000Y-70800000D03*
%TO.P,J4,2,2*%
%TO.N,GND*%
X147813000Y-75800000D03*
%TD*%
D11*
%TO.P,H4,1,1*%
%TO.N,unconnected-(H4-Pad1)*%
X152500000Y-68500000D03*
%TD*%
%TO.P,H1,1,1*%
%TO.N,unconnected-(H1-Pad1)*%
X100000000Y-68500000D03*
%TD*%
%TO.P,H2,1,1*%
%TO.N,unconnected-(H2-Pad1)*%
X100000000Y-80500000D03*
%TD*%
%TA.AperFunction,Conductor*%
%TO.N,GND*%
G36*
X151078852Y-66528502D02*
G01*
X151125345Y-66582158D01*
X151135449Y-66652432D01*
X151105955Y-66717012D01*
X151093809Y-66729232D01*
X150899573Y-66899573D01*
X150896864Y-66902662D01*
X150707085Y-67119062D01*
X150707081Y-67119068D01*
X150704367Y-67122162D01*
X150702078Y-67125588D01*
X150702074Y-67125593D01*
X150579256Y-67309405D01*
X150539885Y-67368327D01*
X150408941Y-67633855D01*
X150313776Y-67914203D01*
X150256017Y-68204574D01*
X150236654Y-68500000D01*
X150256017Y-68795426D01*
X150313776Y-69085797D01*
X150408941Y-69366145D01*
X150444653Y-69438562D01*
X150536750Y-69625315D01*
X150539885Y-69631673D01*
X150579256Y-69690595D01*
X150695489Y-69864551D01*
X150704367Y-69877838D01*
X150707081Y-69880932D01*
X150707085Y-69880938D01*
X150896864Y-70097338D01*
X150899573Y-70100427D01*
X150902662Y-70103136D01*
X151119062Y-70292915D01*
X151119068Y-70292919D01*
X151122162Y-70295633D01*
X151125588Y-70297922D01*
X151125593Y-70297926D01*
X151309405Y-70420744D01*
X151368327Y-70460115D01*
X151372026Y-70461939D01*
X151372031Y-70461942D01*
X151508313Y-70529148D01*
X151633855Y-70591059D01*
X151637760Y-70592384D01*
X151637761Y-70592385D01*
X151910290Y-70684896D01*
X151910294Y-70684897D01*
X151914203Y-70686224D01*
X151918247Y-70687028D01*
X151918253Y-70687030D01*
X152200535Y-70743180D01*
X152200541Y-70743181D01*
X152204574Y-70743983D01*
X152208679Y-70744252D01*
X152208686Y-70744253D01*
X152495881Y-70763076D01*
X152500000Y-70763346D01*
X152504119Y-70763076D01*
X152791314Y-70744253D01*
X152791321Y-70744252D01*
X152795426Y-70743983D01*
X152799459Y-70743181D01*
X152799465Y-70743180D01*
X153081747Y-70687030D01*
X153081753Y-70687028D01*
X153085797Y-70686224D01*
X153089706Y-70684897D01*
X153089710Y-70684896D01*
X153362239Y-70592385D01*
X153362240Y-70592384D01*
X153366145Y-70591059D01*
X153491687Y-70529148D01*
X153627969Y-70461942D01*
X153627974Y-70461939D01*
X153631673Y-70460115D01*
X153690595Y-70420744D01*
X153874407Y-70297926D01*
X153874412Y-70297922D01*
X153877838Y-70295633D01*
X153880932Y-70292919D01*
X153880938Y-70292915D01*
X154097338Y-70103136D01*
X154100427Y-70100427D01*
X154270768Y-69906191D01*
X154330722Y-69868164D01*
X154401717Y-69868586D01*
X154461214Y-69907325D01*
X154490322Y-69972080D01*
X154491500Y-69989269D01*
X154491500Y-79010731D01*
X154471498Y-79078852D01*
X154417842Y-79125345D01*
X154347568Y-79135449D01*
X154282988Y-79105955D01*
X154270768Y-79093809D01*
X154103136Y-78902662D01*
X154100427Y-78899573D01*
X154097338Y-78896864D01*
X153880938Y-78707085D01*
X153880932Y-78707081D01*
X153877838Y-78704367D01*
X153874412Y-78702078D01*
X153874407Y-78702074D01*
X153635106Y-78542179D01*
X153631673Y-78539885D01*
X153627974Y-78538061D01*
X153627969Y-78538058D01*
X153491687Y-78470852D01*
X153366145Y-78408941D01*
X153362239Y-78407615D01*
X153089710Y-78315104D01*
X153089706Y-78315103D01*
X153085797Y-78313776D01*
X153081753Y-78312972D01*
X153081747Y-78312970D01*
X152799465Y-78256820D01*
X152799459Y-78256819D01*
X152795426Y-78256017D01*
X152791321Y-78255748D01*
X152791314Y-78255747D01*
X152504119Y-78236924D01*
X152500000Y-78236654D01*
X152495881Y-78236924D01*
X152208686Y-78255747D01*
X152208679Y-78255748D01*
X152204574Y-78256017D01*
X152200541Y-78256819D01*
X152200535Y-78256820D01*
X151918253Y-78312970D01*
X151918247Y-78312972D01*
X151914203Y-78313776D01*
X151910294Y-78315103D01*
X151910290Y-78315104D01*
X151637761Y-78407615D01*
X151633855Y-78408941D01*
X151508313Y-78470852D01*
X151372031Y-78538058D01*
X151372026Y-78538061D01*
X151368327Y-78539885D01*
X151364894Y-78542179D01*
X151125593Y-78702074D01*
X151125588Y-78702078D01*
X151122162Y-78704367D01*
X151119068Y-78707081D01*
X151119062Y-78707085D01*
X150902662Y-78896864D01*
X150899573Y-78899573D01*
X150896864Y-78902662D01*
X150707085Y-79119062D01*
X150707081Y-79119068D01*
X150704367Y-79122162D01*
X150702078Y-79125588D01*
X150702074Y-79125593D01*
X150684246Y-79152275D01*
X150539885Y-79368327D01*
X150408941Y-79633855D01*
X150407616Y-79637760D01*
X150407615Y-79637761D01*
X150316064Y-79907464D01*
X150313776Y-79914203D01*
X150312972Y-79918247D01*
X150312970Y-79918253D01*
X150281912Y-80074393D01*
X150256017Y-80204574D01*
X150236654Y-80500000D01*
X150256017Y-80795426D01*
X150313776Y-81085797D01*
X150408941Y-81366145D01*
X150539885Y-81631673D01*
X150542179Y-81635106D01*
X150695489Y-81864551D01*
X150704367Y-81877838D01*
X150707081Y-81880932D01*
X150707085Y-81880938D01*
X150896864Y-82097338D01*
X150899573Y-82100427D01*
X150902662Y-82103136D01*
X151093809Y-82270768D01*
X151131836Y-82330722D01*
X151131414Y-82401717D01*
X151092675Y-82461214D01*
X151027920Y-82490322D01*
X151010731Y-82491500D01*
X101489269Y-82491500D01*
X101421148Y-82471498D01*
X101374655Y-82417842D01*
X101364551Y-82347568D01*
X101394045Y-82282988D01*
X101406191Y-82270768D01*
X101597338Y-82103136D01*
X101600427Y-82100427D01*
X101603136Y-82097338D01*
X101792915Y-81880938D01*
X101792919Y-81880932D01*
X101795633Y-81877838D01*
X101804512Y-81864551D01*
X101957821Y-81635106D01*
X101960115Y-81631673D01*
X102091059Y-81366145D01*
X102186224Y-81085797D01*
X102243983Y-80795426D01*
X102263346Y-80500000D01*
X102243983Y-80204574D01*
X102218089Y-80074393D01*
X102187030Y-79918253D01*
X102187028Y-79918247D01*
X102186224Y-79914203D01*
X102183937Y-79907464D01*
X102092385Y-79637761D01*
X102092384Y-79637760D01*
X102091059Y-79633855D01*
X101960115Y-79368327D01*
X101815754Y-79152275D01*
X101797926Y-79125593D01*
X101797922Y-79125588D01*
X101795633Y-79122162D01*
X101792919Y-79119068D01*
X101792915Y-79119062D01*
X101695486Y-79007966D01*
X102808257Y-79007966D01*
X102838565Y-79142446D01*
X102841645Y-79152275D01*
X102921770Y-79349603D01*
X102926413Y-79358794D01*
X103037694Y-79540388D01*
X103043777Y-79548699D01*
X103183213Y-79709667D01*
X103190580Y-79716883D01*
X103354434Y-79852916D01*
X103362881Y-79858831D01*
X103546756Y-79966279D01*
X103556042Y-79970729D01*
X103755001Y-80046703D01*
X103764899Y-80049579D01*
X103868250Y-80070606D01*
X103882299Y-80069410D01*
X103886000Y-80059065D01*
X103886000Y-80058517D01*
X104394000Y-80058517D01*
X104398064Y-80072359D01*
X104411478Y-80074393D01*
X104418184Y-80073534D01*
X104428262Y-80071392D01*
X104632255Y-80010191D01*
X104641842Y-80006433D01*
X104833095Y-79912739D01*
X104841945Y-79907464D01*
X105015328Y-79783792D01*
X105023200Y-79777139D01*
X105174052Y-79626812D01*
X105180730Y-79618965D01*
X105305003Y-79446020D01*
X105310313Y-79437183D01*
X105404670Y-79246267D01*
X105408469Y-79236672D01*
X105470377Y-79032910D01*
X105472555Y-79022837D01*
X105473986Y-79011962D01*
X105473363Y-79007966D01*
X110428257Y-79007966D01*
X110458565Y-79142446D01*
X110461645Y-79152275D01*
X110541770Y-79349603D01*
X110546413Y-79358794D01*
X110657694Y-79540388D01*
X110663777Y-79548699D01*
X110803213Y-79709667D01*
X110810580Y-79716883D01*
X110974434Y-79852916D01*
X110982881Y-79858831D01*
X111166756Y-79966279D01*
X111176042Y-79970729D01*
X111375001Y-80046703D01*
X111384899Y-80049579D01*
X111488250Y-80070606D01*
X111502299Y-80069410D01*
X111506000Y-80059065D01*
X111506000Y-80058517D01*
X112014000Y-80058517D01*
X112018064Y-80072359D01*
X112031478Y-80074393D01*
X112038184Y-80073534D01*
X112048262Y-80071392D01*
X112252255Y-80010191D01*
X112261842Y-80006433D01*
X112453095Y-79912739D01*
X112461945Y-79907464D01*
X112635328Y-79783792D01*
X112643200Y-79777139D01*
X112794052Y-79626812D01*
X112800730Y-79618965D01*
X112925003Y-79446020D01*
X112930313Y-79437183D01*
X113024670Y-79246267D01*
X113028469Y-79236672D01*
X113090377Y-79032910D01*
X113092555Y-79022837D01*
X113093986Y-79011962D01*
X113093363Y-79007966D01*
X118048257Y-79007966D01*
X118078565Y-79142446D01*
X118081645Y-79152275D01*
X118161770Y-79349603D01*
X118166413Y-79358794D01*
X118277694Y-79540388D01*
X118283777Y-79548699D01*
X118423213Y-79709667D01*
X118430580Y-79716883D01*
X118594434Y-79852916D01*
X118602881Y-79858831D01*
X118786756Y-79966279D01*
X118796042Y-79970729D01*
X118995001Y-80046703D01*
X119004899Y-80049579D01*
X119108250Y-80070606D01*
X119122299Y-80069410D01*
X119126000Y-80059065D01*
X119126000Y-80058517D01*
X119634000Y-80058517D01*
X119638064Y-80072359D01*
X119651478Y-80074393D01*
X119658184Y-80073534D01*
X119668262Y-80071392D01*
X119872255Y-80010191D01*
X119881842Y-80006433D01*
X120073095Y-79912739D01*
X120081945Y-79907464D01*
X120255328Y-79783792D01*
X120263200Y-79777139D01*
X120414052Y-79626812D01*
X120420730Y-79618965D01*
X120545003Y-79446020D01*
X120550313Y-79437183D01*
X120644670Y-79246267D01*
X120648469Y-79236672D01*
X120710377Y-79032910D01*
X120712555Y-79022837D01*
X120713986Y-79011962D01*
X120711775Y-78997778D01*
X120698617Y-78994000D01*
X119652115Y-78994000D01*
X119636876Y-78998475D01*
X119635671Y-78999865D01*
X119634000Y-79007548D01*
X119634000Y-80058517D01*
X119126000Y-80058517D01*
X119126000Y-79012115D01*
X119121525Y-78996876D01*
X119120135Y-78995671D01*
X119112452Y-78994000D01*
X118063225Y-78994000D01*
X118049694Y-78997973D01*
X118048257Y-79007966D01*
X113093363Y-79007966D01*
X113091775Y-78997778D01*
X113078617Y-78994000D01*
X112032115Y-78994000D01*
X112016876Y-78998475D01*
X112015671Y-78999865D01*
X112014000Y-79007548D01*
X112014000Y-80058517D01*
X111506000Y-80058517D01*
X111506000Y-79012115D01*
X111501525Y-78996876D01*
X111500135Y-78995671D01*
X111492452Y-78994000D01*
X110443225Y-78994000D01*
X110429694Y-78997973D01*
X110428257Y-79007966D01*
X105473363Y-79007966D01*
X105471775Y-78997778D01*
X105458617Y-78994000D01*
X104412115Y-78994000D01*
X104396876Y-78998475D01*
X104395671Y-78999865D01*
X104394000Y-79007548D01*
X104394000Y-80058517D01*
X103886000Y-80058517D01*
X103886000Y-79012115D01*
X103881525Y-78996876D01*
X103880135Y-78995671D01*
X103872452Y-78994000D01*
X102823225Y-78994000D01*
X102809694Y-78997973D01*
X102808257Y-79007966D01*
X101695486Y-79007966D01*
X101603136Y-78902662D01*
X101600427Y-78899573D01*
X101597338Y-78896864D01*
X101380938Y-78707085D01*
X101380932Y-78707081D01*
X101377838Y-78704367D01*
X101374412Y-78702078D01*
X101374407Y-78702074D01*
X101135106Y-78542179D01*
X101131673Y-78539885D01*
X101127974Y-78538061D01*
X101127969Y-78538058D01*
X100991687Y-78470852D01*
X100866145Y-78408941D01*
X100862239Y-78407615D01*
X100589710Y-78315104D01*
X100589706Y-78315103D01*
X100585797Y-78313776D01*
X100581753Y-78312972D01*
X100581747Y-78312970D01*
X100299465Y-78256820D01*
X100299459Y-78256819D01*
X100295426Y-78256017D01*
X100291321Y-78255748D01*
X100291314Y-78255747D01*
X100004119Y-78236924D01*
X100000000Y-78236654D01*
X99995881Y-78236924D01*
X99708686Y-78255747D01*
X99708679Y-78255748D01*
X99704574Y-78256017D01*
X99700541Y-78256819D01*
X99700535Y-78256820D01*
X99418253Y-78312970D01*
X99418247Y-78312972D01*
X99414203Y-78313776D01*
X99410294Y-78315103D01*
X99410290Y-78315104D01*
X99137761Y-78407615D01*
X99133855Y-78408941D01*
X99008313Y-78470852D01*
X98872031Y-78538058D01*
X98872026Y-78538061D01*
X98868327Y-78539885D01*
X98864894Y-78542179D01*
X98625593Y-78702074D01*
X98625588Y-78702078D01*
X98622162Y-78704367D01*
X98619068Y-78707081D01*
X98619062Y-78707085D01*
X98402662Y-78896864D01*
X98399573Y-78899573D01*
X98396864Y-78902662D01*
X98229232Y-79093809D01*
X98169278Y-79131836D01*
X98098283Y-79131414D01*
X98038786Y-79092675D01*
X98009678Y-79027920D01*
X98008500Y-79010731D01*
X98008500Y-76166695D01*
X102777251Y-76166695D01*
X102777548Y-76171848D01*
X102777548Y-76171851D01*
X102783011Y-76266590D01*
X102790110Y-76389715D01*
X102791247Y-76394761D01*
X102791248Y-76394767D01*
X102802939Y-76446641D01*
X102839222Y-76607639D01*
X102923266Y-76814616D01*
X102925965Y-76819020D01*
X103013061Y-76961148D01*
X103039987Y-77005088D01*
X103186250Y-77173938D01*
X103358126Y-77316632D01*
X103431955Y-77359774D01*
X103480679Y-77411412D01*
X103493750Y-77481195D01*
X103467019Y-77546967D01*
X103426562Y-77580327D01*
X103418457Y-77584546D01*
X103409738Y-77590036D01*
X103239433Y-77717905D01*
X103231726Y-77724748D01*
X103084590Y-77878717D01*
X103078104Y-77886727D01*
X102958098Y-78062649D01*
X102953000Y-78071623D01*
X102863338Y-78264783D01*
X102859775Y-78274470D01*
X102804389Y-78474183D01*
X102805912Y-78482607D01*
X102818292Y-78486000D01*
X105458344Y-78486000D01*
X105471875Y-78482027D01*
X105473180Y-78472947D01*
X105431214Y-78305875D01*
X105427894Y-78296124D01*
X105342972Y-78100814D01*
X105338105Y-78091739D01*
X105222426Y-77912926D01*
X105216136Y-77904757D01*
X105072806Y-77747240D01*
X105065273Y-77740215D01*
X104898139Y-77608222D01*
X104889556Y-77602520D01*
X104852602Y-77582120D01*
X104802631Y-77531687D01*
X104787859Y-77462245D01*
X104812975Y-77395839D01*
X104840327Y-77369232D01*
X104863797Y-77352491D01*
X105019860Y-77241173D01*
X105044905Y-77216216D01*
X105101209Y-77160107D01*
X105178096Y-77083489D01*
X105237594Y-77000689D01*
X105305435Y-76906277D01*
X105308453Y-76902077D01*
X105315662Y-76887492D01*
X105405136Y-76706453D01*
X105405137Y-76706451D01*
X105407430Y-76701811D01*
X105458744Y-76532917D01*
X105470865Y-76493023D01*
X105470865Y-76493021D01*
X105472370Y-76488069D01*
X105501529Y-76266590D01*
X105503156Y-76200000D01*
X105500418Y-76166695D01*
X110397251Y-76166695D01*
X110397548Y-76171848D01*
X110397548Y-76171851D01*
X110403011Y-76266590D01*
X110410110Y-76389715D01*
X110411247Y-76394761D01*
X110411248Y-76394767D01*
X110422939Y-76446641D01*
X110459222Y-76607639D01*
X110543266Y-76814616D01*
X110545965Y-76819020D01*
X110633061Y-76961148D01*
X110659987Y-77005088D01*
X110806250Y-77173938D01*
X110978126Y-77316632D01*
X111051955Y-77359774D01*
X111100679Y-77411412D01*
X111113750Y-77481195D01*
X111087019Y-77546967D01*
X111046562Y-77580327D01*
X111038457Y-77584546D01*
X111029738Y-77590036D01*
X110859433Y-77717905D01*
X110851726Y-77724748D01*
X110704590Y-77878717D01*
X110698104Y-77886727D01*
X110578098Y-78062649D01*
X110573000Y-78071623D01*
X110483338Y-78264783D01*
X110479775Y-78274470D01*
X110424389Y-78474183D01*
X110425912Y-78482607D01*
X110438292Y-78486000D01*
X113078344Y-78486000D01*
X113091875Y-78482027D01*
X113093180Y-78472947D01*
X113051214Y-78305875D01*
X113047894Y-78296124D01*
X112962972Y-78100814D01*
X112958105Y-78091739D01*
X112842426Y-77912926D01*
X112836136Y-77904757D01*
X112692806Y-77747240D01*
X112685273Y-77740215D01*
X112518139Y-77608222D01*
X112509556Y-77602520D01*
X112472602Y-77582120D01*
X112422631Y-77531687D01*
X112407859Y-77462245D01*
X112432975Y-77395839D01*
X112460327Y-77369232D01*
X112483797Y-77352491D01*
X112639860Y-77241173D01*
X112664905Y-77216216D01*
X112721209Y-77160107D01*
X112798096Y-77083489D01*
X112857594Y-77000689D01*
X112925435Y-76906277D01*
X112928453Y-76902077D01*
X112935662Y-76887492D01*
X113025136Y-76706453D01*
X113025137Y-76706451D01*
X113027430Y-76701811D01*
X113078744Y-76532917D01*
X113090865Y-76493023D01*
X113090865Y-76493021D01*
X113092370Y-76488069D01*
X113121529Y-76266590D01*
X113123156Y-76200000D01*
X113120418Y-76166695D01*
X118017251Y-76166695D01*
X118017548Y-76171848D01*
X118017548Y-76171851D01*
X118023011Y-76266590D01*
X118030110Y-76389715D01*
X118031247Y-76394761D01*
X118031248Y-76394767D01*
X118042939Y-76446641D01*
X118079222Y-76607639D01*
X118163266Y-76814616D01*
X118165965Y-76819020D01*
X118253061Y-76961148D01*
X118279987Y-77005088D01*
X118426250Y-77173938D01*
X118598126Y-77316632D01*
X118671955Y-77359774D01*
X118720679Y-77411412D01*
X118733750Y-77481195D01*
X118707019Y-77546967D01*
X118666562Y-77580327D01*
X118658457Y-77584546D01*
X118649738Y-77590036D01*
X118479433Y-77717905D01*
X118471726Y-77724748D01*
X118324590Y-77878717D01*
X118318104Y-77886727D01*
X118198098Y-78062649D01*
X118193000Y-78071623D01*
X118103338Y-78264783D01*
X118099775Y-78274470D01*
X118044389Y-78474183D01*
X118045912Y-78482607D01*
X118058292Y-78486000D01*
X120698344Y-78486000D01*
X120711875Y-78482027D01*
X120713180Y-78472947D01*
X120671214Y-78305875D01*
X120667894Y-78296124D01*
X120582972Y-78100814D01*
X120578105Y-78091739D01*
X120462426Y-77912926D01*
X120456136Y-77904757D01*
X120312806Y-77747240D01*
X120305273Y-77740215D01*
X120138139Y-77608222D01*
X120129556Y-77602520D01*
X120092602Y-77582120D01*
X120042631Y-77531687D01*
X120027859Y-77462245D01*
X120052975Y-77395839D01*
X120080327Y-77369232D01*
X120103797Y-77352491D01*
X120259860Y-77241173D01*
X120284905Y-77216216D01*
X120341209Y-77160107D01*
X120418096Y-77083489D01*
X120477594Y-77000689D01*
X120545435Y-76906277D01*
X120548453Y-76902077D01*
X120555662Y-76887492D01*
X120645136Y-76706453D01*
X120645137Y-76706451D01*
X120647430Y-76701811D01*
X120698744Y-76532917D01*
X120710865Y-76493023D01*
X120710865Y-76493021D01*
X120712370Y-76488069D01*
X120741529Y-76266590D01*
X120743156Y-76200000D01*
X120724852Y-75977361D01*
X120672884Y-75770469D01*
X130437095Y-75770469D01*
X130437392Y-75775622D01*
X130437392Y-75775625D01*
X130443067Y-75874041D01*
X130450427Y-76001697D01*
X130451564Y-76006743D01*
X130451565Y-76006749D01*
X130483741Y-76149523D01*
X130501346Y-76227642D01*
X130503288Y-76232424D01*
X130503289Y-76232428D01*
X130567157Y-76389715D01*
X130588484Y-76442237D01*
X130709501Y-76639719D01*
X130861147Y-76814784D01*
X131039349Y-76962730D01*
X131239322Y-77079584D01*
X131455694Y-77162209D01*
X131460760Y-77163240D01*
X131460761Y-77163240D01*
X131494140Y-77170031D01*
X131682656Y-77208385D01*
X131813324Y-77213176D01*
X131908949Y-77216683D01*
X131908953Y-77216683D01*
X131914113Y-77216872D01*
X131919233Y-77216216D01*
X131919235Y-77216216D01*
X131992270Y-77206860D01*
X132143847Y-77187442D01*
X132148795Y-77185957D01*
X132148802Y-77185956D01*
X132360747Y-77122369D01*
X132365690Y-77120886D01*
X132374972Y-77116339D01*
X132569049Y-77021262D01*
X132569052Y-77021260D01*
X132573684Y-77018991D01*
X132762243Y-76884494D01*
X132926303Y-76721005D01*
X133061458Y-76532917D01*
X133108641Y-76437450D01*
X133161784Y-76329922D01*
X133161785Y-76329920D01*
X133164078Y-76325280D01*
X133231408Y-76103671D01*
X133261640Y-75874041D01*
X133263327Y-75805000D01*
X133260488Y-75770469D01*
X137437095Y-75770469D01*
X137437392Y-75775622D01*
X137437392Y-75775625D01*
X137443067Y-75874041D01*
X137450427Y-76001697D01*
X137451564Y-76006743D01*
X137451565Y-76006749D01*
X137483741Y-76149523D01*
X137501346Y-76227642D01*
X137503288Y-76232424D01*
X137503289Y-76232428D01*
X137567157Y-76389715D01*
X137588484Y-76442237D01*
X137709501Y-76639719D01*
X137861147Y-76814784D01*
X138039349Y-76962730D01*
X138239322Y-77079584D01*
X138455694Y-77162209D01*
X138460760Y-77163240D01*
X138460761Y-77163240D01*
X138494140Y-77170031D01*
X138682656Y-77208385D01*
X138813324Y-77213176D01*
X138908949Y-77216683D01*
X138908953Y-77216683D01*
X138914113Y-77216872D01*
X138919233Y-77216216D01*
X138919235Y-77216216D01*
X138992270Y-77206860D01*
X139143847Y-77187442D01*
X139148795Y-77185957D01*
X139148802Y-77185956D01*
X139360747Y-77122369D01*
X139365690Y-77120886D01*
X139374972Y-77116339D01*
X139569049Y-77021262D01*
X139569052Y-77021260D01*
X139573684Y-77018991D01*
X139734878Y-76904013D01*
X147073542Y-76904013D01*
X147082838Y-76916028D01*
X147139446Y-76955665D01*
X147148941Y-76961148D01*
X147350364Y-77055072D01*
X147360656Y-77058818D01*
X147575328Y-77116339D01*
X147586123Y-77118242D01*
X147807525Y-77137613D01*
X147818475Y-77137613D01*
X148039877Y-77118242D01*
X148050672Y-77116339D01*
X148265344Y-77058818D01*
X148275636Y-77055072D01*
X148477059Y-76961148D01*
X148486554Y-76955665D01*
X148544000Y-76915441D01*
X148552375Y-76904964D01*
X148545307Y-76891517D01*
X147825812Y-76172022D01*
X147811868Y-76164408D01*
X147810035Y-76164539D01*
X147803420Y-76168790D01*
X147079972Y-76892238D01*
X147073542Y-76904013D01*
X139734878Y-76904013D01*
X139762243Y-76884494D01*
X139926303Y-76721005D01*
X140061458Y-76532917D01*
X140108641Y-76437450D01*
X140161784Y-76329922D01*
X140161785Y-76329920D01*
X140164078Y-76325280D01*
X140231408Y-76103671D01*
X140261640Y-75874041D01*
X140263315Y-75805475D01*
X146475387Y-75805475D01*
X146494758Y-76026877D01*
X146496661Y-76037672D01*
X146554182Y-76252344D01*
X146557928Y-76262636D01*
X146651852Y-76464059D01*
X146657335Y-76473554D01*
X146697559Y-76531000D01*
X146708036Y-76539375D01*
X146721483Y-76532307D01*
X147440978Y-75812812D01*
X147447356Y-75801132D01*
X148177408Y-75801132D01*
X148177539Y-75802965D01*
X148181790Y-75809580D01*
X148905238Y-76533028D01*
X148917013Y-76539458D01*
X148929028Y-76530162D01*
X148968665Y-76473554D01*
X148974148Y-76464059D01*
X149068072Y-76262636D01*
X149071818Y-76252344D01*
X149129339Y-76037672D01*
X149131242Y-76026877D01*
X149150613Y-75805475D01*
X149150613Y-75794525D01*
X149131242Y-75573123D01*
X149129339Y-75562328D01*
X149071818Y-75347656D01*
X149068072Y-75337364D01*
X148974148Y-75135941D01*
X148968665Y-75126446D01*
X148928441Y-75069000D01*
X148917964Y-75060625D01*
X148904517Y-75067693D01*
X148185022Y-75787188D01*
X148177408Y-75801132D01*
X147447356Y-75801132D01*
X147448592Y-75798868D01*
X147448461Y-75797035D01*
X147444210Y-75790420D01*
X146720762Y-75066972D01*
X146708987Y-75060542D01*
X146696972Y-75069838D01*
X146657335Y-75126446D01*
X146651852Y-75135941D01*
X146557928Y-75337364D01*
X146554182Y-75347656D01*
X146496661Y-75562328D01*
X146494758Y-75573123D01*
X146475387Y-75794525D01*
X146475387Y-75805475D01*
X140263315Y-75805475D01*
X140263327Y-75805000D01*
X140256718Y-75724610D01*
X140244773Y-75579318D01*
X140244772Y-75579312D01*
X140244349Y-75574167D01*
X140216137Y-75461850D01*
X140189184Y-75354544D01*
X140189183Y-75354540D01*
X140187925Y-75349533D01*
X140182634Y-75337364D01*
X140097630Y-75141868D01*
X140097628Y-75141865D01*
X140095570Y-75137131D01*
X139969764Y-74942665D01*
X139813887Y-74771358D01*
X139809836Y-74768159D01*
X139809832Y-74768155D01*
X139717247Y-74695036D01*
X147073625Y-74695036D01*
X147080693Y-74708483D01*
X147800188Y-75427978D01*
X147814132Y-75435592D01*
X147815965Y-75435461D01*
X147822580Y-75431210D01*
X148546028Y-74707762D01*
X148552458Y-74695987D01*
X148543162Y-74683972D01*
X148486554Y-74644335D01*
X148477059Y-74638852D01*
X148275636Y-74544928D01*
X148265344Y-74541182D01*
X148050672Y-74483661D01*
X148039877Y-74481758D01*
X147818475Y-74462387D01*
X147807525Y-74462387D01*
X147586123Y-74481758D01*
X147575328Y-74483661D01*
X147360656Y-74541182D01*
X147350364Y-74544928D01*
X147148941Y-74638852D01*
X147139446Y-74644335D01*
X147082000Y-74684559D01*
X147073625Y-74695036D01*
X139717247Y-74695036D01*
X139636177Y-74631011D01*
X139636172Y-74631008D01*
X139632123Y-74627810D01*
X139627607Y-74625317D01*
X139627604Y-74625315D01*
X139433879Y-74518373D01*
X139433875Y-74518371D01*
X139429355Y-74515876D01*
X139424486Y-74514152D01*
X139424482Y-74514150D01*
X139215903Y-74440288D01*
X139215899Y-74440287D01*
X139211028Y-74438562D01*
X139205935Y-74437655D01*
X139205932Y-74437654D01*
X138988095Y-74398851D01*
X138988089Y-74398850D01*
X138983006Y-74397945D01*
X138910096Y-74397054D01*
X138756581Y-74395179D01*
X138756579Y-74395179D01*
X138751411Y-74395116D01*
X138522464Y-74430150D01*
X138302314Y-74502106D01*
X138297726Y-74504494D01*
X138297722Y-74504496D01*
X138188159Y-74561531D01*
X138096872Y-74609052D01*
X138092739Y-74612155D01*
X138092736Y-74612157D01*
X137964442Y-74708483D01*
X137911655Y-74748117D01*
X137751639Y-74915564D01*
X137748725Y-74919836D01*
X137748724Y-74919837D01*
X137733152Y-74942665D01*
X137621119Y-75106899D01*
X137523602Y-75316981D01*
X137461707Y-75540169D01*
X137437095Y-75770469D01*
X133260488Y-75770469D01*
X133256718Y-75724610D01*
X133244773Y-75579318D01*
X133244772Y-75579312D01*
X133244349Y-75574167D01*
X133216137Y-75461850D01*
X133189184Y-75354544D01*
X133189183Y-75354540D01*
X133187925Y-75349533D01*
X133182634Y-75337364D01*
X133097630Y-75141868D01*
X133097628Y-75141865D01*
X133095570Y-75137131D01*
X132969764Y-74942665D01*
X132813887Y-74771358D01*
X132809836Y-74768159D01*
X132809832Y-74768155D01*
X132636177Y-74631011D01*
X132636172Y-74631008D01*
X132632123Y-74627810D01*
X132627607Y-74625317D01*
X132627604Y-74625315D01*
X132433879Y-74518373D01*
X132433875Y-74518371D01*
X132429355Y-74515876D01*
X132424486Y-74514152D01*
X132424482Y-74514150D01*
X132215903Y-74440288D01*
X132215899Y-74440287D01*
X132211028Y-74438562D01*
X132205935Y-74437655D01*
X132205932Y-74437654D01*
X131988095Y-74398851D01*
X131988089Y-74398850D01*
X131983006Y-74397945D01*
X131910096Y-74397054D01*
X131756581Y-74395179D01*
X131756579Y-74395179D01*
X131751411Y-74395116D01*
X131522464Y-74430150D01*
X131302314Y-74502106D01*
X131297726Y-74504494D01*
X131297722Y-74504496D01*
X131188159Y-74561531D01*
X131096872Y-74609052D01*
X131092739Y-74612155D01*
X131092736Y-74612157D01*
X130964442Y-74708483D01*
X130911655Y-74748117D01*
X130751639Y-74915564D01*
X130748725Y-74919836D01*
X130748724Y-74919837D01*
X130733152Y-74942665D01*
X130621119Y-75106899D01*
X130523602Y-75316981D01*
X130461707Y-75540169D01*
X130437095Y-75770469D01*
X120672884Y-75770469D01*
X120670431Y-75760702D01*
X120581354Y-75555840D01*
X120500727Y-75431210D01*
X120462822Y-75372617D01*
X120462820Y-75372614D01*
X120460014Y-75368277D01*
X120447518Y-75354544D01*
X120312798Y-75206488D01*
X120281746Y-75142642D01*
X120290141Y-75072143D01*
X120335317Y-75017375D01*
X120361761Y-75003706D01*
X120468297Y-74963767D01*
X120476705Y-74960615D01*
X120593261Y-74873261D01*
X120680615Y-74756705D01*
X120731745Y-74620316D01*
X120738500Y-74558134D01*
X120738500Y-72761866D01*
X120731745Y-72699684D01*
X120680615Y-72563295D01*
X120593261Y-72446739D01*
X120476705Y-72359385D01*
X120340316Y-72308255D01*
X120278134Y-72301500D01*
X118481866Y-72301500D01*
X118419684Y-72308255D01*
X118283295Y-72359385D01*
X118166739Y-72446739D01*
X118079385Y-72563295D01*
X118028255Y-72699684D01*
X118021500Y-72761866D01*
X118021500Y-74558134D01*
X118028255Y-74620316D01*
X118079385Y-74756705D01*
X118166739Y-74873261D01*
X118283295Y-74960615D01*
X118291704Y-74963767D01*
X118291705Y-74963768D01*
X118400451Y-75004535D01*
X118457216Y-75047176D01*
X118481916Y-75113738D01*
X118466709Y-75183087D01*
X118447316Y-75209568D01*
X118344670Y-75316981D01*
X118320629Y-75342138D01*
X118194743Y-75526680D01*
X118100688Y-75729305D01*
X118040989Y-75944570D01*
X118017251Y-76166695D01*
X113120418Y-76166695D01*
X113104852Y-75977361D01*
X113050431Y-75760702D01*
X112961354Y-75555840D01*
X112880727Y-75431210D01*
X112842822Y-75372617D01*
X112842820Y-75372614D01*
X112840014Y-75368277D01*
X112827518Y-75354544D01*
X112692798Y-75206488D01*
X112661746Y-75142642D01*
X112670141Y-75072143D01*
X112715317Y-75017375D01*
X112741761Y-75003706D01*
X112848297Y-74963767D01*
X112856705Y-74960615D01*
X112973261Y-74873261D01*
X113060615Y-74756705D01*
X113111745Y-74620316D01*
X113118500Y-74558134D01*
X113118500Y-72761866D01*
X113111745Y-72699684D01*
X113060615Y-72563295D01*
X112973261Y-72446739D01*
X112856705Y-72359385D01*
X112720316Y-72308255D01*
X112658134Y-72301500D01*
X110861866Y-72301500D01*
X110799684Y-72308255D01*
X110663295Y-72359385D01*
X110546739Y-72446739D01*
X110459385Y-72563295D01*
X110408255Y-72699684D01*
X110401500Y-72761866D01*
X110401500Y-74558134D01*
X110408255Y-74620316D01*
X110459385Y-74756705D01*
X110546739Y-74873261D01*
X110663295Y-74960615D01*
X110671704Y-74963767D01*
X110671705Y-74963768D01*
X110780451Y-75004535D01*
X110837216Y-75047176D01*
X110861916Y-75113738D01*
X110846709Y-75183087D01*
X110827316Y-75209568D01*
X110724670Y-75316981D01*
X110700629Y-75342138D01*
X110574743Y-75526680D01*
X110480688Y-75729305D01*
X110420989Y-75944570D01*
X110397251Y-76166695D01*
X105500418Y-76166695D01*
X105484852Y-75977361D01*
X105430431Y-75760702D01*
X105341354Y-75555840D01*
X105260727Y-75431210D01*
X105222822Y-75372617D01*
X105222820Y-75372614D01*
X105220014Y-75368277D01*
X105207518Y-75354544D01*
X105072798Y-75206488D01*
X105041746Y-75142642D01*
X105050141Y-75072143D01*
X105095317Y-75017375D01*
X105121761Y-75003706D01*
X105228297Y-74963767D01*
X105236705Y-74960615D01*
X105353261Y-74873261D01*
X105440615Y-74756705D01*
X105491745Y-74620316D01*
X105498500Y-74558134D01*
X105498500Y-72761866D01*
X105491745Y-72699684D01*
X105440615Y-72563295D01*
X105353261Y-72446739D01*
X105236705Y-72359385D01*
X105100316Y-72308255D01*
X105038134Y-72301500D01*
X103241866Y-72301500D01*
X103179684Y-72308255D01*
X103043295Y-72359385D01*
X102926739Y-72446739D01*
X102839385Y-72563295D01*
X102788255Y-72699684D01*
X102781500Y-72761866D01*
X102781500Y-74558134D01*
X102788255Y-74620316D01*
X102839385Y-74756705D01*
X102926739Y-74873261D01*
X103043295Y-74960615D01*
X103051704Y-74963767D01*
X103051705Y-74963768D01*
X103160451Y-75004535D01*
X103217216Y-75047176D01*
X103241916Y-75113738D01*
X103226709Y-75183087D01*
X103207316Y-75209568D01*
X103104670Y-75316981D01*
X103080629Y-75342138D01*
X102954743Y-75526680D01*
X102860688Y-75729305D01*
X102800989Y-75944570D01*
X102777251Y-76166695D01*
X98008500Y-76166695D01*
X98008500Y-70770469D01*
X126937095Y-70770469D01*
X126937392Y-70775622D01*
X126937392Y-70775625D01*
X126943067Y-70874041D01*
X126950427Y-71001697D01*
X126951564Y-71006743D01*
X126951565Y-71006749D01*
X126983741Y-71149523D01*
X127001346Y-71227642D01*
X127003288Y-71232424D01*
X127003289Y-71232428D01*
X127086540Y-71437450D01*
X127088484Y-71442237D01*
X127209501Y-71639719D01*
X127361147Y-71814784D01*
X127513785Y-71941507D01*
X127535165Y-71959256D01*
X127539349Y-71962730D01*
X127739322Y-72079584D01*
X127955694Y-72162209D01*
X127960760Y-72163240D01*
X127960761Y-72163240D01*
X128013846Y-72174040D01*
X128182656Y-72208385D01*
X128313324Y-72213176D01*
X128408949Y-72216683D01*
X128408953Y-72216683D01*
X128414113Y-72216872D01*
X128419233Y-72216216D01*
X128419235Y-72216216D01*
X128492270Y-72206860D01*
X128643847Y-72187442D01*
X128648795Y-72185957D01*
X128648802Y-72185956D01*
X128860747Y-72122369D01*
X128865690Y-72120886D01*
X128870324Y-72118616D01*
X129069049Y-72021262D01*
X129069052Y-72021260D01*
X129073684Y-72018991D01*
X129262243Y-71884494D01*
X129426303Y-71721005D01*
X129561458Y-71532917D01*
X129590673Y-71473806D01*
X129661784Y-71329922D01*
X129661785Y-71329920D01*
X129664078Y-71325280D01*
X129731408Y-71103671D01*
X129761640Y-70874041D01*
X129763327Y-70805000D01*
X129760488Y-70770469D01*
X133937095Y-70770469D01*
X133937392Y-70775622D01*
X133937392Y-70775625D01*
X133943067Y-70874041D01*
X133950427Y-71001697D01*
X133951564Y-71006743D01*
X133951565Y-71006749D01*
X133983741Y-71149523D01*
X134001346Y-71227642D01*
X134003288Y-71232424D01*
X134003289Y-71232428D01*
X134086540Y-71437450D01*
X134088484Y-71442237D01*
X134209501Y-71639719D01*
X134361147Y-71814784D01*
X134513785Y-71941507D01*
X134535165Y-71959256D01*
X134539349Y-71962730D01*
X134739322Y-72079584D01*
X134955694Y-72162209D01*
X134960760Y-72163240D01*
X134960761Y-72163240D01*
X135013846Y-72174040D01*
X135182656Y-72208385D01*
X135313324Y-72213176D01*
X135408949Y-72216683D01*
X135408953Y-72216683D01*
X135414113Y-72216872D01*
X135419233Y-72216216D01*
X135419235Y-72216216D01*
X135492270Y-72206860D01*
X135643847Y-72187442D01*
X135648795Y-72185957D01*
X135648802Y-72185956D01*
X135860747Y-72122369D01*
X135865690Y-72120886D01*
X135870324Y-72118616D01*
X136069049Y-72021262D01*
X136069052Y-72021260D01*
X136073684Y-72018991D01*
X136262243Y-71884494D01*
X136426303Y-71721005D01*
X136561458Y-71532917D01*
X136590673Y-71473806D01*
X136661784Y-71329922D01*
X136661785Y-71329920D01*
X136664078Y-71325280D01*
X136731408Y-71103671D01*
X136761640Y-70874041D01*
X136763327Y-70805000D01*
X136762916Y-70800000D01*
X142974406Y-70800000D01*
X142994742Y-71032444D01*
X142996166Y-71037757D01*
X142996166Y-71037759D01*
X143048328Y-71232428D01*
X143055133Y-71257826D01*
X143057455Y-71262806D01*
X143057456Y-71262808D01*
X143151418Y-71464310D01*
X143151421Y-71464315D01*
X143153744Y-71469297D01*
X143156900Y-71473804D01*
X143156901Y-71473806D01*
X143275808Y-71643622D01*
X143287578Y-71660432D01*
X143452568Y-71825422D01*
X143457076Y-71828579D01*
X143457079Y-71828581D01*
X143541213Y-71887492D01*
X143643703Y-71959256D01*
X143648685Y-71961579D01*
X143648690Y-71961582D01*
X143850192Y-72055544D01*
X143855174Y-72057867D01*
X143860482Y-72059289D01*
X143860484Y-72059290D01*
X144075241Y-72116834D01*
X144075243Y-72116834D01*
X144080556Y-72118258D01*
X144313000Y-72138594D01*
X144545444Y-72118258D01*
X144550757Y-72116834D01*
X144550759Y-72116834D01*
X144765516Y-72059290D01*
X144765518Y-72059289D01*
X144770826Y-72057867D01*
X144775808Y-72055544D01*
X144977310Y-71961582D01*
X144977315Y-71961579D01*
X144982297Y-71959256D01*
X145084787Y-71887492D01*
X145168921Y-71828581D01*
X145168924Y-71828579D01*
X145173432Y-71825422D01*
X145338422Y-71660432D01*
X145350193Y-71643622D01*
X145469099Y-71473806D01*
X145469100Y-71473804D01*
X145472256Y-71469297D01*
X145474579Y-71464315D01*
X145474582Y-71464310D01*
X145568544Y-71262808D01*
X145568545Y-71262806D01*
X145570867Y-71257826D01*
X145577673Y-71232428D01*
X145629834Y-71037759D01*
X145629834Y-71037757D01*
X145631258Y-71032444D01*
X145651594Y-70800000D01*
X145631258Y-70567556D01*
X145623920Y-70540169D01*
X145572290Y-70347484D01*
X145572289Y-70347482D01*
X145570867Y-70342174D01*
X145550234Y-70297926D01*
X145474582Y-70135690D01*
X145474579Y-70135685D01*
X145472256Y-70130703D01*
X145458871Y-70111587D01*
X145341581Y-69944079D01*
X145341579Y-69944076D01*
X145338422Y-69939568D01*
X145173432Y-69774578D01*
X145168924Y-69771421D01*
X145168921Y-69771419D01*
X144986806Y-69643901D01*
X144986804Y-69643900D01*
X144982297Y-69640744D01*
X144977315Y-69638421D01*
X144977310Y-69638418D01*
X144775808Y-69544456D01*
X144775806Y-69544455D01*
X144770826Y-69542133D01*
X144765518Y-69540711D01*
X144765516Y-69540710D01*
X144550759Y-69483166D01*
X144550757Y-69483166D01*
X144545444Y-69481742D01*
X144313000Y-69461406D01*
X144080556Y-69481742D01*
X144075243Y-69483166D01*
X144075241Y-69483166D01*
X143860484Y-69540710D01*
X143860482Y-69540711D01*
X143855174Y-69542133D01*
X143850194Y-69544455D01*
X143850192Y-69544456D01*
X143648690Y-69638418D01*
X143648685Y-69638421D01*
X143643703Y-69640744D01*
X143639196Y-69643900D01*
X143639194Y-69643901D01*
X143457079Y-69771419D01*
X143457076Y-69771421D01*
X143452568Y-69774578D01*
X143287578Y-69939568D01*
X143284421Y-69944076D01*
X143284419Y-69944079D01*
X143167129Y-70111587D01*
X143153744Y-70130703D01*
X143151421Y-70135685D01*
X143151418Y-70135690D01*
X143075766Y-70297926D01*
X143055133Y-70342174D01*
X143053711Y-70347482D01*
X143053710Y-70347484D01*
X143002080Y-70540169D01*
X142994742Y-70567556D01*
X142974406Y-70800000D01*
X136762916Y-70800000D01*
X136745588Y-70589235D01*
X136744773Y-70579318D01*
X136744772Y-70579312D01*
X136744349Y-70574167D01*
X136687925Y-70349533D01*
X136682559Y-70337192D01*
X136597630Y-70141868D01*
X136597628Y-70141865D01*
X136595570Y-70137131D01*
X136469764Y-69942665D01*
X136313887Y-69771358D01*
X136309836Y-69768159D01*
X136309832Y-69768155D01*
X136136177Y-69631011D01*
X136136172Y-69631008D01*
X136132123Y-69627810D01*
X136127607Y-69625317D01*
X136127604Y-69625315D01*
X135933879Y-69518373D01*
X135933875Y-69518371D01*
X135929355Y-69515876D01*
X135924486Y-69514152D01*
X135924482Y-69514150D01*
X135715903Y-69440288D01*
X135715899Y-69440287D01*
X135711028Y-69438562D01*
X135705935Y-69437655D01*
X135705932Y-69437654D01*
X135488095Y-69398851D01*
X135488089Y-69398850D01*
X135483006Y-69397945D01*
X135410096Y-69397054D01*
X135256581Y-69395179D01*
X135256579Y-69395179D01*
X135251411Y-69395116D01*
X135022464Y-69430150D01*
X134802314Y-69502106D01*
X134797726Y-69504494D01*
X134797722Y-69504496D01*
X134601461Y-69606663D01*
X134596872Y-69609052D01*
X134592739Y-69612155D01*
X134592736Y-69612157D01*
X134415790Y-69745012D01*
X134411655Y-69748117D01*
X134408083Y-69751855D01*
X134290733Y-69874655D01*
X134251639Y-69915564D01*
X134248725Y-69919836D01*
X134248724Y-69919837D01*
X134233152Y-69942665D01*
X134121119Y-70106899D01*
X134023602Y-70316981D01*
X133961707Y-70540169D01*
X133937095Y-70770469D01*
X129760488Y-70770469D01*
X129745588Y-70589235D01*
X129744773Y-70579318D01*
X129744772Y-70579312D01*
X129744349Y-70574167D01*
X129687925Y-70349533D01*
X129682559Y-70337192D01*
X129597630Y-70141868D01*
X129597628Y-70141865D01*
X129595570Y-70137131D01*
X129469764Y-69942665D01*
X129313887Y-69771358D01*
X129309836Y-69768159D01*
X129309832Y-69768155D01*
X129136177Y-69631011D01*
X129136172Y-69631008D01*
X129132123Y-69627810D01*
X129127607Y-69625317D01*
X129127604Y-69625315D01*
X128933879Y-69518373D01*
X128933875Y-69518371D01*
X128929355Y-69515876D01*
X128924486Y-69514152D01*
X128924482Y-69514150D01*
X128715903Y-69440288D01*
X128715899Y-69440287D01*
X128711028Y-69438562D01*
X128705935Y-69437655D01*
X128705932Y-69437654D01*
X128488095Y-69398851D01*
X128488089Y-69398850D01*
X128483006Y-69397945D01*
X128410096Y-69397054D01*
X128256581Y-69395179D01*
X128256579Y-69395179D01*
X128251411Y-69395116D01*
X128022464Y-69430150D01*
X127802314Y-69502106D01*
X127797726Y-69504494D01*
X127797722Y-69504496D01*
X127601461Y-69606663D01*
X127596872Y-69609052D01*
X127592739Y-69612155D01*
X127592736Y-69612157D01*
X127415790Y-69745012D01*
X127411655Y-69748117D01*
X127408083Y-69751855D01*
X127290733Y-69874655D01*
X127251639Y-69915564D01*
X127248725Y-69919836D01*
X127248724Y-69919837D01*
X127233152Y-69942665D01*
X127121119Y-70106899D01*
X127023602Y-70316981D01*
X126961707Y-70540169D01*
X126937095Y-70770469D01*
X98008500Y-70770469D01*
X98008500Y-69989269D01*
X98028502Y-69921148D01*
X98082158Y-69874655D01*
X98152432Y-69864551D01*
X98217012Y-69894045D01*
X98229232Y-69906191D01*
X98399573Y-70100427D01*
X98402662Y-70103136D01*
X98619062Y-70292915D01*
X98619068Y-70292919D01*
X98622162Y-70295633D01*
X98625588Y-70297922D01*
X98625593Y-70297926D01*
X98809405Y-70420744D01*
X98868327Y-70460115D01*
X98872026Y-70461939D01*
X98872031Y-70461942D01*
X99008313Y-70529148D01*
X99133855Y-70591059D01*
X99137760Y-70592384D01*
X99137761Y-70592385D01*
X99410290Y-70684896D01*
X99410294Y-70684897D01*
X99414203Y-70686224D01*
X99418247Y-70687028D01*
X99418253Y-70687030D01*
X99700535Y-70743180D01*
X99700541Y-70743181D01*
X99704574Y-70743983D01*
X99708679Y-70744252D01*
X99708686Y-70744253D01*
X99995881Y-70763076D01*
X100000000Y-70763346D01*
X100004119Y-70763076D01*
X100291314Y-70744253D01*
X100291321Y-70744252D01*
X100295426Y-70743983D01*
X100299459Y-70743181D01*
X100299465Y-70743180D01*
X100581747Y-70687030D01*
X100581753Y-70687028D01*
X100585797Y-70686224D01*
X100589706Y-70684897D01*
X100589710Y-70684896D01*
X100862239Y-70592385D01*
X100862240Y-70592384D01*
X100866145Y-70591059D01*
X100991687Y-70529148D01*
X101127969Y-70461942D01*
X101127974Y-70461939D01*
X101131673Y-70460115D01*
X101190595Y-70420744D01*
X101374407Y-70297926D01*
X101374412Y-70297922D01*
X101377838Y-70295633D01*
X101380932Y-70292919D01*
X101380938Y-70292915D01*
X101597338Y-70103136D01*
X101600427Y-70100427D01*
X101603136Y-70097338D01*
X101792915Y-69880938D01*
X101792919Y-69880932D01*
X101795633Y-69877838D01*
X101804512Y-69864551D01*
X101920744Y-69690595D01*
X101960115Y-69631673D01*
X101963251Y-69625315D01*
X102055347Y-69438562D01*
X102091059Y-69366145D01*
X102186224Y-69085797D01*
X102243983Y-68795426D01*
X102263346Y-68500000D01*
X102243983Y-68204574D01*
X102186224Y-67914203D01*
X102091059Y-67633855D01*
X101960115Y-67368327D01*
X101920744Y-67309405D01*
X101797926Y-67125593D01*
X101797922Y-67125588D01*
X101795633Y-67122162D01*
X101792919Y-67119068D01*
X101792915Y-67119062D01*
X101603136Y-66902662D01*
X101600427Y-66899573D01*
X101406191Y-66729232D01*
X101368164Y-66669278D01*
X101368586Y-66598283D01*
X101407325Y-66538786D01*
X101472080Y-66509678D01*
X101489269Y-66508500D01*
X151010731Y-66508500D01*
X151078852Y-66528502D01*
G37*
%TD.AperFunction*%
%TD*%
M02*
