%TF.GenerationSoftware,KiCad,Pcbnew,(6.0.8-1)-1*%
%TF.CreationDate,2024-02-23T21:37:50-06:00*%
%TF.ProjectId,RGB LED Interface,52474220-4c45-4442-9049-6e7465726661,rev?*%
%TF.SameCoordinates,Original*%
%TF.FileFunction,Drillmap*%
%TF.FilePolarity,Positive*%
%FSLAX45Y45*%
G04 Gerber Fmt 4.5, Leading zero omitted, Abs format (unit mm)*
G04 Created by KiCad (PCBNEW (6.0.8-1)-1) date 2024-02-23 21:37:50*
%MOMM*%
%LPD*%
G01*
G04 APERTURE LIST*
%ADD10C,0.100000*%
%ADD11C,0.200000*%
G04 APERTURE END LIST*
D10*
X15500000Y-8300000D02*
X9750000Y-8300000D01*
X9750000Y-8300000D02*
X9750000Y-6600000D01*
X9750000Y-6600000D02*
X15500000Y-6600000D01*
X15500000Y-6600000D02*
X15500000Y-8300000D01*
D11*
X10002619Y-8615476D02*
X10002619Y-8415476D01*
X10050238Y-8415476D01*
X10078810Y-8425000D01*
X10097857Y-8444048D01*
X10107381Y-8463095D01*
X10116905Y-8501190D01*
X10116905Y-8529762D01*
X10107381Y-8567857D01*
X10097857Y-8586905D01*
X10078810Y-8605952D01*
X10050238Y-8615476D01*
X10002619Y-8615476D01*
X10202619Y-8615476D02*
X10202619Y-8482143D01*
X10202619Y-8520238D02*
X10212143Y-8501190D01*
X10221667Y-8491667D01*
X10240714Y-8482143D01*
X10259762Y-8482143D01*
X10326429Y-8615476D02*
X10326429Y-8482143D01*
X10326429Y-8415476D02*
X10316905Y-8425000D01*
X10326429Y-8434524D01*
X10335952Y-8425000D01*
X10326429Y-8415476D01*
X10326429Y-8434524D01*
X10450238Y-8615476D02*
X10431190Y-8605952D01*
X10421667Y-8586905D01*
X10421667Y-8415476D01*
X10555000Y-8615476D02*
X10535952Y-8605952D01*
X10526429Y-8586905D01*
X10526429Y-8415476D01*
X10783571Y-8615476D02*
X10783571Y-8415476D01*
X10850238Y-8558333D01*
X10916905Y-8415476D01*
X10916905Y-8615476D01*
X11097857Y-8615476D02*
X11097857Y-8510714D01*
X11088333Y-8491667D01*
X11069286Y-8482143D01*
X11031190Y-8482143D01*
X11012143Y-8491667D01*
X11097857Y-8605952D02*
X11078810Y-8615476D01*
X11031190Y-8615476D01*
X11012143Y-8605952D01*
X11002619Y-8586905D01*
X11002619Y-8567857D01*
X11012143Y-8548810D01*
X11031190Y-8539286D01*
X11078810Y-8539286D01*
X11097857Y-8529762D01*
X11193095Y-8482143D02*
X11193095Y-8682143D01*
X11193095Y-8491667D02*
X11212143Y-8482143D01*
X11250238Y-8482143D01*
X11269286Y-8491667D01*
X11278809Y-8501190D01*
X11288333Y-8520238D01*
X11288333Y-8577381D01*
X11278809Y-8596429D01*
X11269286Y-8605952D01*
X11250238Y-8615476D01*
X11212143Y-8615476D01*
X11193095Y-8605952D01*
X11374048Y-8596429D02*
X11383571Y-8605952D01*
X11374048Y-8615476D01*
X11364524Y-8605952D01*
X11374048Y-8596429D01*
X11374048Y-8615476D01*
X11374048Y-8491667D02*
X11383571Y-8501190D01*
X11374048Y-8510714D01*
X11364524Y-8501190D01*
X11374048Y-8491667D01*
X11374048Y-8510714D01*
M02*
