%TF.GenerationSoftware,KiCad,Pcbnew,(6.0.8-1)-1*%
%TF.CreationDate,2024-02-23T21:37:44-06:00*%
%TF.ProjectId,RGB LED Interface,52474220-4c45-4442-9049-6e7465726661,rev?*%
%TF.SameCoordinates,Original*%
%TF.FileFunction,Copper,L1,Top*%
%TF.FilePolarity,Positive*%
%FSLAX46Y46*%
G04 Gerber Fmt 4.6, Leading zero omitted, Abs format (unit mm)*
G04 Created by KiCad (PCBNEW (6.0.8-1)-1) date 2024-02-23 21:37:44*
%MOMM*%
%LPD*%
G01*
G04 APERTURE LIST*
G04 Aperture macros list*
%AMRoundRect*
0 Rectangle with rounded corners*
0 $1 Rounding radius*
0 $2 $3 $4 $5 $6 $7 $8 $9 X,Y pos of 4 corners*
0 Add a 4 corners polygon primitive as box body*
4,1,4,$2,$3,$4,$5,$6,$7,$8,$9,$2,$3,0*
0 Add four circle primitives for the rounded corners*
1,1,$1+$1,$2,$3*
1,1,$1+$1,$4,$5*
1,1,$1+$1,$6,$7*
1,1,$1+$1,$8,$9*
0 Add four rect primitives between the rounded corners*
20,1,$1+$1,$2,$3,$4,$5,0*
20,1,$1+$1,$4,$5,$6,$7,0*
20,1,$1+$1,$6,$7,$8,$9,0*
20,1,$1+$1,$8,$9,$2,$3,0*%
G04 Aperture macros list end*
%TA.AperFunction,ComponentPad*%
%ADD10C,1.800000*%
%TD*%
%TA.AperFunction,ComponentPad*%
%ADD11C,3.500000*%
%TD*%
%TA.AperFunction,ComponentPad*%
%ADD12R,1.700000X1.700000*%
%TD*%
%TA.AperFunction,ComponentPad*%
%ADD13O,1.700000X1.700000*%
%TD*%
%TA.AperFunction,ComponentPad*%
%ADD14C,1.650000*%
%TD*%
%TA.AperFunction,SMDPad,CuDef*%
%ADD15RoundRect,0.150000X0.150000X-0.587500X0.150000X0.587500X-0.150000X0.587500X-0.150000X-0.587500X0*%
%TD*%
%TA.AperFunction,Conductor*%
%ADD16C,0.500000*%
%TD*%
G04 APERTURE END LIST*
D10*
%TO.P,X1,1,A*%
%TO.N,+BATT*%
X128350000Y-70805000D03*
%TO.P,X1,2,B*%
%TO.N,/RED_LED_A*%
X131850000Y-75805000D03*
%TO.P,X1,3,C*%
%TO.N,/GREEN_LED_A*%
X135350000Y-70805000D03*
%TO.P,X1,4,D*%
%TO.N,/BLUE_LED_A*%
X138850000Y-75805000D03*
%TD*%
D11*
%TO.P,H3,1,1*%
%TO.N,unconnected-(H3-Pad1)*%
X152500000Y-80500000D03*
%TD*%
D12*
%TO.P,J1,1,Pin_1*%
%TO.N,/RED*%
X104140000Y-73660000D03*
D13*
%TO.P,J1,2,Pin_2*%
%TO.N,unconnected-(J1-Pad2)*%
X104140000Y-76200000D03*
%TO.P,J1,3,Pin_3*%
%TO.N,GND*%
X104140000Y-78740000D03*
%TD*%
D12*
%TO.P,J2,1,Pin_1*%
%TO.N,/GREEN*%
X111760000Y-73660000D03*
D13*
%TO.P,J2,2,Pin_2*%
%TO.N,unconnected-(J2-Pad2)*%
X111760000Y-76200000D03*
%TO.P,J2,3,Pin_3*%
%TO.N,GND*%
X111760000Y-78740000D03*
%TD*%
D12*
%TO.P,J3,1,Pin_1*%
%TO.N,/BLUE*%
X119380000Y-73660000D03*
D13*
%TO.P,J3,2,Pin_2*%
%TO.N,unconnected-(J3-Pad2)*%
X119380000Y-76200000D03*
%TO.P,J3,3,Pin_3*%
%TO.N,GND*%
X119380000Y-78740000D03*
%TD*%
D14*
%TO.P,J4,1,1*%
%TO.N,+BATT*%
X144313000Y-70800000D03*
%TO.P,J4,2,2*%
%TO.N,GND*%
X147813000Y-75800000D03*
%TD*%
D11*
%TO.P,H4,1,1*%
%TO.N,unconnected-(H4-Pad1)*%
X152500000Y-68500000D03*
%TD*%
D15*
%TO.P,Q3,1,G*%
%TO.N,/BLUE*%
X122250000Y-73737500D03*
%TO.P,Q3,2,S*%
%TO.N,GND*%
X124150000Y-73737500D03*
%TO.P,Q3,3,D*%
%TO.N,/BLUE_LED_A*%
X123200000Y-71862500D03*
%TD*%
D11*
%TO.P,H1,1,1*%
%TO.N,unconnected-(H1-Pad1)*%
X100000000Y-68500000D03*
%TD*%
D15*
%TO.P,Q2,1,G*%
%TO.N,/GREEN*%
X114650000Y-73737500D03*
%TO.P,Q2,2,S*%
%TO.N,GND*%
X116550000Y-73737500D03*
%TO.P,Q2,3,D*%
%TO.N,/GREEN_LED_A*%
X115600000Y-71862500D03*
%TD*%
D11*
%TO.P,H2,1,1*%
%TO.N,unconnected-(H2-Pad1)*%
X100000000Y-80500000D03*
%TD*%
D15*
%TO.P,Q1,1,G*%
%TO.N,/RED*%
X107050000Y-73737500D03*
%TO.P,Q1,2,S*%
%TO.N,GND*%
X108950000Y-73737500D03*
%TO.P,Q1,3,D*%
%TO.N,/RED_LED_A*%
X108000000Y-71862500D03*
%TD*%
D16*
%TO.N,/RED*%
X104140000Y-73660000D02*
X106972500Y-73660000D01*
X106972500Y-73660000D02*
X107050000Y-73737500D01*
%TO.N,GND*%
X124150000Y-73737500D02*
X124150000Y-77350000D01*
X115160000Y-78740000D02*
X111760000Y-78740000D01*
X116550000Y-77350000D02*
X115160000Y-78740000D01*
X108950000Y-77450000D02*
X107660000Y-78740000D01*
X124150000Y-77350000D02*
X122760000Y-78740000D01*
X122760000Y-78740000D02*
X119380000Y-78740000D01*
X107660000Y-78740000D02*
X104140000Y-78740000D01*
X108950000Y-73737500D02*
X108950000Y-77450000D01*
X116550000Y-73737500D02*
X116550000Y-77350000D01*
%TO.N,/GREEN*%
X111760000Y-73660000D02*
X114572500Y-73660000D01*
X114572500Y-73660000D02*
X114650000Y-73737500D01*
%TO.N,/BLUE*%
X119380000Y-73660000D02*
X122172500Y-73660000D01*
X122172500Y-73660000D02*
X122250000Y-73737500D01*
%TO.N,/RED_LED_A*%
X138400000Y-69100000D02*
X137000000Y-67700000D01*
X131850000Y-75805000D02*
X133995000Y-75805000D01*
X133995000Y-75805000D02*
X138400000Y-71400000D01*
X108000000Y-70600000D02*
X108000000Y-71862500D01*
X137000000Y-67700000D02*
X110900000Y-67700000D01*
X110900000Y-67700000D02*
X108000000Y-70600000D01*
X138400000Y-71400000D02*
X138400000Y-69100000D01*
%TO.N,/GREEN_LED_A*%
X133245000Y-68700000D02*
X117300000Y-68700000D01*
X115600000Y-70400000D02*
X115600000Y-71862500D01*
X135350000Y-70805000D02*
X133245000Y-68700000D01*
X117300000Y-68700000D02*
X115600000Y-70400000D01*
%TO.N,/BLUE_LED_A*%
X130200000Y-79700000D02*
X126300000Y-75800000D01*
X123262500Y-71800000D02*
X123200000Y-71862500D01*
X126300000Y-75800000D02*
X126300000Y-72800000D01*
X134955000Y-79700000D02*
X130200000Y-79700000D01*
X138850000Y-75805000D02*
X134955000Y-79700000D01*
X125300000Y-71800000D02*
X123262500Y-71800000D01*
X126300000Y-72800000D02*
X125300000Y-71800000D01*
%TD*%
%TA.AperFunction,Conductor*%
%TO.N,+BATT*%
G36*
X151078852Y-66528502D02*
G01*
X151125345Y-66582158D01*
X151135449Y-66652432D01*
X151105955Y-66717012D01*
X151093809Y-66729232D01*
X150899573Y-66899573D01*
X150896864Y-66902662D01*
X150707085Y-67119062D01*
X150707081Y-67119068D01*
X150704367Y-67122162D01*
X150702078Y-67125588D01*
X150702074Y-67125593D01*
X150649454Y-67204345D01*
X150539885Y-67368327D01*
X150408941Y-67633855D01*
X150313776Y-67914203D01*
X150256017Y-68204574D01*
X150236654Y-68500000D01*
X150236924Y-68504119D01*
X150255144Y-68782101D01*
X150256017Y-68795426D01*
X150256819Y-68799459D01*
X150256820Y-68799465D01*
X150312970Y-69081747D01*
X150313776Y-69085797D01*
X150315103Y-69089706D01*
X150315104Y-69089710D01*
X150338129Y-69157540D01*
X150408941Y-69366145D01*
X150455905Y-69461379D01*
X150536750Y-69625315D01*
X150539885Y-69631673D01*
X150556671Y-69656795D01*
X150695489Y-69864551D01*
X150704367Y-69877838D01*
X150707081Y-69880932D01*
X150707085Y-69880938D01*
X150864595Y-70060542D01*
X150899573Y-70100427D01*
X150902662Y-70103136D01*
X151119062Y-70292915D01*
X151119068Y-70292919D01*
X151122162Y-70295633D01*
X151125588Y-70297922D01*
X151125593Y-70297926D01*
X151227643Y-70366113D01*
X151368327Y-70460115D01*
X151372026Y-70461939D01*
X151372031Y-70461942D01*
X151471947Y-70511215D01*
X151633855Y-70591059D01*
X151637760Y-70592384D01*
X151637761Y-70592385D01*
X151910290Y-70684896D01*
X151910294Y-70684897D01*
X151914203Y-70686224D01*
X151918247Y-70687028D01*
X151918253Y-70687030D01*
X152200535Y-70743180D01*
X152200541Y-70743181D01*
X152204574Y-70743983D01*
X152208679Y-70744252D01*
X152208686Y-70744253D01*
X152495881Y-70763076D01*
X152500000Y-70763346D01*
X152504119Y-70763076D01*
X152791314Y-70744253D01*
X152791321Y-70744252D01*
X152795426Y-70743983D01*
X152799459Y-70743181D01*
X152799465Y-70743180D01*
X153081747Y-70687030D01*
X153081753Y-70687028D01*
X153085797Y-70686224D01*
X153089706Y-70684897D01*
X153089710Y-70684896D01*
X153362239Y-70592385D01*
X153362240Y-70592384D01*
X153366145Y-70591059D01*
X153528053Y-70511215D01*
X153627969Y-70461942D01*
X153627974Y-70461939D01*
X153631673Y-70460115D01*
X153772357Y-70366113D01*
X153874407Y-70297926D01*
X153874412Y-70297922D01*
X153877838Y-70295633D01*
X153880932Y-70292919D01*
X153880938Y-70292915D01*
X154097338Y-70103136D01*
X154100427Y-70100427D01*
X154270768Y-69906191D01*
X154330722Y-69868164D01*
X154401717Y-69868586D01*
X154461214Y-69907325D01*
X154490322Y-69972080D01*
X154491500Y-69989269D01*
X154491500Y-79010731D01*
X154471498Y-79078852D01*
X154417842Y-79125345D01*
X154347568Y-79135449D01*
X154282988Y-79105955D01*
X154270768Y-79093809D01*
X154103136Y-78902662D01*
X154100427Y-78899573D01*
X154097338Y-78896864D01*
X153880938Y-78707085D01*
X153880932Y-78707081D01*
X153877838Y-78704367D01*
X153874412Y-78702078D01*
X153874407Y-78702074D01*
X153635106Y-78542179D01*
X153631673Y-78539885D01*
X153627974Y-78538061D01*
X153627969Y-78538058D01*
X153491687Y-78470852D01*
X153366145Y-78408941D01*
X153362239Y-78407615D01*
X153089710Y-78315104D01*
X153089706Y-78315103D01*
X153085797Y-78313776D01*
X153081753Y-78312972D01*
X153081747Y-78312970D01*
X152799465Y-78256820D01*
X152799459Y-78256819D01*
X152795426Y-78256017D01*
X152791321Y-78255748D01*
X152791314Y-78255747D01*
X152504119Y-78236924D01*
X152500000Y-78236654D01*
X152495881Y-78236924D01*
X152208686Y-78255747D01*
X152208679Y-78255748D01*
X152204574Y-78256017D01*
X152200541Y-78256819D01*
X152200535Y-78256820D01*
X151918253Y-78312970D01*
X151918247Y-78312972D01*
X151914203Y-78313776D01*
X151910294Y-78315103D01*
X151910290Y-78315104D01*
X151637761Y-78407615D01*
X151633855Y-78408941D01*
X151508313Y-78470852D01*
X151372031Y-78538058D01*
X151372026Y-78538061D01*
X151368327Y-78539885D01*
X151364894Y-78542179D01*
X151125593Y-78702074D01*
X151125588Y-78702078D01*
X151122162Y-78704367D01*
X151119068Y-78707081D01*
X151119062Y-78707085D01*
X150902662Y-78896864D01*
X150899573Y-78899573D01*
X150896864Y-78902662D01*
X150707085Y-79119062D01*
X150707081Y-79119068D01*
X150704367Y-79122162D01*
X150702078Y-79125588D01*
X150702074Y-79125593D01*
X150606653Y-79268402D01*
X150539885Y-79368327D01*
X150538061Y-79372026D01*
X150538058Y-79372031D01*
X150480445Y-79488860D01*
X150408941Y-79633855D01*
X150407616Y-79637760D01*
X150407615Y-79637761D01*
X150332433Y-79859242D01*
X150313776Y-79914203D01*
X150312972Y-79918247D01*
X150312970Y-79918253D01*
X150259133Y-80188911D01*
X150256017Y-80204574D01*
X150255748Y-80208679D01*
X150255747Y-80208686D01*
X150240378Y-80443182D01*
X150236654Y-80500000D01*
X150256017Y-80795426D01*
X150313776Y-81085797D01*
X150408941Y-81366145D01*
X150539885Y-81631673D01*
X150542179Y-81635106D01*
X150695489Y-81864551D01*
X150704367Y-81877838D01*
X150707081Y-81880932D01*
X150707085Y-81880938D01*
X150896864Y-82097338D01*
X150899573Y-82100427D01*
X150902662Y-82103136D01*
X151093809Y-82270768D01*
X151131836Y-82330722D01*
X151131414Y-82401717D01*
X151092675Y-82461214D01*
X151027920Y-82490322D01*
X151010731Y-82491500D01*
X101489269Y-82491500D01*
X101421148Y-82471498D01*
X101374655Y-82417842D01*
X101364551Y-82347568D01*
X101394045Y-82282988D01*
X101406191Y-82270768D01*
X101597338Y-82103136D01*
X101600427Y-82100427D01*
X101603136Y-82097338D01*
X101792915Y-81880938D01*
X101792919Y-81880932D01*
X101795633Y-81877838D01*
X101804512Y-81864551D01*
X101957821Y-81635106D01*
X101960115Y-81631673D01*
X102091059Y-81366145D01*
X102186224Y-81085797D01*
X102243983Y-80795426D01*
X102263346Y-80500000D01*
X102259622Y-80443182D01*
X102244253Y-80208686D01*
X102244252Y-80208679D01*
X102243983Y-80204574D01*
X102240868Y-80188911D01*
X102187030Y-79918253D01*
X102187028Y-79918247D01*
X102186224Y-79914203D01*
X102167568Y-79859242D01*
X102092385Y-79637761D01*
X102092384Y-79637760D01*
X102091059Y-79633855D01*
X102019555Y-79488860D01*
X101961942Y-79372031D01*
X101961939Y-79372026D01*
X101960115Y-79368327D01*
X101893347Y-79268402D01*
X101797926Y-79125593D01*
X101797922Y-79125588D01*
X101795633Y-79122162D01*
X101792919Y-79119068D01*
X101792915Y-79119062D01*
X101603136Y-78902662D01*
X101600427Y-78899573D01*
X101597338Y-78896864D01*
X101380938Y-78707085D01*
X101380932Y-78707081D01*
X101380492Y-78706695D01*
X102777251Y-78706695D01*
X102790110Y-78929715D01*
X102791247Y-78934761D01*
X102791248Y-78934767D01*
X102808368Y-79010731D01*
X102839222Y-79147639D01*
X102888752Y-79269617D01*
X102916876Y-79338878D01*
X102923266Y-79354616D01*
X102939808Y-79381610D01*
X103005895Y-79489454D01*
X103039987Y-79545088D01*
X103186250Y-79713938D01*
X103358126Y-79856632D01*
X103551000Y-79969338D01*
X103759692Y-80049030D01*
X103764760Y-80050061D01*
X103764763Y-80050062D01*
X103872017Y-80071883D01*
X103978597Y-80093567D01*
X103983772Y-80093757D01*
X103983774Y-80093757D01*
X104196673Y-80101564D01*
X104196677Y-80101564D01*
X104201837Y-80101753D01*
X104206957Y-80101097D01*
X104206959Y-80101097D01*
X104418288Y-80074025D01*
X104418289Y-80074025D01*
X104423416Y-80073368D01*
X104428366Y-80071883D01*
X104632429Y-80010661D01*
X104632434Y-80010659D01*
X104637384Y-80009174D01*
X104837994Y-79910896D01*
X105019860Y-79781173D01*
X105178096Y-79623489D01*
X105230203Y-79550974D01*
X105286198Y-79507326D01*
X105332526Y-79498500D01*
X107592930Y-79498500D01*
X107611880Y-79499933D01*
X107626115Y-79502099D01*
X107626119Y-79502099D01*
X107633349Y-79503199D01*
X107640641Y-79502606D01*
X107640644Y-79502606D01*
X107686018Y-79498915D01*
X107696233Y-79498500D01*
X107704293Y-79498500D01*
X107717583Y-79496951D01*
X107732507Y-79495211D01*
X107736882Y-79494778D01*
X107802339Y-79489454D01*
X107802342Y-79489453D01*
X107809637Y-79488860D01*
X107816601Y-79486604D01*
X107822560Y-79485413D01*
X107828415Y-79484029D01*
X107835681Y-79483182D01*
X107904327Y-79458265D01*
X107908455Y-79456848D01*
X107970936Y-79436607D01*
X107970938Y-79436606D01*
X107977899Y-79434351D01*
X107984154Y-79430555D01*
X107989628Y-79428049D01*
X107995058Y-79425330D01*
X108001937Y-79422833D01*
X108062976Y-79382814D01*
X108066680Y-79380477D01*
X108129107Y-79342595D01*
X108137484Y-79335197D01*
X108137508Y-79335224D01*
X108140500Y-79332571D01*
X108143733Y-79329868D01*
X108149852Y-79325856D01*
X108203128Y-79269617D01*
X108205506Y-79267175D01*
X109438911Y-78033770D01*
X109453323Y-78021384D01*
X109464918Y-78012851D01*
X109464923Y-78012846D01*
X109470818Y-78008508D01*
X109475557Y-78002930D01*
X109475560Y-78002927D01*
X109505035Y-77968232D01*
X109511965Y-77960716D01*
X109517660Y-77955021D01*
X109535281Y-77932749D01*
X109538072Y-77929345D01*
X109580591Y-77879297D01*
X109580592Y-77879295D01*
X109585333Y-77873715D01*
X109588661Y-77867199D01*
X109592020Y-77862162D01*
X109595194Y-77857023D01*
X109599734Y-77851284D01*
X109630636Y-77785163D01*
X109632569Y-77781209D01*
X109642485Y-77761789D01*
X109665769Y-77716192D01*
X109667510Y-77709076D01*
X109669604Y-77703446D01*
X109671523Y-77697679D01*
X109674621Y-77691050D01*
X109689483Y-77619600D01*
X109690453Y-77615315D01*
X109693075Y-77604598D01*
X109707808Y-77544390D01*
X109708500Y-77533236D01*
X109708536Y-77533238D01*
X109708775Y-77529248D01*
X109709150Y-77525050D01*
X109710640Y-77517885D01*
X109708546Y-77440496D01*
X109708500Y-77437088D01*
X109708500Y-74608754D01*
X109713503Y-74573602D01*
X109753767Y-74435011D01*
X109753768Y-74435007D01*
X109755562Y-74428831D01*
X109756376Y-74418500D01*
X109758307Y-74393958D01*
X109758307Y-74393950D01*
X109758500Y-74391502D01*
X109758500Y-73083498D01*
X109758307Y-73081042D01*
X109756067Y-73052579D01*
X109756066Y-73052574D01*
X109755562Y-73046169D01*
X109709145Y-72886399D01*
X109678088Y-72833885D01*
X109628491Y-72750020D01*
X109628489Y-72750017D01*
X109624453Y-72743193D01*
X109506807Y-72625547D01*
X109499983Y-72621511D01*
X109499980Y-72621509D01*
X109370427Y-72544892D01*
X109370428Y-72544892D01*
X109363601Y-72540855D01*
X109355990Y-72538644D01*
X109355988Y-72538643D01*
X109303769Y-72523472D01*
X109203831Y-72494438D01*
X109197426Y-72493934D01*
X109197421Y-72493933D01*
X109168958Y-72491693D01*
X109168950Y-72491693D01*
X109166502Y-72491500D01*
X108934500Y-72491500D01*
X108866379Y-72471498D01*
X108819886Y-72417842D01*
X108808500Y-72365500D01*
X108808500Y-71208498D01*
X108805562Y-71171169D01*
X108803768Y-71164993D01*
X108803767Y-71164989D01*
X108763503Y-71026398D01*
X108758500Y-70991246D01*
X108758500Y-70966371D01*
X108778502Y-70898250D01*
X108795405Y-70877276D01*
X111177276Y-68495405D01*
X111239588Y-68461379D01*
X111266371Y-68458500D01*
X116164629Y-68458500D01*
X116232750Y-68478502D01*
X116279243Y-68532158D01*
X116289347Y-68602432D01*
X116259853Y-68667012D01*
X116253724Y-68673595D01*
X115111089Y-69816230D01*
X115096677Y-69828616D01*
X115085082Y-69837149D01*
X115085077Y-69837154D01*
X115079182Y-69841492D01*
X115074443Y-69847070D01*
X115074440Y-69847073D01*
X115044965Y-69881768D01*
X115038035Y-69889284D01*
X115032340Y-69894979D01*
X115030060Y-69897861D01*
X115014719Y-69917251D01*
X115011928Y-69920655D01*
X114989539Y-69947009D01*
X114964667Y-69976285D01*
X114961339Y-69982801D01*
X114957972Y-69987850D01*
X114954805Y-69992979D01*
X114950266Y-69998716D01*
X114919345Y-70064875D01*
X114917442Y-70068769D01*
X114884231Y-70133808D01*
X114882492Y-70140916D01*
X114880393Y-70146559D01*
X114878476Y-70152322D01*
X114875378Y-70158950D01*
X114873888Y-70166112D01*
X114873888Y-70166113D01*
X114860514Y-70230412D01*
X114859544Y-70234696D01*
X114842192Y-70305610D01*
X114841500Y-70316764D01*
X114841464Y-70316762D01*
X114841225Y-70320755D01*
X114840851Y-70324947D01*
X114839360Y-70332115D01*
X114839558Y-70339432D01*
X114841454Y-70409521D01*
X114841500Y-70412928D01*
X114841500Y-70991246D01*
X114836497Y-71026398D01*
X114796233Y-71164989D01*
X114796232Y-71164993D01*
X114794438Y-71171169D01*
X114791500Y-71208498D01*
X114791500Y-72365500D01*
X114771498Y-72433621D01*
X114717842Y-72480114D01*
X114665500Y-72491500D01*
X114433498Y-72491500D01*
X114431050Y-72491693D01*
X114431042Y-72491693D01*
X114402579Y-72493933D01*
X114402574Y-72493934D01*
X114396169Y-72494438D01*
X114296231Y-72523472D01*
X114244012Y-72538643D01*
X114244010Y-72538644D01*
X114236399Y-72540855D01*
X114229572Y-72544892D01*
X114229573Y-72544892D01*
X114100020Y-72621509D01*
X114100017Y-72621511D01*
X114093193Y-72625547D01*
X113975547Y-72743193D01*
X113971511Y-72750017D01*
X113971509Y-72750020D01*
X113918509Y-72839639D01*
X113866617Y-72888092D01*
X113810056Y-72901500D01*
X113244500Y-72901500D01*
X113176379Y-72881498D01*
X113129886Y-72827842D01*
X113118500Y-72775500D01*
X113118500Y-72761866D01*
X113111745Y-72699684D01*
X113060615Y-72563295D01*
X112973261Y-72446739D01*
X112856705Y-72359385D01*
X112720316Y-72308255D01*
X112658134Y-72301500D01*
X110861866Y-72301500D01*
X110799684Y-72308255D01*
X110663295Y-72359385D01*
X110546739Y-72446739D01*
X110459385Y-72563295D01*
X110408255Y-72699684D01*
X110401500Y-72761866D01*
X110401500Y-74558134D01*
X110408255Y-74620316D01*
X110459385Y-74756705D01*
X110546739Y-74873261D01*
X110663295Y-74960615D01*
X110671704Y-74963767D01*
X110671705Y-74963768D01*
X110780451Y-75004535D01*
X110837216Y-75047176D01*
X110861916Y-75113738D01*
X110846709Y-75183087D01*
X110827316Y-75209568D01*
X110705356Y-75337192D01*
X110700629Y-75342138D01*
X110574743Y-75526680D01*
X110480688Y-75729305D01*
X110420989Y-75944570D01*
X110397251Y-76166695D01*
X110397548Y-76171848D01*
X110397548Y-76171851D01*
X110403639Y-76277484D01*
X110410110Y-76389715D01*
X110411247Y-76394761D01*
X110411248Y-76394767D01*
X110422674Y-76445467D01*
X110459222Y-76607639D01*
X110543266Y-76814616D01*
X110545965Y-76819020D01*
X110633327Y-76961582D01*
X110659987Y-77005088D01*
X110806250Y-77173938D01*
X110978126Y-77316632D01*
X111048595Y-77357811D01*
X111051445Y-77359476D01*
X111100169Y-77411114D01*
X111113240Y-77480897D01*
X111086509Y-77546669D01*
X111046055Y-77580027D01*
X111033607Y-77586507D01*
X111029474Y-77589610D01*
X111029471Y-77589612D01*
X110859100Y-77717530D01*
X110854965Y-77720635D01*
X110851393Y-77724373D01*
X110719719Y-77862162D01*
X110700629Y-77882138D01*
X110697715Y-77886410D01*
X110697714Y-77886411D01*
X110650912Y-77955021D01*
X110574743Y-78066680D01*
X110572564Y-78071375D01*
X110495719Y-78236924D01*
X110480688Y-78269305D01*
X110420989Y-78484570D01*
X110397251Y-78706695D01*
X110410110Y-78929715D01*
X110411247Y-78934761D01*
X110411248Y-78934767D01*
X110428368Y-79010731D01*
X110459222Y-79147639D01*
X110508752Y-79269617D01*
X110536876Y-79338878D01*
X110543266Y-79354616D01*
X110559808Y-79381610D01*
X110625895Y-79489454D01*
X110659987Y-79545088D01*
X110806250Y-79713938D01*
X110978126Y-79856632D01*
X111171000Y-79969338D01*
X111379692Y-80049030D01*
X111384760Y-80050061D01*
X111384763Y-80050062D01*
X111492017Y-80071883D01*
X111598597Y-80093567D01*
X111603772Y-80093757D01*
X111603774Y-80093757D01*
X111816673Y-80101564D01*
X111816677Y-80101564D01*
X111821837Y-80101753D01*
X111826957Y-80101097D01*
X111826959Y-80101097D01*
X112038288Y-80074025D01*
X112038289Y-80074025D01*
X112043416Y-80073368D01*
X112048366Y-80071883D01*
X112252429Y-80010661D01*
X112252434Y-80010659D01*
X112257384Y-80009174D01*
X112457994Y-79910896D01*
X112639860Y-79781173D01*
X112798096Y-79623489D01*
X112850203Y-79550974D01*
X112906198Y-79507326D01*
X112952526Y-79498500D01*
X115092930Y-79498500D01*
X115111880Y-79499933D01*
X115126115Y-79502099D01*
X115126119Y-79502099D01*
X115133349Y-79503199D01*
X115140641Y-79502606D01*
X115140644Y-79502606D01*
X115186018Y-79498915D01*
X115196233Y-79498500D01*
X115204293Y-79498500D01*
X115217583Y-79496951D01*
X115232507Y-79495211D01*
X115236882Y-79494778D01*
X115302339Y-79489454D01*
X115302342Y-79489453D01*
X115309637Y-79488860D01*
X115316601Y-79486604D01*
X115322560Y-79485413D01*
X115328415Y-79484029D01*
X115335681Y-79483182D01*
X115404327Y-79458265D01*
X115408455Y-79456848D01*
X115470936Y-79436607D01*
X115470938Y-79436606D01*
X115477899Y-79434351D01*
X115484154Y-79430555D01*
X115489628Y-79428049D01*
X115495058Y-79425330D01*
X115501937Y-79422833D01*
X115562976Y-79382814D01*
X115566680Y-79380477D01*
X115629107Y-79342595D01*
X115637484Y-79335197D01*
X115637508Y-79335224D01*
X115640500Y-79332571D01*
X115643733Y-79329868D01*
X115649852Y-79325856D01*
X115703128Y-79269617D01*
X115705506Y-79267175D01*
X116265986Y-78706695D01*
X118017251Y-78706695D01*
X118030110Y-78929715D01*
X118031247Y-78934761D01*
X118031248Y-78934767D01*
X118048368Y-79010731D01*
X118079222Y-79147639D01*
X118128752Y-79269617D01*
X118156876Y-79338878D01*
X118163266Y-79354616D01*
X118179808Y-79381610D01*
X118245895Y-79489454D01*
X118279987Y-79545088D01*
X118426250Y-79713938D01*
X118598126Y-79856632D01*
X118791000Y-79969338D01*
X118999692Y-80049030D01*
X119004760Y-80050061D01*
X119004763Y-80050062D01*
X119112017Y-80071883D01*
X119218597Y-80093567D01*
X119223772Y-80093757D01*
X119223774Y-80093757D01*
X119436673Y-80101564D01*
X119436677Y-80101564D01*
X119441837Y-80101753D01*
X119446957Y-80101097D01*
X119446959Y-80101097D01*
X119658288Y-80074025D01*
X119658289Y-80074025D01*
X119663416Y-80073368D01*
X119668366Y-80071883D01*
X119872429Y-80010661D01*
X119872434Y-80010659D01*
X119877384Y-80009174D01*
X120077994Y-79910896D01*
X120259860Y-79781173D01*
X120418096Y-79623489D01*
X120470203Y-79550974D01*
X120526198Y-79507326D01*
X120572526Y-79498500D01*
X122692930Y-79498500D01*
X122711880Y-79499933D01*
X122726115Y-79502099D01*
X122726119Y-79502099D01*
X122733349Y-79503199D01*
X122740641Y-79502606D01*
X122740644Y-79502606D01*
X122786018Y-79498915D01*
X122796233Y-79498500D01*
X122804293Y-79498500D01*
X122817583Y-79496951D01*
X122832507Y-79495211D01*
X122836882Y-79494778D01*
X122902339Y-79489454D01*
X122902342Y-79489453D01*
X122909637Y-79488860D01*
X122916601Y-79486604D01*
X122922560Y-79485413D01*
X122928415Y-79484029D01*
X122935681Y-79483182D01*
X123004327Y-79458265D01*
X123008455Y-79456848D01*
X123070936Y-79436607D01*
X123070938Y-79436606D01*
X123077899Y-79434351D01*
X123084154Y-79430555D01*
X123089628Y-79428049D01*
X123095058Y-79425330D01*
X123101937Y-79422833D01*
X123162976Y-79382814D01*
X123166680Y-79380477D01*
X123229107Y-79342595D01*
X123237484Y-79335197D01*
X123237508Y-79335224D01*
X123240500Y-79332571D01*
X123243733Y-79329868D01*
X123249852Y-79325856D01*
X123303128Y-79269617D01*
X123305506Y-79267175D01*
X124638911Y-77933770D01*
X124653323Y-77921384D01*
X124664918Y-77912851D01*
X124664923Y-77912846D01*
X124670818Y-77908508D01*
X124675557Y-77902930D01*
X124675560Y-77902927D01*
X124705035Y-77868232D01*
X124711965Y-77860716D01*
X124717660Y-77855021D01*
X124735281Y-77832749D01*
X124738072Y-77829345D01*
X124780591Y-77779297D01*
X124780592Y-77779295D01*
X124785333Y-77773715D01*
X124788661Y-77767199D01*
X124792028Y-77762150D01*
X124795195Y-77757021D01*
X124799734Y-77751284D01*
X124830655Y-77685125D01*
X124832561Y-77681225D01*
X124865769Y-77616192D01*
X124867508Y-77609083D01*
X124869604Y-77603449D01*
X124871523Y-77597679D01*
X124874622Y-77591050D01*
X124885494Y-77538785D01*
X124889490Y-77519571D01*
X124890461Y-77515282D01*
X124907808Y-77444390D01*
X124908500Y-77433236D01*
X124908535Y-77433238D01*
X124908775Y-77429266D01*
X124909152Y-77425045D01*
X124910641Y-77417885D01*
X124908546Y-77340458D01*
X124908500Y-77337050D01*
X124908500Y-74608754D01*
X124913503Y-74573602D01*
X124953767Y-74435011D01*
X124953768Y-74435007D01*
X124955562Y-74428831D01*
X124956376Y-74418500D01*
X124958307Y-74393958D01*
X124958307Y-74393950D01*
X124958500Y-74391502D01*
X124958500Y-73083498D01*
X124958307Y-73081042D01*
X124956067Y-73052579D01*
X124956066Y-73052574D01*
X124955562Y-73046169D01*
X124909145Y-72886399D01*
X124831289Y-72754752D01*
X124813829Y-72685936D01*
X124836346Y-72618605D01*
X124891690Y-72574135D01*
X124962291Y-72566647D01*
X125028837Y-72601518D01*
X125504595Y-73077276D01*
X125538621Y-73139588D01*
X125541500Y-73166371D01*
X125541500Y-75732930D01*
X125540067Y-75751880D01*
X125537962Y-75765720D01*
X125536801Y-75773349D01*
X125537394Y-75780641D01*
X125537394Y-75780644D01*
X125541085Y-75826018D01*
X125541500Y-75836233D01*
X125541500Y-75844293D01*
X125541925Y-75847937D01*
X125544789Y-75872507D01*
X125545222Y-75876882D01*
X125550323Y-75939588D01*
X125551140Y-75949637D01*
X125553396Y-75956601D01*
X125554587Y-75962560D01*
X125555971Y-75968415D01*
X125556818Y-75975681D01*
X125581735Y-76044327D01*
X125583152Y-76048455D01*
X125601040Y-76103671D01*
X125605649Y-76117899D01*
X125609445Y-76124154D01*
X125611951Y-76129628D01*
X125614670Y-76135058D01*
X125617167Y-76141937D01*
X125621180Y-76148057D01*
X125621180Y-76148058D01*
X125657186Y-76202976D01*
X125659523Y-76206680D01*
X125697405Y-76269107D01*
X125701121Y-76273315D01*
X125701122Y-76273316D01*
X125704803Y-76277484D01*
X125704776Y-76277508D01*
X125707429Y-76280500D01*
X125710132Y-76283733D01*
X125714144Y-76289852D01*
X125719456Y-76294884D01*
X125770383Y-76343128D01*
X125772825Y-76345506D01*
X129616230Y-80188911D01*
X129628616Y-80203323D01*
X129637149Y-80214918D01*
X129637154Y-80214923D01*
X129641492Y-80220818D01*
X129647070Y-80225557D01*
X129647073Y-80225560D01*
X129681768Y-80255035D01*
X129689284Y-80261965D01*
X129694979Y-80267660D01*
X129697861Y-80269940D01*
X129717251Y-80285281D01*
X129720655Y-80288072D01*
X129770703Y-80330591D01*
X129776285Y-80335333D01*
X129782801Y-80338661D01*
X129787850Y-80342028D01*
X129792979Y-80345195D01*
X129798716Y-80349734D01*
X129864875Y-80380655D01*
X129868769Y-80382558D01*
X129933808Y-80415769D01*
X129940916Y-80417508D01*
X129946559Y-80419607D01*
X129952322Y-80421524D01*
X129958950Y-80424622D01*
X129966112Y-80426112D01*
X129966113Y-80426112D01*
X130030412Y-80439486D01*
X130034696Y-80440456D01*
X130105610Y-80457808D01*
X130111212Y-80458156D01*
X130111215Y-80458156D01*
X130116764Y-80458500D01*
X130116762Y-80458536D01*
X130120755Y-80458775D01*
X130124947Y-80459149D01*
X130132115Y-80460640D01*
X130209520Y-80458546D01*
X130212928Y-80458500D01*
X134887930Y-80458500D01*
X134906880Y-80459933D01*
X134921115Y-80462099D01*
X134921119Y-80462099D01*
X134928349Y-80463199D01*
X134935641Y-80462606D01*
X134935644Y-80462606D01*
X134981018Y-80458915D01*
X134991233Y-80458500D01*
X134999293Y-80458500D01*
X135016680Y-80456473D01*
X135027507Y-80455211D01*
X135031882Y-80454778D01*
X135097339Y-80449454D01*
X135097342Y-80449453D01*
X135104637Y-80448860D01*
X135111601Y-80446604D01*
X135117560Y-80445413D01*
X135123415Y-80444029D01*
X135130681Y-80443182D01*
X135199327Y-80418265D01*
X135203455Y-80416848D01*
X135265936Y-80396607D01*
X135265938Y-80396606D01*
X135272899Y-80394351D01*
X135279154Y-80390555D01*
X135284628Y-80388049D01*
X135290058Y-80385330D01*
X135296937Y-80382833D01*
X135303058Y-80378820D01*
X135357976Y-80342814D01*
X135361680Y-80340477D01*
X135424107Y-80302595D01*
X135432484Y-80295197D01*
X135432508Y-80295224D01*
X135435500Y-80292571D01*
X135438733Y-80289868D01*
X135444852Y-80285856D01*
X135498128Y-80229617D01*
X135500506Y-80227175D01*
X138499040Y-77228641D01*
X138561352Y-77194615D01*
X138613256Y-77194266D01*
X138677585Y-77207354D01*
X138677593Y-77207355D01*
X138682656Y-77208385D01*
X138813324Y-77213176D01*
X138908949Y-77216683D01*
X138908953Y-77216683D01*
X138914113Y-77216872D01*
X138919233Y-77216216D01*
X138919235Y-77216216D01*
X138992270Y-77206860D01*
X139143847Y-77187442D01*
X139148795Y-77185957D01*
X139148802Y-77185956D01*
X139360747Y-77122369D01*
X139365690Y-77120886D01*
X139370324Y-77118616D01*
X139569049Y-77021262D01*
X139569052Y-77021260D01*
X139573684Y-77018991D01*
X139762243Y-76884494D01*
X139926303Y-76721005D01*
X140061458Y-76532917D01*
X140076933Y-76501607D01*
X140161784Y-76329922D01*
X140161785Y-76329920D01*
X140164078Y-76325280D01*
X140231408Y-76103671D01*
X140261640Y-75874041D01*
X140262367Y-75844293D01*
X140263245Y-75808365D01*
X140263245Y-75808361D01*
X140263327Y-75805000D01*
X140262916Y-75800000D01*
X146474406Y-75800000D01*
X146494742Y-76032444D01*
X146496166Y-76037757D01*
X146496166Y-76037759D01*
X146548328Y-76232428D01*
X146555133Y-76257826D01*
X146557455Y-76262806D01*
X146557456Y-76262808D01*
X146651418Y-76464310D01*
X146651421Y-76464315D01*
X146653744Y-76469297D01*
X146656900Y-76473804D01*
X146656901Y-76473806D01*
X146775808Y-76643622D01*
X146787578Y-76660432D01*
X146952568Y-76825422D01*
X146957076Y-76828579D01*
X146957079Y-76828581D01*
X147068041Y-76906277D01*
X147143703Y-76959256D01*
X147148685Y-76961579D01*
X147148690Y-76961582D01*
X147307892Y-77035819D01*
X147355174Y-77057867D01*
X147360482Y-77059289D01*
X147360484Y-77059290D01*
X147575241Y-77116834D01*
X147575243Y-77116834D01*
X147580556Y-77118258D01*
X147813000Y-77138594D01*
X148045444Y-77118258D01*
X148050757Y-77116834D01*
X148050759Y-77116834D01*
X148265516Y-77059290D01*
X148265518Y-77059289D01*
X148270826Y-77057867D01*
X148318108Y-77035819D01*
X148477310Y-76961582D01*
X148477315Y-76961579D01*
X148482297Y-76959256D01*
X148557959Y-76906277D01*
X148668921Y-76828581D01*
X148668924Y-76828579D01*
X148673432Y-76825422D01*
X148838422Y-76660432D01*
X148850193Y-76643622D01*
X148969099Y-76473806D01*
X148969100Y-76473804D01*
X148972256Y-76469297D01*
X148974579Y-76464315D01*
X148974582Y-76464310D01*
X149068544Y-76262808D01*
X149068545Y-76262806D01*
X149070867Y-76257826D01*
X149077673Y-76232428D01*
X149129834Y-76037759D01*
X149129834Y-76037757D01*
X149131258Y-76032444D01*
X149151594Y-75800000D01*
X149131258Y-75567556D01*
X149129834Y-75562241D01*
X149072290Y-75347484D01*
X149072289Y-75347482D01*
X149070867Y-75342174D01*
X149009032Y-75209568D01*
X148974582Y-75135690D01*
X148974579Y-75135685D01*
X148972256Y-75130703D01*
X148958871Y-75111587D01*
X148841581Y-74944079D01*
X148841579Y-74944076D01*
X148838422Y-74939568D01*
X148673432Y-74774578D01*
X148668924Y-74771421D01*
X148668921Y-74771419D01*
X148486806Y-74643901D01*
X148486804Y-74643900D01*
X148482297Y-74640744D01*
X148477315Y-74638421D01*
X148477310Y-74638418D01*
X148275808Y-74544456D01*
X148275806Y-74544455D01*
X148270826Y-74542133D01*
X148265518Y-74540711D01*
X148265516Y-74540710D01*
X148050759Y-74483166D01*
X148050757Y-74483166D01*
X148045444Y-74481742D01*
X147813000Y-74461406D01*
X147580556Y-74481742D01*
X147575243Y-74483166D01*
X147575241Y-74483166D01*
X147360484Y-74540710D01*
X147360482Y-74540711D01*
X147355174Y-74542133D01*
X147350194Y-74544455D01*
X147350192Y-74544456D01*
X147148690Y-74638418D01*
X147148685Y-74638421D01*
X147143703Y-74640744D01*
X147139196Y-74643900D01*
X147139194Y-74643901D01*
X146957079Y-74771419D01*
X146957076Y-74771421D01*
X146952568Y-74774578D01*
X146787578Y-74939568D01*
X146784421Y-74944076D01*
X146784419Y-74944079D01*
X146667129Y-75111587D01*
X146653744Y-75130703D01*
X146651421Y-75135685D01*
X146651418Y-75135690D01*
X146616968Y-75209568D01*
X146555133Y-75342174D01*
X146553711Y-75347482D01*
X146553710Y-75347484D01*
X146496166Y-75562241D01*
X146494742Y-75567556D01*
X146474406Y-75800000D01*
X140262916Y-75800000D01*
X140256718Y-75724610D01*
X140244773Y-75579318D01*
X140244772Y-75579312D01*
X140244349Y-75574167D01*
X140209048Y-75433629D01*
X140189184Y-75354544D01*
X140189183Y-75354540D01*
X140187925Y-75349533D01*
X140182559Y-75337192D01*
X140097630Y-75141868D01*
X140097628Y-75141865D01*
X140095570Y-75137131D01*
X139969764Y-74942665D01*
X139962012Y-74934145D01*
X139879844Y-74843844D01*
X139813887Y-74771358D01*
X139809836Y-74768159D01*
X139809832Y-74768155D01*
X139636177Y-74631011D01*
X139636172Y-74631008D01*
X139632123Y-74627810D01*
X139627607Y-74625317D01*
X139627604Y-74625315D01*
X139433879Y-74518373D01*
X139433875Y-74518371D01*
X139429355Y-74515876D01*
X139424486Y-74514152D01*
X139424482Y-74514150D01*
X139215903Y-74440288D01*
X139215899Y-74440287D01*
X139211028Y-74438562D01*
X139205935Y-74437655D01*
X139205932Y-74437654D01*
X138988095Y-74398851D01*
X138988089Y-74398850D01*
X138983006Y-74397945D01*
X138910096Y-74397054D01*
X138756581Y-74395179D01*
X138756579Y-74395179D01*
X138751411Y-74395116D01*
X138522464Y-74430150D01*
X138302314Y-74502106D01*
X138297726Y-74504494D01*
X138297722Y-74504496D01*
X138136158Y-74588601D01*
X138096872Y-74609052D01*
X138092739Y-74612155D01*
X138092736Y-74612157D01*
X137925907Y-74737416D01*
X137911655Y-74748117D01*
X137751639Y-74915564D01*
X137748725Y-74919836D01*
X137748724Y-74919837D01*
X137733152Y-74942665D01*
X137621119Y-75106899D01*
X137523602Y-75316981D01*
X137461707Y-75540169D01*
X137437095Y-75770469D01*
X137437392Y-75775622D01*
X137437392Y-75775625D01*
X137447133Y-75944570D01*
X137450427Y-76001697D01*
X137459112Y-76040234D01*
X137454576Y-76111083D01*
X137425290Y-76157029D01*
X134677724Y-78904595D01*
X134615412Y-78938621D01*
X134588629Y-78941500D01*
X130566371Y-78941500D01*
X130498250Y-78921498D01*
X130477276Y-78904595D01*
X127095405Y-75522724D01*
X127061379Y-75460412D01*
X127058500Y-75433629D01*
X127058500Y-72867070D01*
X127059933Y-72848120D01*
X127062099Y-72833885D01*
X127062099Y-72833881D01*
X127063199Y-72826651D01*
X127058915Y-72773982D01*
X127058500Y-72763767D01*
X127058500Y-72755707D01*
X127055209Y-72727480D01*
X127054778Y-72723121D01*
X127049454Y-72657662D01*
X127049453Y-72657659D01*
X127048860Y-72650364D01*
X127046604Y-72643400D01*
X127045417Y-72637461D01*
X127044030Y-72631590D01*
X127043182Y-72624319D01*
X127040686Y-72617443D01*
X127040684Y-72617434D01*
X127018275Y-72555702D01*
X127016865Y-72551598D01*
X126994352Y-72482101D01*
X126990556Y-72475846D01*
X126988057Y-72470387D01*
X126985329Y-72464939D01*
X126982833Y-72458063D01*
X126942805Y-72397010D01*
X126940481Y-72393327D01*
X126905500Y-72335680D01*
X126905499Y-72335679D01*
X126902595Y-72330893D01*
X126895198Y-72322517D01*
X126895225Y-72322493D01*
X126892570Y-72319499D01*
X126889868Y-72316268D01*
X126885856Y-72310148D01*
X126829617Y-72256872D01*
X126827175Y-72254494D01*
X126539087Y-71966406D01*
X127553423Y-71966406D01*
X127558704Y-71973461D01*
X127735080Y-72076527D01*
X127744363Y-72080974D01*
X127951003Y-72159883D01*
X127960901Y-72162759D01*
X128177653Y-72206857D01*
X128187883Y-72208076D01*
X128408914Y-72216182D01*
X128419223Y-72215714D01*
X128638623Y-72187608D01*
X128648688Y-72185468D01*
X128860557Y-72121905D01*
X128870152Y-72118144D01*
X129068778Y-72020838D01*
X129077636Y-72015559D01*
X129135097Y-71974572D01*
X129143497Y-71963874D01*
X129136510Y-71950721D01*
X128362811Y-71177021D01*
X128348868Y-71169408D01*
X128347034Y-71169539D01*
X128340420Y-71173790D01*
X127560180Y-71954031D01*
X127553423Y-71966406D01*
X126539087Y-71966406D01*
X125883770Y-71311089D01*
X125871384Y-71296677D01*
X125862851Y-71285082D01*
X125862846Y-71285077D01*
X125858508Y-71279182D01*
X125852930Y-71274443D01*
X125852927Y-71274440D01*
X125818232Y-71244965D01*
X125810716Y-71238035D01*
X125805021Y-71232340D01*
X125792710Y-71222600D01*
X125782749Y-71214719D01*
X125779345Y-71211928D01*
X125729297Y-71169409D01*
X125729295Y-71169408D01*
X125723715Y-71164667D01*
X125717199Y-71161339D01*
X125712150Y-71157972D01*
X125707021Y-71154805D01*
X125701284Y-71150266D01*
X125635125Y-71119345D01*
X125631225Y-71117439D01*
X125566192Y-71084231D01*
X125559084Y-71082492D01*
X125553441Y-71080393D01*
X125547678Y-71078476D01*
X125541050Y-71075378D01*
X125469583Y-71060513D01*
X125465299Y-71059543D01*
X125394390Y-71042192D01*
X125388788Y-71041844D01*
X125388785Y-71041844D01*
X125383236Y-71041500D01*
X125383238Y-71041464D01*
X125379245Y-71041225D01*
X125375053Y-71040851D01*
X125367885Y-71039360D01*
X125301675Y-71041151D01*
X125290479Y-71041454D01*
X125287072Y-71041500D01*
X124048815Y-71041500D01*
X123980694Y-71021498D01*
X123940362Y-70979639D01*
X123878491Y-70875020D01*
X123878489Y-70875017D01*
X123874453Y-70868193D01*
X123781898Y-70775638D01*
X126937893Y-70775638D01*
X126950627Y-70996468D01*
X126952061Y-71006670D01*
X127000685Y-71222439D01*
X127003773Y-71232292D01*
X127086986Y-71437220D01*
X127091634Y-71446421D01*
X127180097Y-71590781D01*
X127190553Y-71600242D01*
X127199331Y-71596458D01*
X127977979Y-70817811D01*
X127984356Y-70806132D01*
X128714408Y-70806132D01*
X128714539Y-70807966D01*
X128718790Y-70814580D01*
X129496307Y-71592096D01*
X129508313Y-71598652D01*
X129520052Y-71589684D01*
X129558010Y-71536859D01*
X129563321Y-71528020D01*
X129661318Y-71329737D01*
X129665117Y-71320142D01*
X129729415Y-71108517D01*
X129731594Y-71098436D01*
X129760702Y-70877338D01*
X129761221Y-70870663D01*
X129762744Y-70808364D01*
X129762550Y-70801646D01*
X129744279Y-70579400D01*
X129742596Y-70569238D01*
X129688710Y-70354708D01*
X129685389Y-70344953D01*
X129597193Y-70142118D01*
X129592315Y-70133020D01*
X129519224Y-70020038D01*
X129508538Y-70010835D01*
X129498973Y-70015238D01*
X128722021Y-70792189D01*
X128714408Y-70806132D01*
X127984356Y-70806132D01*
X127985592Y-70803868D01*
X127985461Y-70802034D01*
X127981210Y-70795420D01*
X127203862Y-70018073D01*
X127192330Y-70011776D01*
X127180048Y-70021399D01*
X127124467Y-70102877D01*
X127119379Y-70111833D01*
X127026252Y-70312459D01*
X127022689Y-70322146D01*
X126963581Y-70535280D01*
X126961650Y-70545400D01*
X126938145Y-70765349D01*
X126937893Y-70775638D01*
X123781898Y-70775638D01*
X123756807Y-70750547D01*
X123749983Y-70746511D01*
X123749980Y-70746509D01*
X123620427Y-70669892D01*
X123620428Y-70669892D01*
X123613601Y-70665855D01*
X123605990Y-70663644D01*
X123605988Y-70663643D01*
X123553769Y-70648472D01*
X123453831Y-70619438D01*
X123447426Y-70618934D01*
X123447421Y-70618933D01*
X123418958Y-70616693D01*
X123418950Y-70616693D01*
X123416502Y-70616500D01*
X122983498Y-70616500D01*
X122981050Y-70616693D01*
X122981042Y-70616693D01*
X122952579Y-70618933D01*
X122952574Y-70618934D01*
X122946169Y-70619438D01*
X122846231Y-70648472D01*
X122794012Y-70663643D01*
X122794010Y-70663644D01*
X122786399Y-70665855D01*
X122779572Y-70669892D01*
X122779573Y-70669892D01*
X122650020Y-70746509D01*
X122650017Y-70746511D01*
X122643193Y-70750547D01*
X122525547Y-70868193D01*
X122521511Y-70875017D01*
X122521509Y-70875020D01*
X122459638Y-70979639D01*
X122440855Y-71011399D01*
X122438644Y-71019010D01*
X122438643Y-71019012D01*
X122433222Y-71037672D01*
X122394438Y-71171169D01*
X122391500Y-71208498D01*
X122391500Y-72365500D01*
X122371498Y-72433621D01*
X122317842Y-72480114D01*
X122265500Y-72491500D01*
X122033498Y-72491500D01*
X122031050Y-72491693D01*
X122031042Y-72491693D01*
X122002579Y-72493933D01*
X122002574Y-72493934D01*
X121996169Y-72494438D01*
X121896231Y-72523472D01*
X121844012Y-72538643D01*
X121844010Y-72538644D01*
X121836399Y-72540855D01*
X121829572Y-72544892D01*
X121829573Y-72544892D01*
X121700020Y-72621509D01*
X121700017Y-72621511D01*
X121693193Y-72625547D01*
X121575547Y-72743193D01*
X121571511Y-72750017D01*
X121571509Y-72750020D01*
X121518509Y-72839639D01*
X121466617Y-72888092D01*
X121410056Y-72901500D01*
X120864500Y-72901500D01*
X120796379Y-72881498D01*
X120749886Y-72827842D01*
X120738500Y-72775500D01*
X120738500Y-72761866D01*
X120731745Y-72699684D01*
X120680615Y-72563295D01*
X120593261Y-72446739D01*
X120476705Y-72359385D01*
X120340316Y-72308255D01*
X120278134Y-72301500D01*
X118481866Y-72301500D01*
X118419684Y-72308255D01*
X118283295Y-72359385D01*
X118166739Y-72446739D01*
X118079385Y-72563295D01*
X118028255Y-72699684D01*
X118021500Y-72761866D01*
X118021500Y-74558134D01*
X118028255Y-74620316D01*
X118079385Y-74756705D01*
X118166739Y-74873261D01*
X118283295Y-74960615D01*
X118291704Y-74963767D01*
X118291705Y-74963768D01*
X118400451Y-75004535D01*
X118457216Y-75047176D01*
X118481916Y-75113738D01*
X118466709Y-75183087D01*
X118447316Y-75209568D01*
X118325356Y-75337192D01*
X118320629Y-75342138D01*
X118194743Y-75526680D01*
X118100688Y-75729305D01*
X118040989Y-75944570D01*
X118017251Y-76166695D01*
X118017548Y-76171848D01*
X118017548Y-76171851D01*
X118023639Y-76277484D01*
X118030110Y-76389715D01*
X118031247Y-76394761D01*
X118031248Y-76394767D01*
X118042674Y-76445467D01*
X118079222Y-76607639D01*
X118163266Y-76814616D01*
X118165965Y-76819020D01*
X118253327Y-76961582D01*
X118279987Y-77005088D01*
X118426250Y-77173938D01*
X118598126Y-77316632D01*
X118668595Y-77357811D01*
X118671445Y-77359476D01*
X118720169Y-77411114D01*
X118733240Y-77480897D01*
X118706509Y-77546669D01*
X118666055Y-77580027D01*
X118653607Y-77586507D01*
X118649474Y-77589610D01*
X118649471Y-77589612D01*
X118479100Y-77717530D01*
X118474965Y-77720635D01*
X118471393Y-77724373D01*
X118339719Y-77862162D01*
X118320629Y-77882138D01*
X118317715Y-77886410D01*
X118317714Y-77886411D01*
X118270912Y-77955021D01*
X118194743Y-78066680D01*
X118192564Y-78071375D01*
X118115719Y-78236924D01*
X118100688Y-78269305D01*
X118040989Y-78484570D01*
X118017251Y-78706695D01*
X116265986Y-78706695D01*
X117038911Y-77933770D01*
X117053323Y-77921384D01*
X117064918Y-77912851D01*
X117064923Y-77912846D01*
X117070818Y-77908508D01*
X117075557Y-77902930D01*
X117075560Y-77902927D01*
X117105035Y-77868232D01*
X117111965Y-77860716D01*
X117117660Y-77855021D01*
X117135281Y-77832749D01*
X117138072Y-77829345D01*
X117180591Y-77779297D01*
X117180592Y-77779295D01*
X117185333Y-77773715D01*
X117188661Y-77767199D01*
X117192028Y-77762150D01*
X117195195Y-77757021D01*
X117199734Y-77751284D01*
X117230655Y-77685125D01*
X117232561Y-77681225D01*
X117265769Y-77616192D01*
X117267508Y-77609083D01*
X117269604Y-77603449D01*
X117271523Y-77597679D01*
X117274622Y-77591050D01*
X117285494Y-77538785D01*
X117289490Y-77519571D01*
X117290461Y-77515282D01*
X117307808Y-77444390D01*
X117308500Y-77433236D01*
X117308535Y-77433238D01*
X117308775Y-77429266D01*
X117309152Y-77425045D01*
X117310641Y-77417885D01*
X117308546Y-77340458D01*
X117308500Y-77337050D01*
X117308500Y-74608754D01*
X117313503Y-74573602D01*
X117353767Y-74435011D01*
X117353768Y-74435007D01*
X117355562Y-74428831D01*
X117356376Y-74418500D01*
X117358307Y-74393958D01*
X117358307Y-74393950D01*
X117358500Y-74391502D01*
X117358500Y-73083498D01*
X117358307Y-73081042D01*
X117356067Y-73052579D01*
X117356066Y-73052574D01*
X117355562Y-73046169D01*
X117309145Y-72886399D01*
X117278088Y-72833885D01*
X117228491Y-72750020D01*
X117228489Y-72750017D01*
X117224453Y-72743193D01*
X117106807Y-72625547D01*
X117099983Y-72621511D01*
X117099980Y-72621509D01*
X116970427Y-72544892D01*
X116970428Y-72544892D01*
X116963601Y-72540855D01*
X116955990Y-72538644D01*
X116955988Y-72538643D01*
X116903769Y-72523472D01*
X116803831Y-72494438D01*
X116797426Y-72493934D01*
X116797421Y-72493933D01*
X116768958Y-72491693D01*
X116768950Y-72491693D01*
X116766502Y-72491500D01*
X116534500Y-72491500D01*
X116466379Y-72471498D01*
X116419886Y-72417842D01*
X116408500Y-72365500D01*
X116408500Y-71208498D01*
X116405562Y-71171169D01*
X116403768Y-71164993D01*
X116403767Y-71164989D01*
X116363503Y-71026398D01*
X116358500Y-70991246D01*
X116358500Y-70766371D01*
X116378502Y-70698250D01*
X116395405Y-70677276D01*
X117577276Y-69495405D01*
X117639588Y-69461379D01*
X117666371Y-69458500D01*
X127443968Y-69458500D01*
X127512089Y-69478502D01*
X127558582Y-69532158D01*
X127568686Y-69602432D01*
X127555328Y-69634745D01*
X127554667Y-69644174D01*
X127562251Y-69658040D01*
X128337189Y-70432979D01*
X128351132Y-70440592D01*
X128352966Y-70440461D01*
X128359580Y-70436210D01*
X129138994Y-69656795D01*
X129146605Y-69642857D01*
X129145487Y-69627234D01*
X129132813Y-69591864D01*
X129148800Y-69522690D01*
X129199647Y-69473141D01*
X129258598Y-69458500D01*
X132878629Y-69458500D01*
X132946750Y-69478502D01*
X132967724Y-69495405D01*
X133924017Y-70451698D01*
X133958043Y-70514010D01*
X133960209Y-70554182D01*
X133953044Y-70621233D01*
X133937095Y-70770469D01*
X133937392Y-70775622D01*
X133937392Y-70775625D01*
X133950129Y-70996529D01*
X133950427Y-71001697D01*
X133951564Y-71006743D01*
X133951565Y-71006749D01*
X133976511Y-71117439D01*
X134001346Y-71227642D01*
X134003288Y-71232424D01*
X134003289Y-71232428D01*
X134086447Y-71437220D01*
X134088484Y-71442237D01*
X134209501Y-71639719D01*
X134361147Y-71814784D01*
X134469837Y-71905020D01*
X134534264Y-71958508D01*
X134539349Y-71962730D01*
X134739322Y-72079584D01*
X134955694Y-72162209D01*
X134960760Y-72163240D01*
X134960761Y-72163240D01*
X135013846Y-72174040D01*
X135182656Y-72208385D01*
X135313324Y-72213176D01*
X135408949Y-72216683D01*
X135408953Y-72216683D01*
X135414113Y-72216872D01*
X135419233Y-72216216D01*
X135419235Y-72216216D01*
X135492291Y-72206857D01*
X135643847Y-72187442D01*
X135648795Y-72185957D01*
X135648802Y-72185956D01*
X135860747Y-72122369D01*
X135865690Y-72120886D01*
X135947161Y-72080974D01*
X136069049Y-72021262D01*
X136069052Y-72021260D01*
X136073684Y-72018991D01*
X136262243Y-71884494D01*
X136426303Y-71721005D01*
X136561458Y-71532917D01*
X136563879Y-71528020D01*
X136661784Y-71329922D01*
X136661785Y-71329920D01*
X136664078Y-71325280D01*
X136731408Y-71103671D01*
X136761640Y-70874041D01*
X136763327Y-70805000D01*
X136751887Y-70665855D01*
X136744773Y-70579318D01*
X136744772Y-70579312D01*
X136744349Y-70574167D01*
X136710797Y-70440592D01*
X136689184Y-70354544D01*
X136689183Y-70354540D01*
X136687925Y-70349533D01*
X136681088Y-70333808D01*
X136597630Y-70141868D01*
X136597628Y-70141865D01*
X136595570Y-70137131D01*
X136469764Y-69942665D01*
X136449737Y-69920655D01*
X136373752Y-69837149D01*
X136313887Y-69771358D01*
X136309836Y-69768159D01*
X136309832Y-69768155D01*
X136136177Y-69631011D01*
X136136172Y-69631008D01*
X136132123Y-69627810D01*
X136127607Y-69625317D01*
X136127604Y-69625315D01*
X135933879Y-69518373D01*
X135933875Y-69518371D01*
X135929355Y-69515876D01*
X135924486Y-69514152D01*
X135924482Y-69514150D01*
X135715903Y-69440288D01*
X135715899Y-69440287D01*
X135711028Y-69438562D01*
X135705935Y-69437655D01*
X135705932Y-69437654D01*
X135488095Y-69398851D01*
X135488089Y-69398850D01*
X135483006Y-69397945D01*
X135410096Y-69397054D01*
X135256581Y-69395179D01*
X135256579Y-69395179D01*
X135251411Y-69395116D01*
X135107515Y-69417135D01*
X135037152Y-69407667D01*
X134999361Y-69381680D01*
X134291276Y-68673595D01*
X134257250Y-68611283D01*
X134262315Y-68540468D01*
X134304862Y-68483632D01*
X134371382Y-68458821D01*
X134380371Y-68458500D01*
X136633629Y-68458500D01*
X136701750Y-68478502D01*
X136722724Y-68495405D01*
X137604595Y-69377276D01*
X137638621Y-69439588D01*
X137641500Y-69466371D01*
X137641500Y-71033629D01*
X137621498Y-71101750D01*
X137604595Y-71122724D01*
X133717724Y-75009595D01*
X133655412Y-75043621D01*
X133628629Y-75046500D01*
X133105493Y-75046500D01*
X133037372Y-75026498D01*
X132999701Y-74988941D01*
X132996057Y-74983307D01*
X132969764Y-74942665D01*
X132962012Y-74934145D01*
X132879844Y-74843844D01*
X132813887Y-74771358D01*
X132809836Y-74768159D01*
X132809832Y-74768155D01*
X132636177Y-74631011D01*
X132636172Y-74631008D01*
X132632123Y-74627810D01*
X132627607Y-74625317D01*
X132627604Y-74625315D01*
X132433879Y-74518373D01*
X132433875Y-74518371D01*
X132429355Y-74515876D01*
X132424486Y-74514152D01*
X132424482Y-74514150D01*
X132215903Y-74440288D01*
X132215899Y-74440287D01*
X132211028Y-74438562D01*
X132205935Y-74437655D01*
X132205932Y-74437654D01*
X131988095Y-74398851D01*
X131988089Y-74398850D01*
X131983006Y-74397945D01*
X131910096Y-74397054D01*
X131756581Y-74395179D01*
X131756579Y-74395179D01*
X131751411Y-74395116D01*
X131522464Y-74430150D01*
X131302314Y-74502106D01*
X131297726Y-74504494D01*
X131297722Y-74504496D01*
X131136158Y-74588601D01*
X131096872Y-74609052D01*
X131092739Y-74612155D01*
X131092736Y-74612157D01*
X130925907Y-74737416D01*
X130911655Y-74748117D01*
X130751639Y-74915564D01*
X130748725Y-74919836D01*
X130748724Y-74919837D01*
X130733152Y-74942665D01*
X130621119Y-75106899D01*
X130523602Y-75316981D01*
X130461707Y-75540169D01*
X130437095Y-75770469D01*
X130437392Y-75775622D01*
X130437392Y-75775625D01*
X130447133Y-75944570D01*
X130450427Y-76001697D01*
X130451564Y-76006743D01*
X130451565Y-76006749D01*
X130483411Y-76148058D01*
X130501346Y-76227642D01*
X130503288Y-76232424D01*
X130503289Y-76232428D01*
X130565463Y-76385544D01*
X130588484Y-76442237D01*
X130709501Y-76639719D01*
X130861147Y-76814784D01*
X130966292Y-76902077D01*
X131035165Y-76959256D01*
X131039349Y-76962730D01*
X131239322Y-77079584D01*
X131244147Y-77081426D01*
X131244148Y-77081427D01*
X131259101Y-77087137D01*
X131455694Y-77162209D01*
X131460760Y-77163240D01*
X131460761Y-77163240D01*
X131494140Y-77170031D01*
X131682656Y-77208385D01*
X131813324Y-77213176D01*
X131908949Y-77216683D01*
X131908953Y-77216683D01*
X131914113Y-77216872D01*
X131919233Y-77216216D01*
X131919235Y-77216216D01*
X131992270Y-77206860D01*
X132143847Y-77187442D01*
X132148795Y-77185957D01*
X132148802Y-77185956D01*
X132360747Y-77122369D01*
X132365690Y-77120886D01*
X132370324Y-77118616D01*
X132569049Y-77021262D01*
X132569052Y-77021260D01*
X132573684Y-77018991D01*
X132762243Y-76884494D01*
X132926303Y-76721005D01*
X133001777Y-76615973D01*
X133057770Y-76572326D01*
X133104098Y-76563500D01*
X133927930Y-76563500D01*
X133946880Y-76564933D01*
X133961115Y-76567099D01*
X133961119Y-76567099D01*
X133968349Y-76568199D01*
X133975641Y-76567606D01*
X133975644Y-76567606D01*
X134021018Y-76563915D01*
X134031233Y-76563500D01*
X134039293Y-76563500D01*
X134052583Y-76561951D01*
X134067507Y-76560211D01*
X134071882Y-76559778D01*
X134137339Y-76554454D01*
X134137342Y-76554453D01*
X134144637Y-76553860D01*
X134151601Y-76551604D01*
X134157560Y-76550413D01*
X134163415Y-76549029D01*
X134170681Y-76548182D01*
X134239327Y-76523265D01*
X134243455Y-76521848D01*
X134305936Y-76501607D01*
X134305938Y-76501606D01*
X134312899Y-76499351D01*
X134319154Y-76495555D01*
X134324628Y-76493049D01*
X134330058Y-76490330D01*
X134336937Y-76487833D01*
X134365209Y-76469297D01*
X134397976Y-76447814D01*
X134401680Y-76445477D01*
X134464107Y-76407595D01*
X134472484Y-76400197D01*
X134472508Y-76400224D01*
X134475500Y-76397571D01*
X134478733Y-76394868D01*
X134484852Y-76390856D01*
X134538128Y-76334617D01*
X134540506Y-76332175D01*
X138888911Y-71983770D01*
X138903323Y-71971384D01*
X138914918Y-71962851D01*
X138914923Y-71962846D01*
X138920818Y-71958508D01*
X138925557Y-71952930D01*
X138925560Y-71952927D01*
X138955035Y-71918232D01*
X138961965Y-71910716D01*
X138967661Y-71905020D01*
X138968458Y-71904013D01*
X143573542Y-71904013D01*
X143582838Y-71916028D01*
X143639446Y-71955665D01*
X143648941Y-71961148D01*
X143850364Y-72055072D01*
X143860656Y-72058818D01*
X144075328Y-72116339D01*
X144086123Y-72118242D01*
X144307525Y-72137613D01*
X144318475Y-72137613D01*
X144539877Y-72118242D01*
X144550672Y-72116339D01*
X144765344Y-72058818D01*
X144775636Y-72055072D01*
X144977059Y-71961148D01*
X144986554Y-71955665D01*
X145044000Y-71915441D01*
X145052375Y-71904964D01*
X145045307Y-71891517D01*
X144325812Y-71172022D01*
X144311868Y-71164408D01*
X144310035Y-71164539D01*
X144303420Y-71168790D01*
X143579972Y-71892238D01*
X143573542Y-71904013D01*
X138968458Y-71904013D01*
X138969924Y-71902159D01*
X138969929Y-71902154D01*
X138985293Y-71882734D01*
X138988082Y-71879333D01*
X138989743Y-71877378D01*
X139035333Y-71823715D01*
X139038659Y-71817202D01*
X139042020Y-71812163D01*
X139045196Y-71807021D01*
X139049734Y-71801284D01*
X139080655Y-71735125D01*
X139082561Y-71731225D01*
X139089923Y-71716808D01*
X139115769Y-71666192D01*
X139117508Y-71659083D01*
X139119604Y-71653449D01*
X139121523Y-71647679D01*
X139124622Y-71641050D01*
X139133898Y-71596458D01*
X139139490Y-71569571D01*
X139140461Y-71565282D01*
X139146780Y-71539458D01*
X139157808Y-71494390D01*
X139158500Y-71483236D01*
X139158535Y-71483238D01*
X139158775Y-71479266D01*
X139159152Y-71475045D01*
X139160641Y-71467885D01*
X139158546Y-71390458D01*
X139158500Y-71387050D01*
X139158500Y-70805475D01*
X142975387Y-70805475D01*
X142994758Y-71026877D01*
X142996661Y-71037672D01*
X143054182Y-71252344D01*
X143057928Y-71262636D01*
X143151852Y-71464059D01*
X143157335Y-71473554D01*
X143197559Y-71531000D01*
X143208036Y-71539375D01*
X143221483Y-71532307D01*
X143940978Y-70812812D01*
X143947356Y-70801132D01*
X144677408Y-70801132D01*
X144677539Y-70802965D01*
X144681790Y-70809580D01*
X145405238Y-71533028D01*
X145417013Y-71539458D01*
X145429028Y-71530162D01*
X145468665Y-71473554D01*
X145474148Y-71464059D01*
X145568072Y-71262636D01*
X145571818Y-71252344D01*
X145629339Y-71037672D01*
X145631242Y-71026877D01*
X145650613Y-70805475D01*
X145650613Y-70794525D01*
X145631242Y-70573121D01*
X145629339Y-70562328D01*
X145571818Y-70347656D01*
X145568072Y-70337364D01*
X145474148Y-70135941D01*
X145468665Y-70126446D01*
X145428441Y-70069000D01*
X145417964Y-70060625D01*
X145404517Y-70067693D01*
X144685022Y-70787188D01*
X144677408Y-70801132D01*
X143947356Y-70801132D01*
X143948592Y-70798868D01*
X143948461Y-70797035D01*
X143944210Y-70790420D01*
X143220762Y-70066972D01*
X143208987Y-70060542D01*
X143196972Y-70069838D01*
X143157335Y-70126446D01*
X143151852Y-70135941D01*
X143057928Y-70337364D01*
X143054182Y-70347656D01*
X142996661Y-70562328D01*
X142994758Y-70573121D01*
X142975387Y-70794525D01*
X142975387Y-70805475D01*
X139158500Y-70805475D01*
X139158500Y-69695036D01*
X143573625Y-69695036D01*
X143580693Y-69708483D01*
X144300188Y-70427978D01*
X144314132Y-70435592D01*
X144315965Y-70435461D01*
X144322580Y-70431210D01*
X145046028Y-69707762D01*
X145052458Y-69695987D01*
X145043162Y-69683972D01*
X144986554Y-69644335D01*
X144977059Y-69638852D01*
X144775636Y-69544928D01*
X144765344Y-69541182D01*
X144550672Y-69483661D01*
X144539877Y-69481758D01*
X144318475Y-69462387D01*
X144307525Y-69462387D01*
X144086123Y-69481758D01*
X144075328Y-69483661D01*
X143860656Y-69541182D01*
X143850364Y-69544928D01*
X143648941Y-69638852D01*
X143639446Y-69644335D01*
X143582000Y-69684559D01*
X143573625Y-69695036D01*
X139158500Y-69695036D01*
X139158500Y-69167070D01*
X139159933Y-69148120D01*
X139162099Y-69133885D01*
X139162099Y-69133881D01*
X139163199Y-69126651D01*
X139158915Y-69073982D01*
X139158500Y-69063767D01*
X139158500Y-69055707D01*
X139155211Y-69027493D01*
X139154778Y-69023118D01*
X139149454Y-68957661D01*
X139149453Y-68957658D01*
X139148860Y-68950363D01*
X139146604Y-68943399D01*
X139145413Y-68937440D01*
X139144029Y-68931585D01*
X139143182Y-68924319D01*
X139118265Y-68855673D01*
X139116848Y-68851545D01*
X139096607Y-68789064D01*
X139096606Y-68789062D01*
X139094351Y-68782101D01*
X139090555Y-68775846D01*
X139088049Y-68770372D01*
X139085330Y-68764942D01*
X139082833Y-68758063D01*
X139042814Y-68697024D01*
X139040467Y-68693305D01*
X139024512Y-68667012D01*
X139002595Y-68630893D01*
X138995197Y-68622516D01*
X138995224Y-68622492D01*
X138992571Y-68619500D01*
X138989868Y-68616267D01*
X138985856Y-68610148D01*
X138929617Y-68556872D01*
X138927175Y-68554494D01*
X137583770Y-67211089D01*
X137571384Y-67196677D01*
X137562851Y-67185082D01*
X137562846Y-67185077D01*
X137558508Y-67179182D01*
X137552930Y-67174443D01*
X137552927Y-67174440D01*
X137518232Y-67144965D01*
X137510716Y-67138035D01*
X137505021Y-67132340D01*
X137496493Y-67125593D01*
X137482749Y-67114719D01*
X137479345Y-67111928D01*
X137429297Y-67069409D01*
X137429295Y-67069408D01*
X137423715Y-67064667D01*
X137417199Y-67061339D01*
X137412150Y-67057972D01*
X137407021Y-67054805D01*
X137401284Y-67050266D01*
X137335125Y-67019345D01*
X137331225Y-67017439D01*
X137266192Y-66984231D01*
X137259084Y-66982492D01*
X137253441Y-66980393D01*
X137247678Y-66978476D01*
X137241050Y-66975378D01*
X137169583Y-66960513D01*
X137165299Y-66959543D01*
X137130958Y-66951140D01*
X137094390Y-66942192D01*
X137088788Y-66941844D01*
X137088785Y-66941844D01*
X137083236Y-66941500D01*
X137083238Y-66941464D01*
X137079245Y-66941225D01*
X137075053Y-66940851D01*
X137067885Y-66939360D01*
X137004120Y-66941085D01*
X136990479Y-66941454D01*
X136987072Y-66941500D01*
X110967063Y-66941500D01*
X110948114Y-66940067D01*
X110947907Y-66940036D01*
X110926651Y-66936802D01*
X110919359Y-66937395D01*
X110919356Y-66937395D01*
X110873991Y-66941085D01*
X110863777Y-66941500D01*
X110855707Y-66941500D01*
X110852087Y-66941922D01*
X110852069Y-66941923D01*
X110827461Y-66944792D01*
X110823100Y-66945224D01*
X110797981Y-66947267D01*
X110757661Y-66950546D01*
X110757658Y-66950547D01*
X110750363Y-66951140D01*
X110743399Y-66953396D01*
X110737440Y-66954587D01*
X110731585Y-66955971D01*
X110724319Y-66956818D01*
X110655673Y-66981735D01*
X110651545Y-66983152D01*
X110589064Y-67003393D01*
X110589062Y-67003394D01*
X110582101Y-67005649D01*
X110575846Y-67009445D01*
X110570372Y-67011951D01*
X110564942Y-67014670D01*
X110558063Y-67017167D01*
X110497016Y-67057191D01*
X110493327Y-67059518D01*
X110484843Y-67064667D01*
X110435693Y-67094491D01*
X110435688Y-67094495D01*
X110430892Y-67097405D01*
X110422516Y-67104803D01*
X110422493Y-67104777D01*
X110419503Y-67107426D01*
X110416264Y-67110134D01*
X110410148Y-67114144D01*
X110405121Y-67119451D01*
X110405117Y-67119454D01*
X110356872Y-67170383D01*
X110354494Y-67172825D01*
X107511089Y-70016230D01*
X107496677Y-70028616D01*
X107485082Y-70037149D01*
X107485077Y-70037154D01*
X107479182Y-70041492D01*
X107474443Y-70047070D01*
X107474440Y-70047073D01*
X107444965Y-70081768D01*
X107438035Y-70089284D01*
X107432340Y-70094979D01*
X107430060Y-70097861D01*
X107414719Y-70117251D01*
X107411928Y-70120655D01*
X107379394Y-70158950D01*
X107364667Y-70176285D01*
X107361339Y-70182801D01*
X107357972Y-70187850D01*
X107354805Y-70192979D01*
X107350266Y-70198716D01*
X107319345Y-70264875D01*
X107317442Y-70268769D01*
X107284231Y-70333808D01*
X107282492Y-70340916D01*
X107280393Y-70346559D01*
X107278476Y-70352322D01*
X107275378Y-70358950D01*
X107273888Y-70366112D01*
X107273888Y-70366113D01*
X107260514Y-70430412D01*
X107259544Y-70434696D01*
X107242192Y-70505610D01*
X107241500Y-70516764D01*
X107241464Y-70516762D01*
X107241225Y-70520755D01*
X107240851Y-70524947D01*
X107239360Y-70532115D01*
X107239558Y-70539432D01*
X107241454Y-70609521D01*
X107241500Y-70612928D01*
X107241500Y-70991246D01*
X107236497Y-71026398D01*
X107196233Y-71164989D01*
X107196232Y-71164993D01*
X107194438Y-71171169D01*
X107191500Y-71208498D01*
X107191500Y-72365500D01*
X107171498Y-72433621D01*
X107117842Y-72480114D01*
X107065500Y-72491500D01*
X106833498Y-72491500D01*
X106831050Y-72491693D01*
X106831042Y-72491693D01*
X106802579Y-72493933D01*
X106802574Y-72493934D01*
X106796169Y-72494438D01*
X106696231Y-72523472D01*
X106644012Y-72538643D01*
X106644010Y-72538644D01*
X106636399Y-72540855D01*
X106629572Y-72544892D01*
X106629573Y-72544892D01*
X106500020Y-72621509D01*
X106500017Y-72621511D01*
X106493193Y-72625547D01*
X106375547Y-72743193D01*
X106371511Y-72750017D01*
X106371509Y-72750020D01*
X106318509Y-72839639D01*
X106266617Y-72888092D01*
X106210056Y-72901500D01*
X105624500Y-72901500D01*
X105556379Y-72881498D01*
X105509886Y-72827842D01*
X105498500Y-72775500D01*
X105498500Y-72761866D01*
X105491745Y-72699684D01*
X105440615Y-72563295D01*
X105353261Y-72446739D01*
X105236705Y-72359385D01*
X105100316Y-72308255D01*
X105038134Y-72301500D01*
X103241866Y-72301500D01*
X103179684Y-72308255D01*
X103043295Y-72359385D01*
X102926739Y-72446739D01*
X102839385Y-72563295D01*
X102788255Y-72699684D01*
X102781500Y-72761866D01*
X102781500Y-74558134D01*
X102788255Y-74620316D01*
X102839385Y-74756705D01*
X102926739Y-74873261D01*
X103043295Y-74960615D01*
X103051704Y-74963767D01*
X103051705Y-74963768D01*
X103160451Y-75004535D01*
X103217216Y-75047176D01*
X103241916Y-75113738D01*
X103226709Y-75183087D01*
X103207316Y-75209568D01*
X103085356Y-75337192D01*
X103080629Y-75342138D01*
X102954743Y-75526680D01*
X102860688Y-75729305D01*
X102800989Y-75944570D01*
X102777251Y-76166695D01*
X102777548Y-76171848D01*
X102777548Y-76171851D01*
X102783639Y-76277484D01*
X102790110Y-76389715D01*
X102791247Y-76394761D01*
X102791248Y-76394767D01*
X102802674Y-76445467D01*
X102839222Y-76607639D01*
X102923266Y-76814616D01*
X102925965Y-76819020D01*
X103013327Y-76961582D01*
X103039987Y-77005088D01*
X103186250Y-77173938D01*
X103358126Y-77316632D01*
X103428595Y-77357811D01*
X103431445Y-77359476D01*
X103480169Y-77411114D01*
X103493240Y-77480897D01*
X103466509Y-77546669D01*
X103426055Y-77580027D01*
X103413607Y-77586507D01*
X103409474Y-77589610D01*
X103409471Y-77589612D01*
X103239100Y-77717530D01*
X103234965Y-77720635D01*
X103231393Y-77724373D01*
X103099719Y-77862162D01*
X103080629Y-77882138D01*
X103077715Y-77886410D01*
X103077714Y-77886411D01*
X103030912Y-77955021D01*
X102954743Y-78066680D01*
X102952564Y-78071375D01*
X102875719Y-78236924D01*
X102860688Y-78269305D01*
X102800989Y-78484570D01*
X102777251Y-78706695D01*
X101380492Y-78706695D01*
X101377838Y-78704367D01*
X101374412Y-78702078D01*
X101374407Y-78702074D01*
X101135106Y-78542179D01*
X101131673Y-78539885D01*
X101127974Y-78538061D01*
X101127969Y-78538058D01*
X100991687Y-78470852D01*
X100866145Y-78408941D01*
X100862239Y-78407615D01*
X100589710Y-78315104D01*
X100589706Y-78315103D01*
X100585797Y-78313776D01*
X100581753Y-78312972D01*
X100581747Y-78312970D01*
X100299465Y-78256820D01*
X100299459Y-78256819D01*
X100295426Y-78256017D01*
X100291321Y-78255748D01*
X100291314Y-78255747D01*
X100004119Y-78236924D01*
X100000000Y-78236654D01*
X99995881Y-78236924D01*
X99708686Y-78255747D01*
X99708679Y-78255748D01*
X99704574Y-78256017D01*
X99700541Y-78256819D01*
X99700535Y-78256820D01*
X99418253Y-78312970D01*
X99418247Y-78312972D01*
X99414203Y-78313776D01*
X99410294Y-78315103D01*
X99410290Y-78315104D01*
X99137761Y-78407615D01*
X99133855Y-78408941D01*
X99008313Y-78470852D01*
X98872031Y-78538058D01*
X98872026Y-78538061D01*
X98868327Y-78539885D01*
X98864894Y-78542179D01*
X98625593Y-78702074D01*
X98625588Y-78702078D01*
X98622162Y-78704367D01*
X98619068Y-78707081D01*
X98619062Y-78707085D01*
X98402662Y-78896864D01*
X98399573Y-78899573D01*
X98396864Y-78902662D01*
X98229232Y-79093809D01*
X98169278Y-79131836D01*
X98098283Y-79131414D01*
X98038786Y-79092675D01*
X98009678Y-79027920D01*
X98008500Y-79010731D01*
X98008500Y-69989269D01*
X98028502Y-69921148D01*
X98082158Y-69874655D01*
X98152432Y-69864551D01*
X98217012Y-69894045D01*
X98229232Y-69906191D01*
X98399573Y-70100427D01*
X98402662Y-70103136D01*
X98619062Y-70292915D01*
X98619068Y-70292919D01*
X98622162Y-70295633D01*
X98625588Y-70297922D01*
X98625593Y-70297926D01*
X98727643Y-70366113D01*
X98868327Y-70460115D01*
X98872026Y-70461939D01*
X98872031Y-70461942D01*
X98971947Y-70511215D01*
X99133855Y-70591059D01*
X99137760Y-70592384D01*
X99137761Y-70592385D01*
X99410290Y-70684896D01*
X99410294Y-70684897D01*
X99414203Y-70686224D01*
X99418247Y-70687028D01*
X99418253Y-70687030D01*
X99700535Y-70743180D01*
X99700541Y-70743181D01*
X99704574Y-70743983D01*
X99708679Y-70744252D01*
X99708686Y-70744253D01*
X99995881Y-70763076D01*
X100000000Y-70763346D01*
X100004119Y-70763076D01*
X100291314Y-70744253D01*
X100291321Y-70744252D01*
X100295426Y-70743983D01*
X100299459Y-70743181D01*
X100299465Y-70743180D01*
X100581747Y-70687030D01*
X100581753Y-70687028D01*
X100585797Y-70686224D01*
X100589706Y-70684897D01*
X100589710Y-70684896D01*
X100862239Y-70592385D01*
X100862240Y-70592384D01*
X100866145Y-70591059D01*
X101028053Y-70511215D01*
X101127969Y-70461942D01*
X101127974Y-70461939D01*
X101131673Y-70460115D01*
X101272357Y-70366113D01*
X101374407Y-70297926D01*
X101374412Y-70297922D01*
X101377838Y-70295633D01*
X101380932Y-70292919D01*
X101380938Y-70292915D01*
X101597338Y-70103136D01*
X101600427Y-70100427D01*
X101635405Y-70060542D01*
X101792915Y-69880938D01*
X101792919Y-69880932D01*
X101795633Y-69877838D01*
X101804512Y-69864551D01*
X101943329Y-69656795D01*
X101960115Y-69631673D01*
X101963251Y-69625315D01*
X102044095Y-69461379D01*
X102091059Y-69366145D01*
X102161871Y-69157540D01*
X102184896Y-69089710D01*
X102184897Y-69089706D01*
X102186224Y-69085797D01*
X102187030Y-69081747D01*
X102243180Y-68799465D01*
X102243181Y-68799459D01*
X102243983Y-68795426D01*
X102244857Y-68782101D01*
X102263076Y-68504119D01*
X102263346Y-68500000D01*
X102243983Y-68204574D01*
X102186224Y-67914203D01*
X102091059Y-67633855D01*
X101960115Y-67368327D01*
X101850546Y-67204345D01*
X101797926Y-67125593D01*
X101797922Y-67125588D01*
X101795633Y-67122162D01*
X101792919Y-67119068D01*
X101792915Y-67119062D01*
X101603136Y-66902662D01*
X101600427Y-66899573D01*
X101406191Y-66729232D01*
X101368164Y-66669278D01*
X101368586Y-66598283D01*
X101407325Y-66538786D01*
X101472080Y-66509678D01*
X101489269Y-66508500D01*
X151010731Y-66508500D01*
X151078852Y-66528502D01*
G37*
%TD.AperFunction*%
%TD*%
M02*
