%TF.GenerationSoftware,KiCad,Pcbnew,(6.0.8-1)-1*%
%TF.CreationDate,2024-02-23T21:37:45-06:00*%
%TF.ProjectId,RGB LED Interface,52474220-4c45-4442-9049-6e7465726661,rev?*%
%TF.SameCoordinates,Original*%
%TF.FileFunction,Legend,Top*%
%TF.FilePolarity,Positive*%
%FSLAX46Y46*%
G04 Gerber Fmt 4.6, Leading zero omitted, Abs format (unit mm)*
G04 Created by KiCad (PCBNEW (6.0.8-1)-1) date 2024-02-23 21:37:45*
%MOMM*%
%LPD*%
G01*
G04 APERTURE LIST*
%ADD10C,0.150000*%
%ADD11C,0.254000*%
%ADD12C,0.120000*%
%ADD13C,0.100000*%
G04 APERTURE END LIST*
D10*
X135561904Y-81100000D02*
X135466666Y-81052380D01*
X135323809Y-81052380D01*
X135180952Y-81100000D01*
X135085714Y-81195238D01*
X135038095Y-81290476D01*
X134990476Y-81480952D01*
X134990476Y-81623809D01*
X135038095Y-81814285D01*
X135085714Y-81909523D01*
X135180952Y-82004761D01*
X135323809Y-82052380D01*
X135419047Y-82052380D01*
X135561904Y-82004761D01*
X135609523Y-81957142D01*
X135609523Y-81623809D01*
X135419047Y-81623809D01*
X110093333Y-81100000D02*
X109998095Y-81052380D01*
X109855238Y-81052380D01*
X109712380Y-81100000D01*
X109617142Y-81195238D01*
X109569523Y-81290476D01*
X109521904Y-81480952D01*
X109521904Y-81623809D01*
X109569523Y-81814285D01*
X109617142Y-81909523D01*
X109712380Y-82004761D01*
X109855238Y-82052380D01*
X109950476Y-82052380D01*
X110093333Y-82004761D01*
X110140952Y-81957142D01*
X110140952Y-81623809D01*
X109950476Y-81623809D01*
X111140952Y-82052380D02*
X110807619Y-81576190D01*
X110569523Y-82052380D02*
X110569523Y-81052380D01*
X110950476Y-81052380D01*
X111045714Y-81100000D01*
X111093333Y-81147619D01*
X111140952Y-81242857D01*
X111140952Y-81385714D01*
X111093333Y-81480952D01*
X111045714Y-81528571D01*
X110950476Y-81576190D01*
X110569523Y-81576190D01*
X111569523Y-81528571D02*
X111902857Y-81528571D01*
X112045714Y-82052380D02*
X111569523Y-82052380D01*
X111569523Y-81052380D01*
X112045714Y-81052380D01*
X112474285Y-81528571D02*
X112807619Y-81528571D01*
X112950476Y-82052380D02*
X112474285Y-82052380D01*
X112474285Y-81052380D01*
X112950476Y-81052380D01*
X113379047Y-82052380D02*
X113379047Y-81052380D01*
X113950476Y-82052380D01*
X113950476Y-81052380D01*
X132109523Y-82052380D02*
X131776190Y-81576190D01*
X131538095Y-82052380D02*
X131538095Y-81052380D01*
X131919047Y-81052380D01*
X132014285Y-81100000D01*
X132061904Y-81147619D01*
X132109523Y-81242857D01*
X132109523Y-81385714D01*
X132061904Y-81480952D01*
X132014285Y-81528571D01*
X131919047Y-81576190D01*
X131538095Y-81576190D01*
X103497142Y-82052380D02*
X103163809Y-81576190D01*
X102925714Y-82052380D02*
X102925714Y-81052380D01*
X103306666Y-81052380D01*
X103401904Y-81100000D01*
X103449523Y-81147619D01*
X103497142Y-81242857D01*
X103497142Y-81385714D01*
X103449523Y-81480952D01*
X103401904Y-81528571D01*
X103306666Y-81576190D01*
X102925714Y-81576190D01*
X103925714Y-81528571D02*
X104259047Y-81528571D01*
X104401904Y-82052380D02*
X103925714Y-82052380D01*
X103925714Y-81052380D01*
X104401904Y-81052380D01*
X104830476Y-82052380D02*
X104830476Y-81052380D01*
X105068571Y-81052380D01*
X105211428Y-81100000D01*
X105306666Y-81195238D01*
X105354285Y-81290476D01*
X105401904Y-81480952D01*
X105401904Y-81623809D01*
X105354285Y-81814285D01*
X105306666Y-81909523D01*
X105211428Y-82004761D01*
X105068571Y-82052380D01*
X104830476Y-82052380D01*
X146947619Y-81052380D02*
X147280952Y-82052380D01*
X147614285Y-81052380D01*
X147947619Y-81671428D02*
X148709523Y-81671428D01*
X104590476Y-68428333D02*
X104542857Y-68380714D01*
X104447619Y-68237857D01*
X104400000Y-68142619D01*
X104352380Y-67999761D01*
X104304761Y-67761666D01*
X104304761Y-67571190D01*
X104352380Y-67333095D01*
X104400000Y-67190238D01*
X104447619Y-67095000D01*
X104542857Y-66952142D01*
X104590476Y-66904523D01*
X105400000Y-67999761D02*
X105304761Y-68047380D01*
X105114285Y-68047380D01*
X105019047Y-67999761D01*
X104971428Y-67952142D01*
X104923809Y-67856904D01*
X104923809Y-67571190D01*
X104971428Y-67475952D01*
X105019047Y-67428333D01*
X105114285Y-67380714D01*
X105304761Y-67380714D01*
X105400000Y-67428333D01*
X105733333Y-68428333D02*
X105780952Y-68380714D01*
X105876190Y-68237857D01*
X105923809Y-68142619D01*
X105971428Y-67999761D01*
X106019047Y-67761666D01*
X106019047Y-67571190D01*
X105971428Y-67333095D01*
X105923809Y-67190238D01*
X105876190Y-67095000D01*
X105780952Y-66952142D01*
X105733333Y-66904523D01*
X107209523Y-67142619D02*
X107257142Y-67095000D01*
X107352380Y-67047380D01*
X107590476Y-67047380D01*
X107685714Y-67095000D01*
X107733333Y-67142619D01*
X107780952Y-67237857D01*
X107780952Y-67333095D01*
X107733333Y-67475952D01*
X107161904Y-68047380D01*
X107780952Y-68047380D01*
X108400000Y-67047380D02*
X108495238Y-67047380D01*
X108590476Y-67095000D01*
X108638095Y-67142619D01*
X108685714Y-67237857D01*
X108733333Y-67428333D01*
X108733333Y-67666428D01*
X108685714Y-67856904D01*
X108638095Y-67952142D01*
X108590476Y-67999761D01*
X108495238Y-68047380D01*
X108400000Y-68047380D01*
X108304761Y-67999761D01*
X108257142Y-67952142D01*
X108209523Y-67856904D01*
X108161904Y-67666428D01*
X108161904Y-67428333D01*
X108209523Y-67237857D01*
X108257142Y-67142619D01*
X108304761Y-67095000D01*
X108400000Y-67047380D01*
X109114285Y-67142619D02*
X109161904Y-67095000D01*
X109257142Y-67047380D01*
X109495238Y-67047380D01*
X109590476Y-67095000D01*
X109638095Y-67142619D01*
X109685714Y-67237857D01*
X109685714Y-67333095D01*
X109638095Y-67475952D01*
X109066666Y-68047380D01*
X109685714Y-68047380D01*
X110542857Y-67380714D02*
X110542857Y-68047380D01*
X110304761Y-66999761D02*
X110066666Y-67714047D01*
X110685714Y-67714047D01*
X111780952Y-67999761D02*
X111923809Y-68047380D01*
X112161904Y-68047380D01*
X112257142Y-67999761D01*
X112304761Y-67952142D01*
X112352380Y-67856904D01*
X112352380Y-67761666D01*
X112304761Y-67666428D01*
X112257142Y-67618809D01*
X112161904Y-67571190D01*
X111971428Y-67523571D01*
X111876190Y-67475952D01*
X111828571Y-67428333D01*
X111780952Y-67333095D01*
X111780952Y-67237857D01*
X111828571Y-67142619D01*
X111876190Y-67095000D01*
X111971428Y-67047380D01*
X112209523Y-67047380D01*
X112352380Y-67095000D01*
X112780952Y-68047380D02*
X112780952Y-67047380D01*
X112780952Y-67523571D02*
X113352380Y-67523571D01*
X113352380Y-68047380D02*
X113352380Y-67047380D01*
X114400000Y-68047380D02*
X114066666Y-67571190D01*
X113828571Y-68047380D02*
X113828571Y-67047380D01*
X114209523Y-67047380D01*
X114304761Y-67095000D01*
X114352380Y-67142619D01*
X114400000Y-67237857D01*
X114400000Y-67380714D01*
X114352380Y-67475952D01*
X114304761Y-67523571D01*
X114209523Y-67571190D01*
X113828571Y-67571190D01*
X114828571Y-68047380D02*
X114828571Y-67047380D01*
X115161904Y-67761666D01*
X115495238Y-67047380D01*
X115495238Y-68047380D01*
X102709523Y-69371666D02*
X103185714Y-69371666D01*
X102614285Y-69657380D02*
X102947619Y-68657380D01*
X103280952Y-69657380D01*
X103757142Y-69657380D02*
X103661904Y-69609761D01*
X103614285Y-69514523D01*
X103614285Y-68657380D01*
X104280952Y-69657380D02*
X104185714Y-69609761D01*
X104138095Y-69514523D01*
X104138095Y-68657380D01*
X105995238Y-69657380D02*
X105661904Y-69181190D01*
X105423809Y-69657380D02*
X105423809Y-68657380D01*
X105804761Y-68657380D01*
X105900000Y-68705000D01*
X105947619Y-68752619D01*
X105995238Y-68847857D01*
X105995238Y-68990714D01*
X105947619Y-69085952D01*
X105900000Y-69133571D01*
X105804761Y-69181190D01*
X105423809Y-69181190D01*
X106423809Y-69657380D02*
X106423809Y-68990714D01*
X106423809Y-68657380D02*
X106376190Y-68705000D01*
X106423809Y-68752619D01*
X106471428Y-68705000D01*
X106423809Y-68657380D01*
X106423809Y-68752619D01*
X107328571Y-68990714D02*
X107328571Y-69800238D01*
X107280952Y-69895476D01*
X107233333Y-69943095D01*
X107138095Y-69990714D01*
X106995238Y-69990714D01*
X106900000Y-69943095D01*
X107328571Y-69609761D02*
X107233333Y-69657380D01*
X107042857Y-69657380D01*
X106947619Y-69609761D01*
X106900000Y-69562142D01*
X106852380Y-69466904D01*
X106852380Y-69181190D01*
X106900000Y-69085952D01*
X106947619Y-69038333D01*
X107042857Y-68990714D01*
X107233333Y-68990714D01*
X107328571Y-69038333D01*
X107804761Y-69657380D02*
X107804761Y-68657380D01*
X108233333Y-69657380D02*
X108233333Y-69133571D01*
X108185714Y-69038333D01*
X108090476Y-68990714D01*
X107947619Y-68990714D01*
X107852380Y-69038333D01*
X107804761Y-69085952D01*
X108566666Y-68990714D02*
X108947619Y-68990714D01*
X108709523Y-68657380D02*
X108709523Y-69514523D01*
X108757142Y-69609761D01*
X108852380Y-69657380D01*
X108947619Y-69657380D01*
X109233333Y-69609761D02*
X109328571Y-69657380D01*
X109519047Y-69657380D01*
X109614285Y-69609761D01*
X109661904Y-69514523D01*
X109661904Y-69466904D01*
X109614285Y-69371666D01*
X109519047Y-69324047D01*
X109376190Y-69324047D01*
X109280952Y-69276428D01*
X109233333Y-69181190D01*
X109233333Y-69133571D01*
X109280952Y-69038333D01*
X109376190Y-68990714D01*
X109519047Y-68990714D01*
X109614285Y-69038333D01*
X111423809Y-69657380D02*
X111090476Y-69181190D01*
X110852380Y-69657380D02*
X110852380Y-68657380D01*
X111233333Y-68657380D01*
X111328571Y-68705000D01*
X111376190Y-68752619D01*
X111423809Y-68847857D01*
X111423809Y-68990714D01*
X111376190Y-69085952D01*
X111328571Y-69133571D01*
X111233333Y-69181190D01*
X110852380Y-69181190D01*
X112233333Y-69609761D02*
X112138095Y-69657380D01*
X111947619Y-69657380D01*
X111852380Y-69609761D01*
X111804761Y-69514523D01*
X111804761Y-69133571D01*
X111852380Y-69038333D01*
X111947619Y-68990714D01*
X112138095Y-68990714D01*
X112233333Y-69038333D01*
X112280952Y-69133571D01*
X112280952Y-69228809D01*
X111804761Y-69324047D01*
X112661904Y-69609761D02*
X112757142Y-69657380D01*
X112947619Y-69657380D01*
X113042857Y-69609761D01*
X113090476Y-69514523D01*
X113090476Y-69466904D01*
X113042857Y-69371666D01*
X112947619Y-69324047D01*
X112804761Y-69324047D01*
X112709523Y-69276428D01*
X112661904Y-69181190D01*
X112661904Y-69133571D01*
X112709523Y-69038333D01*
X112804761Y-68990714D01*
X112947619Y-68990714D01*
X113042857Y-69038333D01*
X113900000Y-69609761D02*
X113804761Y-69657380D01*
X113614285Y-69657380D01*
X113519047Y-69609761D01*
X113471428Y-69514523D01*
X113471428Y-69133571D01*
X113519047Y-69038333D01*
X113614285Y-68990714D01*
X113804761Y-68990714D01*
X113900000Y-69038333D01*
X113947619Y-69133571D01*
X113947619Y-69228809D01*
X113471428Y-69324047D01*
X114376190Y-69657380D02*
X114376190Y-68990714D01*
X114376190Y-69181190D02*
X114423809Y-69085952D01*
X114471428Y-69038333D01*
X114566666Y-68990714D01*
X114661904Y-68990714D01*
X114900000Y-68990714D02*
X115138095Y-69657380D01*
X115376190Y-68990714D01*
X116138095Y-69609761D02*
X116042857Y-69657380D01*
X115852380Y-69657380D01*
X115757142Y-69609761D01*
X115709523Y-69514523D01*
X115709523Y-69133571D01*
X115757142Y-69038333D01*
X115852380Y-68990714D01*
X116042857Y-68990714D01*
X116138095Y-69038333D01*
X116185714Y-69133571D01*
X116185714Y-69228809D01*
X115709523Y-69324047D01*
X117042857Y-69657380D02*
X117042857Y-68657380D01*
X117042857Y-69609761D02*
X116947619Y-69657380D01*
X116757142Y-69657380D01*
X116661904Y-69609761D01*
X116614285Y-69562142D01*
X116566666Y-69466904D01*
X116566666Y-69181190D01*
X116614285Y-69085952D01*
X116661904Y-69038333D01*
X116757142Y-68990714D01*
X116947619Y-68990714D01*
X117042857Y-69038333D01*
X143386819Y-81052380D02*
X143720152Y-82052380D01*
X144053485Y-81052380D01*
X144386819Y-81671428D02*
X145148723Y-81671428D01*
X144767771Y-82052380D02*
X144767771Y-81290476D01*
X127347619Y-81052380D02*
X127680952Y-82052380D01*
X128014285Y-81052380D01*
X128347619Y-81671428D02*
X129109523Y-81671428D01*
X128728571Y-82052380D02*
X128728571Y-81290476D01*
X138871428Y-81528571D02*
X139014285Y-81576190D01*
X139061904Y-81623809D01*
X139109523Y-81719047D01*
X139109523Y-81861904D01*
X139061904Y-81957142D01*
X139014285Y-82004761D01*
X138919047Y-82052380D01*
X138538095Y-82052380D01*
X138538095Y-81052380D01*
X138871428Y-81052380D01*
X138966666Y-81100000D01*
X139014285Y-81147619D01*
X139061904Y-81242857D01*
X139061904Y-81338095D01*
X139014285Y-81433333D01*
X138966666Y-81480952D01*
X138871428Y-81528571D01*
X138538095Y-81528571D01*
X118070476Y-81528571D02*
X118213333Y-81576190D01*
X118260952Y-81623809D01*
X118308571Y-81719047D01*
X118308571Y-81861904D01*
X118260952Y-81957142D01*
X118213333Y-82004761D01*
X118118095Y-82052380D01*
X117737142Y-82052380D01*
X117737142Y-81052380D01*
X118070476Y-81052380D01*
X118165714Y-81100000D01*
X118213333Y-81147619D01*
X118260952Y-81242857D01*
X118260952Y-81338095D01*
X118213333Y-81433333D01*
X118165714Y-81480952D01*
X118070476Y-81528571D01*
X117737142Y-81528571D01*
X119213333Y-82052380D02*
X118737142Y-82052380D01*
X118737142Y-81052380D01*
X119546666Y-81052380D02*
X119546666Y-81861904D01*
X119594285Y-81957142D01*
X119641904Y-82004761D01*
X119737142Y-82052380D01*
X119927619Y-82052380D01*
X120022857Y-82004761D01*
X120070476Y-81957142D01*
X120118095Y-81861904D01*
X120118095Y-81052380D01*
X120594285Y-81528571D02*
X120927619Y-81528571D01*
X121070476Y-82052380D02*
X120594285Y-82052380D01*
X120594285Y-81052380D01*
X121070476Y-81052380D01*
%TO.C,X1*%
X123490476Y-80052380D02*
X124157142Y-81052380D01*
X124157142Y-80052380D02*
X123490476Y-81052380D01*
X125061904Y-81052380D02*
X124490476Y-81052380D01*
X124776190Y-81052380D02*
X124776190Y-80052380D01*
X124680952Y-80195238D01*
X124585714Y-80290476D01*
X124490476Y-80338095D01*
%TO.C,J1*%
X103806666Y-70782380D02*
X103806666Y-71496666D01*
X103759047Y-71639523D01*
X103663809Y-71734761D01*
X103520952Y-71782380D01*
X103425714Y-71782380D01*
X104806666Y-71782380D02*
X104235238Y-71782380D01*
X104520952Y-71782380D02*
X104520952Y-70782380D01*
X104425714Y-70925238D01*
X104330476Y-71020476D01*
X104235238Y-71068095D01*
%TO.C,J2*%
X111426666Y-70782380D02*
X111426666Y-71496666D01*
X111379047Y-71639523D01*
X111283809Y-71734761D01*
X111140952Y-71782380D01*
X111045714Y-71782380D01*
X111855238Y-70877619D02*
X111902857Y-70830000D01*
X111998095Y-70782380D01*
X112236190Y-70782380D01*
X112331428Y-70830000D01*
X112379047Y-70877619D01*
X112426666Y-70972857D01*
X112426666Y-71068095D01*
X112379047Y-71210952D01*
X111807619Y-71782380D01*
X112426666Y-71782380D01*
%TO.C,J3*%
X119046666Y-70782380D02*
X119046666Y-71496666D01*
X118999047Y-71639523D01*
X118903809Y-71734761D01*
X118760952Y-71782380D01*
X118665714Y-71782380D01*
X119427619Y-70782380D02*
X120046666Y-70782380D01*
X119713333Y-71163333D01*
X119856190Y-71163333D01*
X119951428Y-71210952D01*
X119999047Y-71258571D01*
X120046666Y-71353809D01*
X120046666Y-71591904D01*
X119999047Y-71687142D01*
X119951428Y-71734761D01*
X119856190Y-71782380D01*
X119570476Y-71782380D01*
X119475238Y-71734761D01*
X119427619Y-71687142D01*
D11*
%TO.C,J4*%
X150676666Y-76504523D02*
X150676666Y-77411666D01*
X150616190Y-77593095D01*
X150495238Y-77714047D01*
X150313809Y-77774523D01*
X150192857Y-77774523D01*
X151825714Y-76927857D02*
X151825714Y-77774523D01*
X151523333Y-76444047D02*
X151220952Y-77351190D01*
X152007142Y-77351190D01*
D10*
%TO.C,Q3*%
X123104761Y-76047619D02*
X123009523Y-76000000D01*
X122914285Y-75904761D01*
X122771428Y-75761904D01*
X122676190Y-75714285D01*
X122580952Y-75714285D01*
X122628571Y-75952380D02*
X122533333Y-75904761D01*
X122438095Y-75809523D01*
X122390476Y-75619047D01*
X122390476Y-75285714D01*
X122438095Y-75095238D01*
X122533333Y-75000000D01*
X122628571Y-74952380D01*
X122819047Y-74952380D01*
X122914285Y-75000000D01*
X123009523Y-75095238D01*
X123057142Y-75285714D01*
X123057142Y-75619047D01*
X123009523Y-75809523D01*
X122914285Y-75904761D01*
X122819047Y-75952380D01*
X122628571Y-75952380D01*
X123390476Y-74952380D02*
X124009523Y-74952380D01*
X123676190Y-75333333D01*
X123819047Y-75333333D01*
X123914285Y-75380952D01*
X123961904Y-75428571D01*
X124009523Y-75523809D01*
X124009523Y-75761904D01*
X123961904Y-75857142D01*
X123914285Y-75904761D01*
X123819047Y-75952380D01*
X123533333Y-75952380D01*
X123438095Y-75904761D01*
X123390476Y-75857142D01*
%TO.C,Q2*%
X115504761Y-76047619D02*
X115409523Y-76000000D01*
X115314285Y-75904761D01*
X115171428Y-75761904D01*
X115076190Y-75714285D01*
X114980952Y-75714285D01*
X115028571Y-75952380D02*
X114933333Y-75904761D01*
X114838095Y-75809523D01*
X114790476Y-75619047D01*
X114790476Y-75285714D01*
X114838095Y-75095238D01*
X114933333Y-75000000D01*
X115028571Y-74952380D01*
X115219047Y-74952380D01*
X115314285Y-75000000D01*
X115409523Y-75095238D01*
X115457142Y-75285714D01*
X115457142Y-75619047D01*
X115409523Y-75809523D01*
X115314285Y-75904761D01*
X115219047Y-75952380D01*
X115028571Y-75952380D01*
X115838095Y-75047619D02*
X115885714Y-75000000D01*
X115980952Y-74952380D01*
X116219047Y-74952380D01*
X116314285Y-75000000D01*
X116361904Y-75047619D01*
X116409523Y-75142857D01*
X116409523Y-75238095D01*
X116361904Y-75380952D01*
X115790476Y-75952380D01*
X116409523Y-75952380D01*
%TO.C,Q1*%
X108004761Y-76047619D02*
X107909523Y-76000000D01*
X107814285Y-75904761D01*
X107671428Y-75761904D01*
X107576190Y-75714285D01*
X107480952Y-75714285D01*
X107528571Y-75952380D02*
X107433333Y-75904761D01*
X107338095Y-75809523D01*
X107290476Y-75619047D01*
X107290476Y-75285714D01*
X107338095Y-75095238D01*
X107433333Y-75000000D01*
X107528571Y-74952380D01*
X107719047Y-74952380D01*
X107814285Y-75000000D01*
X107909523Y-75095238D01*
X107957142Y-75285714D01*
X107957142Y-75619047D01*
X107909523Y-75809523D01*
X107814285Y-75904761D01*
X107719047Y-75952380D01*
X107528571Y-75952380D01*
X108909523Y-75952380D02*
X108338095Y-75952380D01*
X108623809Y-75952380D02*
X108623809Y-74952380D01*
X108528571Y-75095238D01*
X108433333Y-75190476D01*
X108338095Y-75238095D01*
D12*
%TO.C,X1*%
X125200000Y-80505000D02*
X140600000Y-80505000D01*
X140600000Y-80505000D02*
X140600000Y-68505000D01*
X140600000Y-68505000D02*
X125200000Y-68505000D01*
X125200000Y-68505000D02*
X125200000Y-80505000D01*
%TO.C,J1*%
X102810000Y-74930000D02*
X105470000Y-74930000D01*
X102810000Y-72330000D02*
X104140000Y-72330000D01*
X102810000Y-80070000D02*
X105470000Y-80070000D01*
X102810000Y-74930000D02*
X102810000Y-80070000D01*
X105470000Y-74930000D02*
X105470000Y-80070000D01*
X102810000Y-73660000D02*
X102810000Y-72330000D01*
%TO.C,J2*%
X113090000Y-74930000D02*
X113090000Y-80070000D01*
X110430000Y-73660000D02*
X110430000Y-72330000D01*
X110430000Y-80070000D02*
X113090000Y-80070000D01*
X110430000Y-74930000D02*
X113090000Y-74930000D01*
X110430000Y-74930000D02*
X110430000Y-80070000D01*
X110430000Y-72330000D02*
X111760000Y-72330000D01*
%TO.C,J3*%
X118050000Y-72330000D02*
X119380000Y-72330000D01*
X118050000Y-73660000D02*
X118050000Y-72330000D01*
X120710000Y-74930000D02*
X120710000Y-80070000D01*
X118050000Y-80070000D02*
X120710000Y-80070000D01*
X118050000Y-74930000D02*
X118050000Y-80070000D01*
X118050000Y-74930000D02*
X120710000Y-74930000D01*
D13*
%TO.C,J4*%
X140955000Y-68500000D02*
X140955000Y-80500000D01*
X149845000Y-68500000D02*
X140955000Y-68500000D01*
X149845000Y-80500000D02*
X149845000Y-68500000D01*
X140955000Y-80500000D02*
X149845000Y-80500000D01*
D12*
%TO.C,Q3*%
X124760000Y-72800000D02*
X124760000Y-73450000D01*
X121640000Y-72800000D02*
X121640000Y-72150000D01*
X124760000Y-72800000D02*
X124760000Y-72150000D01*
X121640000Y-72800000D02*
X121640000Y-74475000D01*
%TO.C,Q2*%
X114040000Y-72800000D02*
X114040000Y-74475000D01*
X117160000Y-72800000D02*
X117160000Y-73450000D01*
X114040000Y-72800000D02*
X114040000Y-72150000D01*
X117160000Y-72800000D02*
X117160000Y-72150000D01*
%TO.C,Q1*%
X109560000Y-72800000D02*
X109560000Y-73450000D01*
X106440000Y-72800000D02*
X106440000Y-74475000D01*
X109560000Y-72800000D02*
X109560000Y-72150000D01*
X106440000Y-72800000D02*
X106440000Y-72150000D01*
%TD*%
M02*
