%TF.GenerationSoftware,KiCad,Pcbnew,(6.0.8-1)-1*%
%TF.CreationDate,2024-02-23T21:37:50-06:00*%
%TF.ProjectId,RGB LED Interface,52474220-4c45-4442-9049-6e7465726661,rev?*%
%TF.SameCoordinates,Original*%
%TF.FileFunction,Drillmap*%
%TF.FilePolarity,Positive*%
%FSLAX45Y45*%
G04 Gerber Fmt 4.5, Leading zero omitted, Abs format (unit mm)*
G04 Created by KiCad (PCBNEW (6.0.8-1)-1) date 2024-02-23 21:37:50*
%MOMM*%
%LPD*%
G01*
G04 APERTURE LIST*
%ADD10C,0.100000*%
%ADD11C,0.200000*%
%ADD12C,0.110000*%
%ADD13C,0.220000*%
G04 APERTURE END LIST*
D10*
X15500000Y-8300000D02*
X9750000Y-8300000D01*
X9750000Y-8300000D02*
X9750000Y-6600000D01*
X9750000Y-6600000D02*
X15500000Y-6600000D01*
X15500000Y-6600000D02*
X15500000Y-8300000D01*
D11*
D10*
X10364000Y-7316000D02*
X10464000Y-7416000D01*
X10464000Y-7316000D02*
X10364000Y-7416000D01*
X10364000Y-7570000D02*
X10464000Y-7670000D01*
X10464000Y-7570000D02*
X10364000Y-7670000D01*
X10364000Y-7824000D02*
X10464000Y-7924000D01*
X10464000Y-7824000D02*
X10364000Y-7924000D01*
X11126000Y-7316000D02*
X11226000Y-7416000D01*
X11226000Y-7316000D02*
X11126000Y-7416000D01*
X11126000Y-7570000D02*
X11226000Y-7670000D01*
X11226000Y-7570000D02*
X11126000Y-7670000D01*
X11126000Y-7824000D02*
X11226000Y-7924000D01*
X11226000Y-7824000D02*
X11126000Y-7924000D01*
X11888000Y-7316000D02*
X11988000Y-7416000D01*
X11988000Y-7316000D02*
X11888000Y-7416000D01*
X11888000Y-7570000D02*
X11988000Y-7670000D01*
X11988000Y-7570000D02*
X11888000Y-7670000D01*
X11888000Y-7824000D02*
X11988000Y-7924000D01*
X11988000Y-7824000D02*
X11888000Y-7924000D01*
X12785000Y-7030500D02*
X12885000Y-7130500D01*
X12885000Y-7030500D02*
X12785000Y-7130500D01*
X13135000Y-7530500D02*
X13235000Y-7630500D01*
X13235000Y-7530500D02*
X13135000Y-7630500D01*
X13485000Y-7030500D02*
X13585000Y-7130500D01*
X13585000Y-7030500D02*
X13485000Y-7130500D01*
X13835000Y-7530500D02*
X13935000Y-7630500D01*
X13935000Y-7530500D02*
X13835000Y-7630500D01*
D12*
X14486300Y-7080000D02*
G75*
G03*
X14486300Y-7080000I-55000J0D01*
G01*
X14836300Y-7580000D02*
G75*
G03*
X14836300Y-7580000I-55000J0D01*
G01*
D13*
X10000000Y-6740000D02*
X10000000Y-6960000D01*
X9890000Y-6850000D02*
X10110000Y-6850000D01*
X10000000Y-7940000D02*
X10000000Y-8160000D01*
X9890000Y-8050000D02*
X10110000Y-8050000D01*
X15250000Y-6740000D02*
X15250000Y-6960000D01*
X15140000Y-6850000D02*
X15360000Y-6850000D01*
X15250000Y-7940000D02*
X15250000Y-8160000D01*
X15140000Y-8050000D02*
X15360000Y-8050000D01*
D11*
X10002619Y-8615476D02*
X10002619Y-8415476D01*
X10050238Y-8415476D01*
X10078810Y-8425000D01*
X10097857Y-8444048D01*
X10107381Y-8463095D01*
X10116905Y-8501190D01*
X10116905Y-8529762D01*
X10107381Y-8567857D01*
X10097857Y-8586905D01*
X10078810Y-8605952D01*
X10050238Y-8615476D01*
X10002619Y-8615476D01*
X10202619Y-8615476D02*
X10202619Y-8482143D01*
X10202619Y-8520238D02*
X10212143Y-8501190D01*
X10221667Y-8491667D01*
X10240714Y-8482143D01*
X10259762Y-8482143D01*
X10326429Y-8615476D02*
X10326429Y-8482143D01*
X10326429Y-8415476D02*
X10316905Y-8425000D01*
X10326429Y-8434524D01*
X10335952Y-8425000D01*
X10326429Y-8415476D01*
X10326429Y-8434524D01*
X10450238Y-8615476D02*
X10431190Y-8605952D01*
X10421667Y-8586905D01*
X10421667Y-8415476D01*
X10555000Y-8615476D02*
X10535952Y-8605952D01*
X10526429Y-8586905D01*
X10526429Y-8415476D01*
X10783571Y-8615476D02*
X10783571Y-8415476D01*
X10850238Y-8558333D01*
X10916905Y-8415476D01*
X10916905Y-8615476D01*
X11097857Y-8615476D02*
X11097857Y-8510714D01*
X11088333Y-8491667D01*
X11069286Y-8482143D01*
X11031190Y-8482143D01*
X11012143Y-8491667D01*
X11097857Y-8605952D02*
X11078810Y-8615476D01*
X11031190Y-8615476D01*
X11012143Y-8605952D01*
X11002619Y-8586905D01*
X11002619Y-8567857D01*
X11012143Y-8548810D01*
X11031190Y-8539286D01*
X11078810Y-8539286D01*
X11097857Y-8529762D01*
X11193095Y-8482143D02*
X11193095Y-8682143D01*
X11193095Y-8491667D02*
X11212143Y-8482143D01*
X11250238Y-8482143D01*
X11269286Y-8491667D01*
X11278809Y-8501190D01*
X11288333Y-8520238D01*
X11288333Y-8577381D01*
X11278809Y-8596429D01*
X11269286Y-8605952D01*
X11250238Y-8615476D01*
X11212143Y-8615476D01*
X11193095Y-8605952D01*
X11374048Y-8596429D02*
X11383571Y-8605952D01*
X11374048Y-8615476D01*
X11364524Y-8605952D01*
X11374048Y-8596429D01*
X11374048Y-8615476D01*
X11374048Y-8491667D02*
X11383571Y-8501190D01*
X11374048Y-8510714D01*
X11364524Y-8501190D01*
X11374048Y-8491667D01*
X11374048Y-8510714D01*
D10*
X9645000Y-8895000D02*
X9745000Y-8995000D01*
X9745000Y-8895000D02*
X9645000Y-8995000D01*
D11*
X10107381Y-9035476D02*
X9993095Y-9035476D01*
X10050238Y-9035476D02*
X10050238Y-8835476D01*
X10031190Y-8864048D01*
X10012143Y-8883095D01*
X9993095Y-8892619D01*
X10193095Y-9016429D02*
X10202619Y-9025952D01*
X10193095Y-9035476D01*
X10183571Y-9025952D01*
X10193095Y-9016429D01*
X10193095Y-9035476D01*
X10326429Y-8835476D02*
X10345476Y-8835476D01*
X10364524Y-8845000D01*
X10374048Y-8854524D01*
X10383571Y-8873571D01*
X10393095Y-8911667D01*
X10393095Y-8959286D01*
X10383571Y-8997381D01*
X10374048Y-9016429D01*
X10364524Y-9025952D01*
X10345476Y-9035476D01*
X10326429Y-9035476D01*
X10307381Y-9025952D01*
X10297857Y-9016429D01*
X10288333Y-8997381D01*
X10278810Y-8959286D01*
X10278810Y-8911667D01*
X10288333Y-8873571D01*
X10297857Y-8854524D01*
X10307381Y-8845000D01*
X10326429Y-8835476D01*
X10516905Y-8835476D02*
X10535952Y-8835476D01*
X10555000Y-8845000D01*
X10564524Y-8854524D01*
X10574048Y-8873571D01*
X10583571Y-8911667D01*
X10583571Y-8959286D01*
X10574048Y-8997381D01*
X10564524Y-9016429D01*
X10555000Y-9025952D01*
X10535952Y-9035476D01*
X10516905Y-9035476D01*
X10497857Y-9025952D01*
X10488333Y-9016429D01*
X10478810Y-8997381D01*
X10469286Y-8959286D01*
X10469286Y-8911667D01*
X10478810Y-8873571D01*
X10488333Y-8854524D01*
X10497857Y-8845000D01*
X10516905Y-8835476D01*
X10707381Y-8835476D02*
X10726429Y-8835476D01*
X10745476Y-8845000D01*
X10755000Y-8854524D01*
X10764524Y-8873571D01*
X10774048Y-8911667D01*
X10774048Y-8959286D01*
X10764524Y-8997381D01*
X10755000Y-9016429D01*
X10745476Y-9025952D01*
X10726429Y-9035476D01*
X10707381Y-9035476D01*
X10688333Y-9025952D01*
X10678810Y-9016429D01*
X10669286Y-8997381D01*
X10659762Y-8959286D01*
X10659762Y-8911667D01*
X10669286Y-8873571D01*
X10678810Y-8854524D01*
X10688333Y-8845000D01*
X10707381Y-8835476D01*
X10859762Y-9035476D02*
X10859762Y-8902143D01*
X10859762Y-8921190D02*
X10869286Y-8911667D01*
X10888333Y-8902143D01*
X10916905Y-8902143D01*
X10935952Y-8911667D01*
X10945476Y-8930714D01*
X10945476Y-9035476D01*
X10945476Y-8930714D02*
X10955000Y-8911667D01*
X10974048Y-8902143D01*
X11002619Y-8902143D01*
X11021667Y-8911667D01*
X11031190Y-8930714D01*
X11031190Y-9035476D01*
X11126429Y-9035476D02*
X11126429Y-8902143D01*
X11126429Y-8921190D02*
X11135952Y-8911667D01*
X11155000Y-8902143D01*
X11183571Y-8902143D01*
X11202619Y-8911667D01*
X11212143Y-8930714D01*
X11212143Y-9035476D01*
X11212143Y-8930714D02*
X11221667Y-8911667D01*
X11240714Y-8902143D01*
X11269286Y-8902143D01*
X11288333Y-8911667D01*
X11297857Y-8930714D01*
X11297857Y-9035476D01*
X11688333Y-8825952D02*
X11516905Y-9083095D01*
X11945476Y-8835476D02*
X11964524Y-8835476D01*
X11983571Y-8845000D01*
X11993095Y-8854524D01*
X12002619Y-8873571D01*
X12012143Y-8911667D01*
X12012143Y-8959286D01*
X12002619Y-8997381D01*
X11993095Y-9016429D01*
X11983571Y-9025952D01*
X11964524Y-9035476D01*
X11945476Y-9035476D01*
X11926428Y-9025952D01*
X11916905Y-9016429D01*
X11907381Y-8997381D01*
X11897857Y-8959286D01*
X11897857Y-8911667D01*
X11907381Y-8873571D01*
X11916905Y-8854524D01*
X11926428Y-8845000D01*
X11945476Y-8835476D01*
X12097857Y-9016429D02*
X12107381Y-9025952D01*
X12097857Y-9035476D01*
X12088333Y-9025952D01*
X12097857Y-9016429D01*
X12097857Y-9035476D01*
X12231190Y-8835476D02*
X12250238Y-8835476D01*
X12269286Y-8845000D01*
X12278809Y-8854524D01*
X12288333Y-8873571D01*
X12297857Y-8911667D01*
X12297857Y-8959286D01*
X12288333Y-8997381D01*
X12278809Y-9016429D01*
X12269286Y-9025952D01*
X12250238Y-9035476D01*
X12231190Y-9035476D01*
X12212143Y-9025952D01*
X12202619Y-9016429D01*
X12193095Y-8997381D01*
X12183571Y-8959286D01*
X12183571Y-8911667D01*
X12193095Y-8873571D01*
X12202619Y-8854524D01*
X12212143Y-8845000D01*
X12231190Y-8835476D01*
X12364524Y-8835476D02*
X12488333Y-8835476D01*
X12421667Y-8911667D01*
X12450238Y-8911667D01*
X12469286Y-8921190D01*
X12478809Y-8930714D01*
X12488333Y-8949762D01*
X12488333Y-8997381D01*
X12478809Y-9016429D01*
X12469286Y-9025952D01*
X12450238Y-9035476D01*
X12393095Y-9035476D01*
X12374048Y-9025952D01*
X12364524Y-9016429D01*
X12583571Y-9035476D02*
X12621667Y-9035476D01*
X12640714Y-9025952D01*
X12650238Y-9016429D01*
X12669286Y-8987857D01*
X12678809Y-8949762D01*
X12678809Y-8873571D01*
X12669286Y-8854524D01*
X12659762Y-8845000D01*
X12640714Y-8835476D01*
X12602619Y-8835476D01*
X12583571Y-8845000D01*
X12574048Y-8854524D01*
X12564524Y-8873571D01*
X12564524Y-8921190D01*
X12574048Y-8940238D01*
X12583571Y-8949762D01*
X12602619Y-8959286D01*
X12640714Y-8959286D01*
X12659762Y-8949762D01*
X12669286Y-8940238D01*
X12678809Y-8921190D01*
X12850238Y-8902143D02*
X12850238Y-9035476D01*
X12802619Y-8825952D02*
X12755000Y-8968810D01*
X12878809Y-8968810D01*
X12945476Y-8835476D02*
X12945476Y-8873571D01*
X13021667Y-8835476D02*
X13021667Y-8873571D01*
X13316905Y-9111667D02*
X13307381Y-9102143D01*
X13288333Y-9073571D01*
X13278809Y-9054524D01*
X13269286Y-9025952D01*
X13259762Y-8978333D01*
X13259762Y-8940238D01*
X13269286Y-8892619D01*
X13278809Y-8864048D01*
X13288333Y-8845000D01*
X13307381Y-8816429D01*
X13316905Y-8806905D01*
X13497857Y-9035476D02*
X13383571Y-9035476D01*
X13440714Y-9035476D02*
X13440714Y-8835476D01*
X13421667Y-8864048D01*
X13402619Y-8883095D01*
X13383571Y-8892619D01*
X13564524Y-8835476D02*
X13688333Y-8835476D01*
X13621667Y-8911667D01*
X13650238Y-8911667D01*
X13669286Y-8921190D01*
X13678809Y-8930714D01*
X13688333Y-8949762D01*
X13688333Y-8997381D01*
X13678809Y-9016429D01*
X13669286Y-9025952D01*
X13650238Y-9035476D01*
X13593095Y-9035476D01*
X13574048Y-9025952D01*
X13564524Y-9016429D01*
X13926428Y-9035476D02*
X13926428Y-8835476D01*
X14012143Y-9035476D02*
X14012143Y-8930714D01*
X14002619Y-8911667D01*
X13983571Y-8902143D01*
X13955000Y-8902143D01*
X13935952Y-8911667D01*
X13926428Y-8921190D01*
X14135952Y-9035476D02*
X14116905Y-9025952D01*
X14107381Y-9016429D01*
X14097857Y-8997381D01*
X14097857Y-8940238D01*
X14107381Y-8921190D01*
X14116905Y-8911667D01*
X14135952Y-8902143D01*
X14164524Y-8902143D01*
X14183571Y-8911667D01*
X14193095Y-8921190D01*
X14202619Y-8940238D01*
X14202619Y-8997381D01*
X14193095Y-9016429D01*
X14183571Y-9025952D01*
X14164524Y-9035476D01*
X14135952Y-9035476D01*
X14316905Y-9035476D02*
X14297857Y-9025952D01*
X14288333Y-9006905D01*
X14288333Y-8835476D01*
X14469286Y-9025952D02*
X14450238Y-9035476D01*
X14412143Y-9035476D01*
X14393095Y-9025952D01*
X14383571Y-9006905D01*
X14383571Y-8930714D01*
X14393095Y-8911667D01*
X14412143Y-8902143D01*
X14450238Y-8902143D01*
X14469286Y-8911667D01*
X14478809Y-8930714D01*
X14478809Y-8949762D01*
X14383571Y-8968810D01*
X14555000Y-9025952D02*
X14574048Y-9035476D01*
X14612143Y-9035476D01*
X14631190Y-9025952D01*
X14640714Y-9006905D01*
X14640714Y-8997381D01*
X14631190Y-8978333D01*
X14612143Y-8968810D01*
X14583571Y-8968810D01*
X14564524Y-8959286D01*
X14555000Y-8940238D01*
X14555000Y-8930714D01*
X14564524Y-8911667D01*
X14583571Y-8902143D01*
X14612143Y-8902143D01*
X14631190Y-8911667D01*
X14707381Y-9111667D02*
X14716905Y-9102143D01*
X14735952Y-9073571D01*
X14745476Y-9054524D01*
X14755000Y-9025952D01*
X14764524Y-8978333D01*
X14764524Y-8940238D01*
X14755000Y-8892619D01*
X14745476Y-8864048D01*
X14735952Y-8845000D01*
X14716905Y-8816429D01*
X14707381Y-8806905D01*
D12*
X9745000Y-9209000D02*
G75*
G03*
X9745000Y-9209000I-55000J0D01*
G01*
D11*
X10107381Y-9299476D02*
X9993095Y-9299476D01*
X10050238Y-9299476D02*
X10050238Y-9099476D01*
X10031190Y-9128048D01*
X10012143Y-9147095D01*
X9993095Y-9156619D01*
X10193095Y-9280429D02*
X10202619Y-9289952D01*
X10193095Y-9299476D01*
X10183571Y-9289952D01*
X10193095Y-9280429D01*
X10193095Y-9299476D01*
X10393095Y-9299476D02*
X10278810Y-9299476D01*
X10335952Y-9299476D02*
X10335952Y-9099476D01*
X10316905Y-9128048D01*
X10297857Y-9147095D01*
X10278810Y-9156619D01*
X10516905Y-9099476D02*
X10535952Y-9099476D01*
X10555000Y-9109000D01*
X10564524Y-9118524D01*
X10574048Y-9137571D01*
X10583571Y-9175667D01*
X10583571Y-9223286D01*
X10574048Y-9261381D01*
X10564524Y-9280429D01*
X10555000Y-9289952D01*
X10535952Y-9299476D01*
X10516905Y-9299476D01*
X10497857Y-9289952D01*
X10488333Y-9280429D01*
X10478810Y-9261381D01*
X10469286Y-9223286D01*
X10469286Y-9175667D01*
X10478810Y-9137571D01*
X10488333Y-9118524D01*
X10497857Y-9109000D01*
X10516905Y-9099476D01*
X10707381Y-9099476D02*
X10726429Y-9099476D01*
X10745476Y-9109000D01*
X10755000Y-9118524D01*
X10764524Y-9137571D01*
X10774048Y-9175667D01*
X10774048Y-9223286D01*
X10764524Y-9261381D01*
X10755000Y-9280429D01*
X10745476Y-9289952D01*
X10726429Y-9299476D01*
X10707381Y-9299476D01*
X10688333Y-9289952D01*
X10678810Y-9280429D01*
X10669286Y-9261381D01*
X10659762Y-9223286D01*
X10659762Y-9175667D01*
X10669286Y-9137571D01*
X10678810Y-9118524D01*
X10688333Y-9109000D01*
X10707381Y-9099476D01*
X10859762Y-9299476D02*
X10859762Y-9166143D01*
X10859762Y-9185190D02*
X10869286Y-9175667D01*
X10888333Y-9166143D01*
X10916905Y-9166143D01*
X10935952Y-9175667D01*
X10945476Y-9194714D01*
X10945476Y-9299476D01*
X10945476Y-9194714D02*
X10955000Y-9175667D01*
X10974048Y-9166143D01*
X11002619Y-9166143D01*
X11021667Y-9175667D01*
X11031190Y-9194714D01*
X11031190Y-9299476D01*
X11126429Y-9299476D02*
X11126429Y-9166143D01*
X11126429Y-9185190D02*
X11135952Y-9175667D01*
X11155000Y-9166143D01*
X11183571Y-9166143D01*
X11202619Y-9175667D01*
X11212143Y-9194714D01*
X11212143Y-9299476D01*
X11212143Y-9194714D02*
X11221667Y-9175667D01*
X11240714Y-9166143D01*
X11269286Y-9166143D01*
X11288333Y-9175667D01*
X11297857Y-9194714D01*
X11297857Y-9299476D01*
X11688333Y-9089952D02*
X11516905Y-9347095D01*
X11945476Y-9099476D02*
X11964524Y-9099476D01*
X11983571Y-9109000D01*
X11993095Y-9118524D01*
X12002619Y-9137571D01*
X12012143Y-9175667D01*
X12012143Y-9223286D01*
X12002619Y-9261381D01*
X11993095Y-9280429D01*
X11983571Y-9289952D01*
X11964524Y-9299476D01*
X11945476Y-9299476D01*
X11926428Y-9289952D01*
X11916905Y-9280429D01*
X11907381Y-9261381D01*
X11897857Y-9223286D01*
X11897857Y-9175667D01*
X11907381Y-9137571D01*
X11916905Y-9118524D01*
X11926428Y-9109000D01*
X11945476Y-9099476D01*
X12097857Y-9280429D02*
X12107381Y-9289952D01*
X12097857Y-9299476D01*
X12088333Y-9289952D01*
X12097857Y-9280429D01*
X12097857Y-9299476D01*
X12231190Y-9099476D02*
X12250238Y-9099476D01*
X12269286Y-9109000D01*
X12278809Y-9118524D01*
X12288333Y-9137571D01*
X12297857Y-9175667D01*
X12297857Y-9223286D01*
X12288333Y-9261381D01*
X12278809Y-9280429D01*
X12269286Y-9289952D01*
X12250238Y-9299476D01*
X12231190Y-9299476D01*
X12212143Y-9289952D01*
X12202619Y-9280429D01*
X12193095Y-9261381D01*
X12183571Y-9223286D01*
X12183571Y-9175667D01*
X12193095Y-9137571D01*
X12202619Y-9118524D01*
X12212143Y-9109000D01*
X12231190Y-9099476D01*
X12469286Y-9166143D02*
X12469286Y-9299476D01*
X12421667Y-9089952D02*
X12374048Y-9232810D01*
X12497857Y-9232810D01*
X12555000Y-9099476D02*
X12678809Y-9099476D01*
X12612143Y-9175667D01*
X12640714Y-9175667D01*
X12659762Y-9185190D01*
X12669286Y-9194714D01*
X12678809Y-9213762D01*
X12678809Y-9261381D01*
X12669286Y-9280429D01*
X12659762Y-9289952D01*
X12640714Y-9299476D01*
X12583571Y-9299476D01*
X12564524Y-9289952D01*
X12555000Y-9280429D01*
X12745476Y-9099476D02*
X12869286Y-9099476D01*
X12802619Y-9175667D01*
X12831190Y-9175667D01*
X12850238Y-9185190D01*
X12859762Y-9194714D01*
X12869286Y-9213762D01*
X12869286Y-9261381D01*
X12859762Y-9280429D01*
X12850238Y-9289952D01*
X12831190Y-9299476D01*
X12774048Y-9299476D01*
X12755000Y-9289952D01*
X12745476Y-9280429D01*
X12945476Y-9099476D02*
X12945476Y-9137571D01*
X13021667Y-9099476D02*
X13021667Y-9137571D01*
X13316905Y-9375667D02*
X13307381Y-9366143D01*
X13288333Y-9337571D01*
X13278809Y-9318524D01*
X13269286Y-9289952D01*
X13259762Y-9242333D01*
X13259762Y-9204238D01*
X13269286Y-9156619D01*
X13278809Y-9128048D01*
X13288333Y-9109000D01*
X13307381Y-9080429D01*
X13316905Y-9070905D01*
X13383571Y-9118524D02*
X13393095Y-9109000D01*
X13412143Y-9099476D01*
X13459762Y-9099476D01*
X13478809Y-9109000D01*
X13488333Y-9118524D01*
X13497857Y-9137571D01*
X13497857Y-9156619D01*
X13488333Y-9185190D01*
X13374048Y-9299476D01*
X13497857Y-9299476D01*
X13735952Y-9299476D02*
X13735952Y-9099476D01*
X13821667Y-9299476D02*
X13821667Y-9194714D01*
X13812143Y-9175667D01*
X13793095Y-9166143D01*
X13764524Y-9166143D01*
X13745476Y-9175667D01*
X13735952Y-9185190D01*
X13945476Y-9299476D02*
X13926428Y-9289952D01*
X13916905Y-9280429D01*
X13907381Y-9261381D01*
X13907381Y-9204238D01*
X13916905Y-9185190D01*
X13926428Y-9175667D01*
X13945476Y-9166143D01*
X13974048Y-9166143D01*
X13993095Y-9175667D01*
X14002619Y-9185190D01*
X14012143Y-9204238D01*
X14012143Y-9261381D01*
X14002619Y-9280429D01*
X13993095Y-9289952D01*
X13974048Y-9299476D01*
X13945476Y-9299476D01*
X14126428Y-9299476D02*
X14107381Y-9289952D01*
X14097857Y-9270905D01*
X14097857Y-9099476D01*
X14278809Y-9289952D02*
X14259762Y-9299476D01*
X14221667Y-9299476D01*
X14202619Y-9289952D01*
X14193095Y-9270905D01*
X14193095Y-9194714D01*
X14202619Y-9175667D01*
X14221667Y-9166143D01*
X14259762Y-9166143D01*
X14278809Y-9175667D01*
X14288333Y-9194714D01*
X14288333Y-9213762D01*
X14193095Y-9232810D01*
X14364524Y-9289952D02*
X14383571Y-9299476D01*
X14421667Y-9299476D01*
X14440714Y-9289952D01*
X14450238Y-9270905D01*
X14450238Y-9261381D01*
X14440714Y-9242333D01*
X14421667Y-9232810D01*
X14393095Y-9232810D01*
X14374048Y-9223286D01*
X14364524Y-9204238D01*
X14364524Y-9194714D01*
X14374048Y-9175667D01*
X14393095Y-9166143D01*
X14421667Y-9166143D01*
X14440714Y-9175667D01*
X14516905Y-9375667D02*
X14526428Y-9366143D01*
X14545476Y-9337571D01*
X14555000Y-9318524D01*
X14564524Y-9289952D01*
X14574048Y-9242333D01*
X14574048Y-9204238D01*
X14564524Y-9156619D01*
X14555000Y-9128048D01*
X14545476Y-9109000D01*
X14526428Y-9080429D01*
X14516905Y-9070905D01*
X9645000Y-9373000D02*
X9645000Y-9573000D01*
X9545000Y-9473000D02*
X9745000Y-9473000D01*
X9993095Y-9382524D02*
X10002619Y-9373000D01*
X10021667Y-9363476D01*
X10069286Y-9363476D01*
X10088333Y-9373000D01*
X10097857Y-9382524D01*
X10107381Y-9401571D01*
X10107381Y-9420619D01*
X10097857Y-9449190D01*
X9983571Y-9563476D01*
X10107381Y-9563476D01*
X10193095Y-9544429D02*
X10202619Y-9553952D01*
X10193095Y-9563476D01*
X10183571Y-9553952D01*
X10193095Y-9544429D01*
X10193095Y-9563476D01*
X10278810Y-9382524D02*
X10288333Y-9373000D01*
X10307381Y-9363476D01*
X10355000Y-9363476D01*
X10374048Y-9373000D01*
X10383571Y-9382524D01*
X10393095Y-9401571D01*
X10393095Y-9420619D01*
X10383571Y-9449190D01*
X10269286Y-9563476D01*
X10393095Y-9563476D01*
X10516905Y-9363476D02*
X10535952Y-9363476D01*
X10555000Y-9373000D01*
X10564524Y-9382524D01*
X10574048Y-9401571D01*
X10583571Y-9439667D01*
X10583571Y-9487286D01*
X10574048Y-9525381D01*
X10564524Y-9544429D01*
X10555000Y-9553952D01*
X10535952Y-9563476D01*
X10516905Y-9563476D01*
X10497857Y-9553952D01*
X10488333Y-9544429D01*
X10478810Y-9525381D01*
X10469286Y-9487286D01*
X10469286Y-9439667D01*
X10478810Y-9401571D01*
X10488333Y-9382524D01*
X10497857Y-9373000D01*
X10516905Y-9363476D01*
X10707381Y-9363476D02*
X10726429Y-9363476D01*
X10745476Y-9373000D01*
X10755000Y-9382524D01*
X10764524Y-9401571D01*
X10774048Y-9439667D01*
X10774048Y-9487286D01*
X10764524Y-9525381D01*
X10755000Y-9544429D01*
X10745476Y-9553952D01*
X10726429Y-9563476D01*
X10707381Y-9563476D01*
X10688333Y-9553952D01*
X10678810Y-9544429D01*
X10669286Y-9525381D01*
X10659762Y-9487286D01*
X10659762Y-9439667D01*
X10669286Y-9401571D01*
X10678810Y-9382524D01*
X10688333Y-9373000D01*
X10707381Y-9363476D01*
X10859762Y-9563476D02*
X10859762Y-9430143D01*
X10859762Y-9449190D02*
X10869286Y-9439667D01*
X10888333Y-9430143D01*
X10916905Y-9430143D01*
X10935952Y-9439667D01*
X10945476Y-9458714D01*
X10945476Y-9563476D01*
X10945476Y-9458714D02*
X10955000Y-9439667D01*
X10974048Y-9430143D01*
X11002619Y-9430143D01*
X11021667Y-9439667D01*
X11031190Y-9458714D01*
X11031190Y-9563476D01*
X11126429Y-9563476D02*
X11126429Y-9430143D01*
X11126429Y-9449190D02*
X11135952Y-9439667D01*
X11155000Y-9430143D01*
X11183571Y-9430143D01*
X11202619Y-9439667D01*
X11212143Y-9458714D01*
X11212143Y-9563476D01*
X11212143Y-9458714D02*
X11221667Y-9439667D01*
X11240714Y-9430143D01*
X11269286Y-9430143D01*
X11288333Y-9439667D01*
X11297857Y-9458714D01*
X11297857Y-9563476D01*
X11688333Y-9353952D02*
X11516905Y-9611095D01*
X11945476Y-9363476D02*
X11964524Y-9363476D01*
X11983571Y-9373000D01*
X11993095Y-9382524D01*
X12002619Y-9401571D01*
X12012143Y-9439667D01*
X12012143Y-9487286D01*
X12002619Y-9525381D01*
X11993095Y-9544429D01*
X11983571Y-9553952D01*
X11964524Y-9563476D01*
X11945476Y-9563476D01*
X11926428Y-9553952D01*
X11916905Y-9544429D01*
X11907381Y-9525381D01*
X11897857Y-9487286D01*
X11897857Y-9439667D01*
X11907381Y-9401571D01*
X11916905Y-9382524D01*
X11926428Y-9373000D01*
X11945476Y-9363476D01*
X12097857Y-9544429D02*
X12107381Y-9553952D01*
X12097857Y-9563476D01*
X12088333Y-9553952D01*
X12097857Y-9544429D01*
X12097857Y-9563476D01*
X12231190Y-9363476D02*
X12250238Y-9363476D01*
X12269286Y-9373000D01*
X12278809Y-9382524D01*
X12288333Y-9401571D01*
X12297857Y-9439667D01*
X12297857Y-9487286D01*
X12288333Y-9525381D01*
X12278809Y-9544429D01*
X12269286Y-9553952D01*
X12250238Y-9563476D01*
X12231190Y-9563476D01*
X12212143Y-9553952D01*
X12202619Y-9544429D01*
X12193095Y-9525381D01*
X12183571Y-9487286D01*
X12183571Y-9439667D01*
X12193095Y-9401571D01*
X12202619Y-9382524D01*
X12212143Y-9373000D01*
X12231190Y-9363476D01*
X12412143Y-9449190D02*
X12393095Y-9439667D01*
X12383571Y-9430143D01*
X12374048Y-9411095D01*
X12374048Y-9401571D01*
X12383571Y-9382524D01*
X12393095Y-9373000D01*
X12412143Y-9363476D01*
X12450238Y-9363476D01*
X12469286Y-9373000D01*
X12478809Y-9382524D01*
X12488333Y-9401571D01*
X12488333Y-9411095D01*
X12478809Y-9430143D01*
X12469286Y-9439667D01*
X12450238Y-9449190D01*
X12412143Y-9449190D01*
X12393095Y-9458714D01*
X12383571Y-9468238D01*
X12374048Y-9487286D01*
X12374048Y-9525381D01*
X12383571Y-9544429D01*
X12393095Y-9553952D01*
X12412143Y-9563476D01*
X12450238Y-9563476D01*
X12469286Y-9553952D01*
X12478809Y-9544429D01*
X12488333Y-9525381D01*
X12488333Y-9487286D01*
X12478809Y-9468238D01*
X12469286Y-9458714D01*
X12450238Y-9449190D01*
X12659762Y-9363476D02*
X12621667Y-9363476D01*
X12602619Y-9373000D01*
X12593095Y-9382524D01*
X12574048Y-9411095D01*
X12564524Y-9449190D01*
X12564524Y-9525381D01*
X12574048Y-9544429D01*
X12583571Y-9553952D01*
X12602619Y-9563476D01*
X12640714Y-9563476D01*
X12659762Y-9553952D01*
X12669286Y-9544429D01*
X12678809Y-9525381D01*
X12678809Y-9477762D01*
X12669286Y-9458714D01*
X12659762Y-9449190D01*
X12640714Y-9439667D01*
X12602619Y-9439667D01*
X12583571Y-9449190D01*
X12574048Y-9458714D01*
X12564524Y-9477762D01*
X12850238Y-9363476D02*
X12812143Y-9363476D01*
X12793095Y-9373000D01*
X12783571Y-9382524D01*
X12764524Y-9411095D01*
X12755000Y-9449190D01*
X12755000Y-9525381D01*
X12764524Y-9544429D01*
X12774048Y-9553952D01*
X12793095Y-9563476D01*
X12831190Y-9563476D01*
X12850238Y-9553952D01*
X12859762Y-9544429D01*
X12869286Y-9525381D01*
X12869286Y-9477762D01*
X12859762Y-9458714D01*
X12850238Y-9449190D01*
X12831190Y-9439667D01*
X12793095Y-9439667D01*
X12774048Y-9449190D01*
X12764524Y-9458714D01*
X12755000Y-9477762D01*
X12945476Y-9363476D02*
X12945476Y-9401571D01*
X13021667Y-9363476D02*
X13021667Y-9401571D01*
X13316905Y-9639667D02*
X13307381Y-9630143D01*
X13288333Y-9601571D01*
X13278809Y-9582524D01*
X13269286Y-9553952D01*
X13259762Y-9506333D01*
X13259762Y-9468238D01*
X13269286Y-9420619D01*
X13278809Y-9392048D01*
X13288333Y-9373000D01*
X13307381Y-9344429D01*
X13316905Y-9334905D01*
X13478809Y-9430143D02*
X13478809Y-9563476D01*
X13431190Y-9353952D02*
X13383571Y-9496810D01*
X13507381Y-9496810D01*
X13735952Y-9563476D02*
X13735952Y-9363476D01*
X13821667Y-9563476D02*
X13821667Y-9458714D01*
X13812143Y-9439667D01*
X13793095Y-9430143D01*
X13764524Y-9430143D01*
X13745476Y-9439667D01*
X13735952Y-9449190D01*
X13945476Y-9563476D02*
X13926428Y-9553952D01*
X13916905Y-9544429D01*
X13907381Y-9525381D01*
X13907381Y-9468238D01*
X13916905Y-9449190D01*
X13926428Y-9439667D01*
X13945476Y-9430143D01*
X13974048Y-9430143D01*
X13993095Y-9439667D01*
X14002619Y-9449190D01*
X14012143Y-9468238D01*
X14012143Y-9525381D01*
X14002619Y-9544429D01*
X13993095Y-9553952D01*
X13974048Y-9563476D01*
X13945476Y-9563476D01*
X14126428Y-9563476D02*
X14107381Y-9553952D01*
X14097857Y-9534905D01*
X14097857Y-9363476D01*
X14278809Y-9553952D02*
X14259762Y-9563476D01*
X14221667Y-9563476D01*
X14202619Y-9553952D01*
X14193095Y-9534905D01*
X14193095Y-9458714D01*
X14202619Y-9439667D01*
X14221667Y-9430143D01*
X14259762Y-9430143D01*
X14278809Y-9439667D01*
X14288333Y-9458714D01*
X14288333Y-9477762D01*
X14193095Y-9496810D01*
X14364524Y-9553952D02*
X14383571Y-9563476D01*
X14421667Y-9563476D01*
X14440714Y-9553952D01*
X14450238Y-9534905D01*
X14450238Y-9525381D01*
X14440714Y-9506333D01*
X14421667Y-9496810D01*
X14393095Y-9496810D01*
X14374048Y-9487286D01*
X14364524Y-9468238D01*
X14364524Y-9458714D01*
X14374048Y-9439667D01*
X14393095Y-9430143D01*
X14421667Y-9430143D01*
X14440714Y-9439667D01*
X14516905Y-9639667D02*
X14526428Y-9630143D01*
X14545476Y-9601571D01*
X14555000Y-9582524D01*
X14564524Y-9553952D01*
X14574048Y-9506333D01*
X14574048Y-9468238D01*
X14564524Y-9420619D01*
X14555000Y-9392048D01*
X14545476Y-9373000D01*
X14526428Y-9344429D01*
X14516905Y-9334905D01*
M02*
