%TF.GenerationSoftware,KiCad,Pcbnew,(6.0.8-1)-1*%
%TF.CreationDate,2024-02-23T21:37:45-06:00*%
%TF.ProjectId,RGB LED Interface,52474220-4c45-4442-9049-6e7465726661,rev?*%
%TF.SameCoordinates,Original*%
%TF.FileFunction,Legend,Bot*%
%TF.FilePolarity,Positive*%
%FSLAX46Y46*%
G04 Gerber Fmt 4.6, Leading zero omitted, Abs format (unit mm)*
G04 Created by KiCad (PCBNEW (6.0.8-1)-1) date 2024-02-23 21:37:45*
%MOMM*%
%LPD*%
G01*
G04 APERTURE LIST*
%ADD10C,0.180000*%
G04 APERTURE END LIST*
D10*
X150942857Y-72657142D02*
X150885714Y-72600000D01*
X150771428Y-72542857D01*
X150485714Y-72542857D01*
X150371428Y-72600000D01*
X150314285Y-72657142D01*
X150257142Y-72771428D01*
X150257142Y-72885714D01*
X150314285Y-73057142D01*
X151000000Y-73742857D01*
X150257142Y-73742857D01*
X149742857Y-73285714D02*
X148828571Y-73285714D01*
X147742857Y-72942857D02*
X147742857Y-73742857D01*
X148028571Y-72485714D02*
X148314285Y-73342857D01*
X147571428Y-73342857D01*
X147114285Y-73285714D02*
X146200000Y-73285714D01*
X145114285Y-72542857D02*
X145342857Y-72542857D01*
X145457142Y-72600000D01*
X145514285Y-72657142D01*
X145628571Y-72828571D01*
X145685714Y-73057142D01*
X145685714Y-73514285D01*
X145628571Y-73628571D01*
X145571428Y-73685714D01*
X145457142Y-73742857D01*
X145228571Y-73742857D01*
X145114285Y-73685714D01*
X145057142Y-73628571D01*
X145000000Y-73514285D01*
X145000000Y-73228571D01*
X145057142Y-73114285D01*
X145114285Y-73057142D01*
X145228571Y-73000000D01*
X145457142Y-73000000D01*
X145571428Y-73057142D01*
X145628571Y-73114285D01*
X145685714Y-73228571D01*
X144485714Y-73285714D02*
X143571428Y-73285714D01*
X142828571Y-73057142D02*
X142942857Y-73000000D01*
X143000000Y-72942857D01*
X143057142Y-72828571D01*
X143057142Y-72771428D01*
X143000000Y-72657142D01*
X142942857Y-72600000D01*
X142828571Y-72542857D01*
X142600000Y-72542857D01*
X142485714Y-72600000D01*
X142428571Y-72657142D01*
X142371428Y-72771428D01*
X142371428Y-72828571D01*
X142428571Y-72942857D01*
X142485714Y-73000000D01*
X142600000Y-73057142D01*
X142828571Y-73057142D01*
X142942857Y-73114285D01*
X143000000Y-73171428D01*
X143057142Y-73285714D01*
X143057142Y-73514285D01*
X143000000Y-73628571D01*
X142942857Y-73685714D01*
X142828571Y-73742857D01*
X142600000Y-73742857D01*
X142485714Y-73685714D01*
X142428571Y-73628571D01*
X142371428Y-73514285D01*
X142371428Y-73285714D01*
X142428571Y-73171428D01*
X142485714Y-73114285D01*
X142600000Y-73057142D01*
X141057142Y-72542857D02*
X140771428Y-73742857D01*
X140542857Y-72885714D01*
X140314285Y-73742857D01*
X140028571Y-72542857D01*
X139571428Y-73742857D02*
X139571428Y-72542857D01*
X139285714Y-72542857D01*
X139114285Y-72600000D01*
X139000000Y-72714285D01*
X138942857Y-72828571D01*
X138885714Y-73057142D01*
X138885714Y-73228571D01*
X138942857Y-73457142D01*
X139000000Y-73571428D01*
X139114285Y-73685714D01*
X139285714Y-73742857D01*
X139571428Y-73742857D01*
X138485714Y-72542857D02*
X138200000Y-73742857D01*
X137971428Y-72885714D01*
X137742857Y-73742857D01*
X137457142Y-72542857D01*
X137057142Y-73400000D02*
X136485714Y-73400000D01*
X137171428Y-73742857D02*
X136771428Y-72542857D01*
X136371428Y-73742857D01*
X135800000Y-73628571D02*
X135742857Y-73685714D01*
X135800000Y-73742857D01*
X135857142Y-73685714D01*
X135800000Y-73628571D01*
X135800000Y-73742857D01*
X136028571Y-72600000D02*
X135914285Y-72542857D01*
X135628571Y-72542857D01*
X135514285Y-72600000D01*
X135457142Y-72714285D01*
X135457142Y-72828571D01*
X135514285Y-72942857D01*
X135571428Y-73000000D01*
X135685714Y-73057142D01*
X135742857Y-73114285D01*
X135800000Y-73228571D01*
X135800000Y-73285714D01*
%TO.C,G\u002A\u002A\u002A*%
G36*
X141622775Y-76290835D02*
G01*
X141827465Y-76298994D01*
X142045083Y-76310953D01*
X142267055Y-76326433D01*
X142484808Y-76345151D01*
X142689766Y-76366828D01*
X142829595Y-76383306D01*
X142737332Y-76458740D01*
X142710767Y-76480499D01*
X142666581Y-76512651D01*
X142623826Y-76528417D01*
X142566541Y-76529074D01*
X142478768Y-76515901D01*
X142344544Y-76490173D01*
X142289022Y-76479556D01*
X142046106Y-76436481D01*
X141810604Y-76399756D01*
X141596141Y-76371233D01*
X141416341Y-76352761D01*
X141284827Y-76346192D01*
X141214154Y-76343572D01*
X141131485Y-76332057D01*
X141091260Y-76314482D01*
X141104763Y-76301824D01*
X141172006Y-76291972D01*
X141286471Y-76287044D01*
X141439586Y-76286758D01*
X141622775Y-76290835D01*
G37*
G36*
X145642371Y-78624087D02*
G01*
X145585556Y-78664848D01*
X145446978Y-78734097D01*
X145278791Y-78792148D01*
X145102621Y-78830722D01*
X145073550Y-78834750D01*
X144949550Y-78845105D01*
X144834964Y-78845402D01*
X144747610Y-78836206D01*
X144705305Y-78818085D01*
X144702998Y-78810599D01*
X144720224Y-78762010D01*
X144770379Y-78699171D01*
X144784368Y-78685478D01*
X144825933Y-78651860D01*
X144875307Y-78629251D01*
X144946381Y-78614330D01*
X145053049Y-78603776D01*
X145209205Y-78594266D01*
X145326832Y-78586940D01*
X145470955Y-78575428D01*
X145587091Y-78563295D01*
X145657553Y-78552201D01*
X145752684Y-78529352D01*
X145642371Y-78624087D01*
G37*
G36*
X142287746Y-76648678D02*
G01*
X142379309Y-76656359D01*
X142423645Y-76669114D01*
X142430460Y-76681402D01*
X142421822Y-76728777D01*
X142395683Y-76746030D01*
X142319368Y-76754394D01*
X142188747Y-76746967D01*
X142090816Y-76739148D01*
X141930854Y-76730427D01*
X141790474Y-76726942D01*
X141743144Y-76726547D01*
X141661801Y-76721695D01*
X141630977Y-76709359D01*
X141641479Y-76687079D01*
X141680053Y-76673534D01*
X141768379Y-76661349D01*
X141889270Y-76652404D01*
X142026767Y-76647067D01*
X142164912Y-76645702D01*
X142287746Y-76648678D01*
G37*
G36*
X144975780Y-77723931D02*
G01*
X144972638Y-77831387D01*
X144926471Y-78131521D01*
X144826672Y-78398897D01*
X144675151Y-78631020D01*
X144473816Y-78825399D01*
X144224576Y-78979540D01*
X143929338Y-79090950D01*
X143897227Y-79099516D01*
X143624193Y-79137923D01*
X143351741Y-79119637D01*
X143088242Y-79049496D01*
X142842064Y-78932337D01*
X142621576Y-78772996D01*
X142435149Y-78576312D01*
X142291152Y-78347122D01*
X142197953Y-78090262D01*
X142182198Y-78018168D01*
X142153129Y-77714464D01*
X142184034Y-77436574D01*
X143937006Y-77436574D01*
X143958842Y-77500963D01*
X143990577Y-77528312D01*
X144056179Y-77551186D01*
X144093254Y-77543031D01*
X144153516Y-77500963D01*
X144165159Y-77483793D01*
X144172056Y-77419356D01*
X144131786Y-77366798D01*
X144056179Y-77345069D01*
X144032697Y-77346861D01*
X143965568Y-77378892D01*
X143937006Y-77436574D01*
X142184034Y-77436574D01*
X142185585Y-77422625D01*
X142278340Y-77146625D01*
X142430168Y-76890438D01*
X142639842Y-76658038D01*
X142649166Y-76649562D01*
X142861212Y-76499657D01*
X143107135Y-76394023D01*
X143374329Y-76334375D01*
X143650188Y-76322431D01*
X143922106Y-76359910D01*
X144177475Y-76448529D01*
X144304187Y-76516639D01*
X144533405Y-76690763D01*
X144719881Y-76906077D01*
X144858908Y-77155058D01*
X144942358Y-77419356D01*
X144945777Y-77430183D01*
X144975780Y-77723931D01*
G37*
G36*
X142203705Y-75892142D02*
G01*
X142470997Y-75929266D01*
X142627162Y-75962354D01*
X142808659Y-76007963D01*
X142971055Y-76056167D01*
X143108310Y-76104316D01*
X143214384Y-76149762D01*
X143283236Y-76189856D01*
X143308825Y-76221951D01*
X143285112Y-76243397D01*
X143206056Y-76251547D01*
X143140518Y-76259025D01*
X143073158Y-76282924D01*
X143044321Y-76296049D01*
X142983009Y-76298159D01*
X142935765Y-76284041D01*
X142856167Y-76265324D01*
X142813005Y-76255968D01*
X142711456Y-76232387D01*
X142597503Y-76204649D01*
X142310639Y-76141283D01*
X141994624Y-76086227D01*
X141671916Y-76042829D01*
X141359287Y-76013015D01*
X141073509Y-75998711D01*
X140831352Y-76001842D01*
X140814668Y-76002779D01*
X140709582Y-76006924D01*
X140638608Y-76006648D01*
X140616323Y-76001946D01*
X140640971Y-75994096D01*
X140717262Y-75977497D01*
X140831840Y-75955652D01*
X140971362Y-75931218D01*
X141250646Y-75895246D01*
X141572366Y-75875160D01*
X141897107Y-75874116D01*
X142203705Y-75892142D01*
G37*
G36*
X142365796Y-78682378D02*
G01*
X142426677Y-78748651D01*
X142467241Y-78793130D01*
X142573400Y-78889783D01*
X142677983Y-78964680D01*
X142741402Y-79005243D01*
X142792075Y-79054888D01*
X142796249Y-79099050D01*
X142783949Y-79127929D01*
X142758368Y-79168415D01*
X142744071Y-79183778D01*
X142702212Y-79238676D01*
X142653935Y-79308532D01*
X142614085Y-79371465D01*
X142597503Y-79405589D01*
X142591859Y-79420543D01*
X142560315Y-79477327D01*
X142510299Y-79557497D01*
X142480195Y-79604357D01*
X142432822Y-79680665D01*
X142407241Y-79725557D01*
X142405535Y-79728861D01*
X142375262Y-79775959D01*
X142319439Y-79856296D01*
X142248689Y-79954533D01*
X142105992Y-80149587D01*
X141685830Y-80150512D01*
X141648582Y-80150484D01*
X141498547Y-80147988D01*
X141376943Y-80142178D01*
X141295430Y-80133803D01*
X141265667Y-80123608D01*
X141273370Y-80102080D01*
X141313233Y-80056305D01*
X141338539Y-80028970D01*
X141360799Y-79975789D01*
X141362710Y-79960575D01*
X141390167Y-79924178D01*
X141406855Y-79907493D01*
X141455019Y-79845253D01*
X141526788Y-79745563D01*
X141615750Y-79617382D01*
X141715494Y-79469663D01*
X141764383Y-79396563D01*
X141891240Y-79210174D01*
X141995712Y-79063249D01*
X142085979Y-78944918D01*
X142170221Y-78844312D01*
X142256616Y-78750559D01*
X142291925Y-78704896D01*
X142312730Y-78653121D01*
X142324412Y-78649448D01*
X142365796Y-78682378D01*
G37*
G36*
X145133387Y-77774127D02*
G01*
X145166747Y-77805630D01*
X145213608Y-77868290D01*
X145221648Y-77879920D01*
X145273096Y-77939155D01*
X145313274Y-77963330D01*
X145329058Y-77966853D01*
X145365572Y-78005254D01*
X145404013Y-78049606D01*
X145493974Y-78104953D01*
X145619157Y-78161120D01*
X145764952Y-78213450D01*
X145916752Y-78257283D01*
X146059948Y-78287959D01*
X146179933Y-78300820D01*
X146262099Y-78291205D01*
X146284404Y-78286211D01*
X146307615Y-78301338D01*
X146287896Y-78320384D01*
X146213264Y-78349697D01*
X146090939Y-78383219D01*
X145929325Y-78418702D01*
X145736829Y-78453901D01*
X145713431Y-78457623D01*
X145556311Y-78476657D01*
X145376494Y-78491105D01*
X145208434Y-78498086D01*
X144917868Y-78502497D01*
X144950966Y-78399438D01*
X144985926Y-78299236D01*
X145027487Y-78192245D01*
X145028031Y-78190934D01*
X145058463Y-78092614D01*
X145071344Y-78001983D01*
X145072770Y-77963709D01*
X145085249Y-77871814D01*
X145106157Y-77801334D01*
X145130102Y-77773250D01*
X145133387Y-77774127D01*
G37*
G36*
X140013108Y-80108258D02*
G01*
X140035878Y-80118526D01*
X140060674Y-80138973D01*
X140055416Y-80144651D01*
X140013108Y-80151436D01*
X139991242Y-80147976D01*
X139965543Y-80120721D01*
X139972276Y-80107599D01*
X140013108Y-80108258D01*
G37*
%TD*%
M02*
